<?xml version="1.0" encoding="utf-8"?>
<!-- Generator: Adobe Illustrator 25.2.1, SVG Export Plug-In . SVG Version: 6.00 Build 0)  -->
<svg version="1.1" id="Layer_1" xmlns="http://www.w3.org/2000/svg" xmlns:xlink="http://www.w3.org/1999/xlink" x="0px" y="0px"
	 viewBox="0 0 198 198" style="enable-background:new 0 0 198 198;" xml:space="preserve">
<style type="text/css">
	.st0{fill-rule:evenodd;clip-rule:evenodd;fill:#161922;}
	.st1{fill:#2874ED;}
	.st2{fill-rule:evenodd;clip-rule:evenodd;fill:#FFFFFF;}
	.st3{fill:#FFFFFF;}
	.st4{fill:#60F0A1;}
	.st5{fill-rule:evenodd;clip-rule:evenodd;fill:#2874ED;}
	.st6{fill-rule:evenodd;clip-rule:evenodd;fill:#60F0A1;}
	.st7{fill:#161922;}
	.st8{fill:#FFD63A;}
	.st9{fill-rule:evenodd;clip-rule:evenodd;fill:#FFD63A;}
	.st10{display:none;}
	.st11{display:inline;fill-rule:evenodd;clip-rule:evenodd;fill:#FFFFFF;}
	.st12{display:inline;fill-rule:evenodd;clip-rule:evenodd;fill:#FFD63A;}
	.st13{display:inline;fill:#FFFFFF;}
	.st14{display:inline;fill:#FFD63A;}
</style>
<rect x="-5456.4" y="-9210.6" class="st0" width="3500" height="3500"/>
<rect x="-1956.4" y="-6989.3" class="st1" width="3500" height="1278.7"/>
<rect x="-1956.4" y="-9210.6" class="st2" width="3500" height="2221.3"/>
<g>
	<path class="st2" d="M525-6550.8v413.4c0,67.5,55.2,122.7,122.7,122.7h413.4c67.5,0,122.7-55.2,122.7-122.7v-413.4
		c0-67.5-55.2-122.7-122.7-122.7H647.7C580.2-6673.5,525-6618.3,525-6550.8"/>
	<path class="st3" d="M-4812.9-7264.2c19.1,9.6,33.8,23.4,44.2,41.3c10.4,18,15.6,38.9,15.6,62.8c0,23.9-5.2,44.9-15.6,62.8
		c-10.4,18-25.1,31.7-44.2,41.3c-19.1,9.6-41.3,14.4-66.9,14.4h-80.8v93.5h-77.5v-330.7h158.3
		C-4854.2-7278.6-4831.9-7273.8-4812.9-7264.2z M-4844.5-7122.7c9.6-9.1,14.4-21.4,14.4-36.9c0-15.4-4.8-27.7-14.4-36.9
		c-9.6-9.1-22.6-13.7-39-13.7h-77.5v101.1h77.5C-4867.1-7109-4854.1-7113.6-4844.5-7122.7z"/>
	<path class="st3" d="M-4477.2-7181.3v233.4h-64.3l-4.7-27.9c-19.8,21.7-45.7,32.6-77.5,32.6c-21.7,0-41-5.1-57.9-15.4
		c-16.9-10.2-30-24.6-39.5-43c-9.4-18.4-14.2-39.5-14.2-63.1c0-23.6,4.7-44.6,14.2-63.1c9.4-18.4,22.6-32.8,39.5-43
		c16.8-10.2,36.1-15.4,57.9-15.4c15.7,0,30.2,2.8,43.5,8.3c13.2,5.5,24.6,13.5,34,23.9l4.7-27.4H-4477.2z M-4566-7021.8
		c10.4-10.9,15.6-25.1,15.6-42.8c0-17.6-5.2-31.9-15.6-42.8c-10.4-10.9-23.8-16.3-40.2-16.3c-16.4,0-29.7,5.5-39.9,16.5
		c-10.2,11-15.4,25.2-15.4,42.5c0,17.3,5.1,31.5,15.4,42.5c10.2,11,23.5,16.5,39.9,16.5C-4589.8-7005.5-4576.4-7011-4566-7021.8z"/>
	<path class="st4" d="M-4415.5-7215.8c-8-7.6-12-17.2-12-28.8c0-12,4.1-21.7,12.3-29.3c8.2-7.6,18.6-11.3,31.2-11.3
		c12.6,0,23,3.8,31.2,11.3c8.2,7.6,12.3,17.3,12.3,29.3c0,11.7-4,21.3-12,28.8s-18.5,11.3-31.4,11.3
		C-4397-7204.4-4407.5-7208.2-4415.5-7215.8z"/>
	<rect x="-4421.4" y="-7181.3" class="st3" width="74.2" height="233.4"/>
	<path class="st3" d="M-4308.5-6972.9l28.3-51c11.3,6.9,24.5,12.3,39.5,16.1c15,3.8,29.8,5.7,44.6,5.7c20.5,0,30.7-5.5,30.7-16.5
		c0-5.7-2.8-9.9-8.5-12.8c-5.7-2.8-15.1-4.7-28.3-5.7c-29.6-1.6-53.2-9-70.6-22.2c-17.5-13.2-26.2-30.5-26.2-52
		c0-23.3,9.4-41.8,28.3-55.5c18.9-13.7,44.4-20.6,76.5-20.6c18.3,0,35.7,2.2,52.2,6.6c16.5,4.4,30.8,10.6,42.8,18.4l-28.8,49.6
		c-17.6-10.1-38.6-15.1-62.8-15.1c-23.9,0-35.9,5.7-35.9,17c0,4.7,2.4,8.3,7.3,10.9c4.9,2.5,13.1,4.4,24.8,5.7
		c33.4,2.5,58.8,10.1,76.3,22.7c17.5,12.6,26.2,30.2,26.2,52.9c0,23.9-9.6,42.8-28.8,56.5c-19.2,13.7-45.8,20.6-79.8,20.6
		C-4242.1-6941.8-4278-6952.1-4308.5-6972.9z"/>
	<path class="st3" d="M-3811-7181.3v233.4h-64.3l-4.7-27.9c-19.8,21.7-45.7,32.6-77.5,32.6c-21.7,0-41-5.1-57.9-15.4
		c-16.9-10.2-30-24.6-39.5-43c-9.4-18.4-14.2-39.5-14.2-63.1c0-23.6,4.7-44.6,14.2-63.1c9.4-18.4,22.6-32.8,39.5-43
		c16.8-10.2,36.1-15.4,57.9-15.4c15.7,0,30.2,2.8,43.5,8.3c13.2,5.5,24.6,13.5,34,23.9l4.7-27.4H-3811z M-3899.8-7021.8
		c10.4-10.9,15.6-25.1,15.6-42.8c0-17.6-5.2-31.9-15.6-42.8c-10.4-10.9-23.8-16.3-40.2-16.3c-16.4,0-29.7,5.5-39.9,16.5
		c-10.2,11-15.4,25.2-15.4,42.5c0,17.3,5.1,31.5,15.4,42.5c10.2,11,23.5,16.5,39.9,16.5C-3923.6-7005.5-3910.2-7011-3899.8-7021.8z"
		/>
	<path class="st3" d="M-3677.3-6959.2c-19.5-11-34.7-26.5-45.6-46.5c-10.9-20-16.3-42.9-16.3-68.7v-204.1h20.8v204.1
		c0,22.1,4.6,41.5,13.7,58.3c9.1,16.9,21.9,30,38.3,39.5c16.4,9.4,35.1,14.2,56.2,14.2c21.1,0,39.8-4.7,56.2-14.2
		c16.4-9.4,29.1-22.6,38.3-39.5c9.1-16.8,13.7-36.3,13.7-58.3v-204.1h20.8v204.1c0,25.8-5.4,48.7-16.3,68.7
		c-10.9,20-26.1,35.5-45.6,46.5c-19.5,11-41.9,16.5-67.1,16.5C-3635.4-6942.7-3657.8-6948.2-3677.3-6959.2z"/>
	<path class="st3" d="M-3183.1-7278.6v330.7h-18.9l-0.5-51.5c-8.8,17-22.1,30.5-39.9,40.4c-17.8,9.9-37.9,14.9-60.2,14.9
		c-22.4,0-42.4-5.1-60.2-15.4c-17.8-10.2-31.7-24.5-41.6-42.8c-9.9-18.3-14.9-39.1-14.9-62.4c0-23.3,5-44.1,14.9-62.4
		c9.9-18.3,23.8-32.5,41.6-42.8c17.8-10.2,37.9-15.4,60.2-15.4c22.4,0,42.4,4.9,60,14.6c17.6,9.8,30.9,23.2,39.7,40.2v-148.4
		H-3183.1z M-3250.4-6975.3c15-8.5,26.6-20.5,35-35.9c8.3-15.4,12.5-33.2,12.5-53.4c0-20.2-4.2-38-12.5-53.4
		c-8.3-15.4-20-27.4-35-35.9c-15-8.5-31.9-12.8-50.8-12.8c-19.2,0-36.2,4.3-51,12.8c-14.8,8.5-26.4,20.5-34.7,35.9
		c-8.3,15.4-12.5,33.2-12.5,53.4c0,20.2,4.2,38,12.5,53.4c8.3,15.4,19.9,27.4,34.7,35.9c14.8,8.5,31.8,12.8,51,12.8
		C-3282.3-6962.5-3265.4-6966.8-3250.4-6975.3z"/>
	<path class="st3" d="M-2921.6-7157.7c17.5,18,26.2,43,26.2,75.1v134.7h-19.8v-133.7c0-27.1-6.9-47.9-20.8-62.4
		c-13.9-14.5-33.5-21.7-59.1-21.7c-17.3,0-32.8,3.9-46.5,11.6c-13.7,7.7-24.3,18.3-31.9,31.7c-7.6,13.4-11.3,28.3-11.3,44.6v129.9
		h-19.8v-330.7h19.8v142.7c9.1-15.1,21.7-27,37.6-35.7c15.9-8.7,33.6-13,53.2-13C-2963.3-7184.6-2939.1-7175.6-2921.6-7157.7z"/>
	<path class="st3" d="M-2599.6-7181.3v233.4h-18.9l-0.5-52c-8.8,17.3-22.1,30.9-39.9,40.9c-17.8,9.9-37.9,14.9-60.2,14.9
		c-22.7,0-42.8-5.1-60.5-15.4c-17.6-10.2-31.4-24.5-41.3-42.8c-9.9-18.3-14.9-39.1-14.9-62.4c0-23.3,5-44.1,14.9-62.4
		c9.9-18.3,23.7-32.5,41.3-42.8c17.6-10.2,37.8-15.4,60.5-15.4c22.4,0,42.4,5,60.2,15.1c17.8,10.1,31.1,23.8,39.9,41.1l0.5-52.4
		H-2599.6z M-2667-6975.3c15-8.5,26.6-20.5,35-35.9c8.3-15.4,12.5-33.2,12.5-53.4c0-20.2-4.2-38-12.5-53.4
		c-8.3-15.4-20-27.4-35-35.9c-15-8.5-31.9-12.8-50.8-12.8c-19.2,0-36.2,4.3-51,12.8c-14.8,8.5-26.4,20.5-34.7,35.9
		c-8.3,15.4-12.5,33.2-12.5,53.4c0,20.2,4.2,38,12.5,53.4c8.3,15.4,19.9,27.4,34.7,35.9c14.8,8.5,31.8,12.8,51,12.8
		C-2698.8-6962.5-2681.9-6966.8-2667-6975.3z"/>
	<path class="st3" d="M-2374.7-7170.9l-9,17c-11.7-6.9-24.7-10.4-39.2-10.4c-14.5,0-27.8,4.3-39.9,12.8c-12.1,8.5-21.7,20.2-28.6,35
		c-6.9,14.8-10.4,31-10.4,48.7v120h-19.8v-233.4h18.9v52c8.2-17,19.3-30.3,33.3-39.9c14-9.6,29.7-14.4,47-14.4
		C-2403.9-7183.7-2388-7179.4-2374.7-7170.9z"/>
	<path class="st3" d="M-1035.3-6404.8c8.2,4.2,14.6,10.1,19.1,17.9c4.5,7.8,6.7,16.8,6.7,27.1c0,10.3-2.2,19.4-6.7,27.1
		c-4.5,7.8-10.9,13.7-19.1,17.9c-8.2,4.2-17.9,6.2-28.9,6.2h-34.9v40.4h-33.5V-6411h68.4C-1053.2-6411-1043.6-6409-1035.3-6404.8z
		 M-1049-6343.7c4.1-3.9,6.2-9.3,6.2-15.9c0-6.7-2.1-12-6.2-15.9c-4.2-3.9-9.8-5.9-16.8-5.9h-33.5v43.7h33.5
		C-1058.8-6337.7-1053.2-6339.7-1049-6343.7z"/>
	<path class="st3" d="M-890.3-6369v100.8h-27.8l-2-12c-8.6,9.4-19.7,14.1-33.5,14.1c-9.4,0-17.7-2.2-25-6.6
		c-7.3-4.4-13-10.6-17-18.6c-4.1-8-6.1-17-6.1-27.2s2-19.3,6.1-27.2c4.1-8,9.8-14.2,17-18.6c7.3-4.4,15.6-6.6,25-6.6
		c6.8,0,13.1,1.2,18.8,3.6c5.7,2.4,10.6,5.8,14.7,10.3l2-11.8H-890.3z M-928.7-6300.1c4.5-4.7,6.7-10.9,6.7-18.5
		c0-7.6-2.2-13.8-6.7-18.5c-4.5-4.7-10.3-7-17.4-7c-7.1,0-12.8,2.4-17.2,7.1c-4.4,4.8-6.6,10.9-6.6,18.4c0,7.5,2.2,13.6,6.6,18.4
		c4.4,4.8,10.2,7.1,17.2,7.1C-939-6293-933.2-6295.4-928.7-6300.1z"/>
	<path class="st4" d="M-863.7-6383.9c-3.5-3.3-5.2-7.4-5.2-12.5c0-5.2,1.8-9.4,5.3-12.7c3.5-3.3,8-4.9,13.5-4.9
		c5.4,0,9.9,1.6,13.5,4.9c3.5,3.3,5.3,7.5,5.3,12.7c0,5-1.7,9.2-5.2,12.5c-3.5,3.3-8,4.9-13.6,4.9
		C-855.7-6379-860.2-6380.6-863.7-6383.9z"/>
	<rect x="-866.2" y="-6369" class="st3" width="32" height="100.8"/>
	<path class="st3" d="M-817.4-6279l12.2-22c4.9,3,10.6,5.3,17,6.9c6.5,1.6,12.9,2.4,19.3,2.4c8.8,0,13.3-2.4,13.3-7.1
		c0-2.4-1.2-4.3-3.7-5.5c-2.4-1.2-6.5-2-12.2-2.4c-12.8-0.7-23-3.9-30.5-9.6c-7.6-5.7-11.3-13.2-11.3-22.5c0-10.1,4.1-18.1,12.2-24
		c8.2-5.9,19.2-8.9,33.1-8.9c7.9,0,15.4,1,22.6,2.9c7.1,1.9,13.3,4.6,18.5,8l-12.5,21.4c-7.6-4.4-16.7-6.5-27.1-6.5
		c-10.3,0-15.5,2.4-15.5,7.3c0,2,1.1,3.6,3.2,4.7c2.1,1.1,5.7,1.9,10.7,2.4c14.4,1.1,25.4,4.4,33,9.8c7.6,5.4,11.3,13.1,11.3,22.9
		c0,10.3-4.2,18.5-12.5,24.4c-8.3,5.9-19.8,8.9-34.5,8.9C-788.7-6265.5-804.2-6270-817.4-6279z"/>
	<path class="st3" d="M-602.5-6369v100.8h-27.8l-2-12c-8.6,9.4-19.7,14.1-33.5,14.1c-9.4,0-17.7-2.2-25-6.6
		c-7.3-4.4-13-10.6-17-18.6c-4.1-8-6.1-17-6.1-27.2s2-19.3,6.1-27.2c4.1-8,9.8-14.2,17-18.6c7.3-4.4,15.6-6.6,25-6.6
		c6.8,0,13.1,1.2,18.8,3.6c5.7,2.4,10.6,5.8,14.7,10.3l2-11.8H-602.5z M-640.9-6300.1c4.5-4.7,6.7-10.9,6.7-18.5
		c0-7.6-2.2-13.8-6.7-18.5c-4.5-4.7-10.3-7-17.4-7c-7.1,0-12.8,2.4-17.2,7.1c-4.4,4.8-6.6,10.9-6.6,18.4c0,7.5,2.2,13.6,6.6,18.4
		c4.4,4.8,10.2,7.1,17.2,7.1C-651.2-6293-645.4-6295.4-640.9-6300.1z"/>
	<path class="st3" d="M-544.7-6273c-8.4-4.8-15-11.5-19.7-20.1c-4.7-8.6-7-18.5-7-29.7v-88.2h9v88.2c0,9.5,2,17.9,5.9,25.2
		c3.9,7.3,9.5,13,16.5,17c7.1,4.1,15.2,6.1,24.3,6.1c9.1,0,17.2-2,24.3-6.1c7.1-4.1,12.6-9.8,16.5-17c3.9-7.3,5.9-15.7,5.9-25.2
		v-88.2h9v88.2c0,11.2-2.3,21.1-7,29.7c-4.7,8.6-11.3,15.3-19.7,20.1c-8.4,4.8-18.1,7.1-29,7.1
		C-526.6-6265.9-536.3-6268.3-544.7-6273z"/>
	<path class="st3" d="M-331.2-6411v142.9h-8.2l-0.2-22.2c-3.8,7.3-9.6,13.2-17.2,17.5c-7.7,4.3-16.4,6.4-26,6.4
		c-9.7,0-18.3-2.2-26-6.6c-7.7-4.4-13.7-10.6-18-18.5c-4.3-7.9-6.4-16.9-6.4-26.9c0-10.1,2.1-19,6.4-26.9c4.3-7.9,10.3-14,18-18.5
		c7.7-4.4,16.4-6.6,26-6.6c9.7,0,18.3,2.1,25.9,6.3c7.6,4.2,13.3,10,17.1,17.4v-64.1H-331.2z M-360.3-6280
		c6.5-3.7,11.5-8.8,15.1-15.5c3.6-6.7,5.4-14.4,5.4-23.1c0-8.7-1.8-16.4-5.4-23.1c-3.6-6.7-8.6-11.8-15.1-15.5
		c-6.5-3.7-13.8-5.5-21.9-5.5c-8.3,0-15.7,1.8-22,5.5c-6.4,3.7-11.4,8.8-15,15.5c-3.6,6.7-5.4,14.4-5.4,23.1
		c0,8.7,1.8,16.4,5.4,23.1c3.6,6.7,8.6,11.8,15,15.5c6.4,3.7,13.7,5.5,22,5.5C-374.1-6274.5-366.8-6276.3-360.3-6280z"/>
	<path class="st3" d="M-218.3-6358.8c7.6,7.8,11.3,18.6,11.3,32.5v58.2h-8.6v-57.8c0-11.7-3-20.7-9-26.9c-6-6.3-14.5-9.4-25.5-9.4
		c-7.5,0-14.2,1.7-20.1,5c-5.9,3.3-10.5,7.9-13.8,13.7c-3.3,5.8-4.9,12.2-4.9,19.3v56.1h-8.6V-6411h8.6v61.6
		c3.9-6.5,9.4-11.7,16.2-15.4c6.9-3.7,14.5-5.6,23-5.6C-236.3-6370.4-225.8-6366.5-218.3-6358.8z"/>
	<path class="st3" d="M-79.2-6369v100.8h-8.2l-0.2-22.5c-3.8,7.5-9.6,13.4-17.2,17.7c-7.7,4.3-16.4,6.4-26,6.4
		c-9.8,0-18.5-2.2-26.1-6.6c-7.6-4.4-13.6-10.6-17.9-18.5c-4.3-7.9-6.4-16.9-6.4-26.9c0-10.1,2.1-19,6.4-26.9
		c4.3-7.9,10.2-14,17.9-18.5c7.6-4.4,16.3-6.6,26.1-6.6c9.7,0,18.3,2.2,26,6.5c7.7,4.4,13.4,10.3,17.2,17.8l0.2-22.7H-79.2z
		 M-108.2-6280c6.5-3.7,11.5-8.8,15.1-15.5c3.6-6.7,5.4-14.4,5.4-23.1c0-8.7-1.8-16.4-5.4-23.1c-3.6-6.7-8.6-11.8-15.1-15.5
		c-6.5-3.7-13.8-5.5-21.9-5.5c-8.3,0-15.7,1.8-22,5.5c-6.4,3.7-11.4,8.8-15,15.5c-3.6,6.7-5.4,14.4-5.4,23.1
		c0,8.7,1.8,16.4,5.4,23.1c3.6,6.7,8.6,11.8,15,15.5c6.4,3.7,13.7,5.5,22,5.5C-122-6274.5-114.7-6276.3-108.2-6280z"/>
	<path class="st3" d="M18-6364.5l-3.9,7.3c-5-3-10.7-4.5-16.9-4.5c-6.3,0-12,1.8-17.2,5.5c-5.2,3.7-9.4,8.7-12.3,15.1
		c-3,6.4-4.5,13.4-4.5,21v51.8h-8.6V-6369h8.2v22.5c3.5-7.3,8.3-13.1,14.4-17.2c6.1-4.1,12.8-6.2,20.3-6.2
		C5.4-6370,12.3-6368.2,18-6364.5z"/>
	<path class="st5" d="M-33-8489.2c0,1.4,0,2.8-0.1,4.2c-1.9,82.7-57.9,152-133.9,173.9c-16.3,4.7-33.5,7.2-51.3,7.2
		c-0.3,0-0.6,0-0.9,0l-101.5,98.8l-5.1,4.9c-7.4,7.2-17,11.6-27.2,12.6c-0.3,0-0.7,0.1-1,0.1c-0.4,0-0.7,0-1.1,0.1c-0.3,0-0.6,0-1,0
		c-0.4,0-0.7,0-1.1,0h-0.3c-0.5,0-1,0-1.4,0c-24.7-0.8-44.5-21.1-44.8-46c-0.2-1.8-0.3-3.6-0.3-5.5v-248.3
		c34.2,23.6,75.4,36.9,118.3,36.9c16.7,0,33.7-2,50.7-6.2c25-6.2,47.9-16.8,67.9-30.6c43.6-30.1,74.1-75.8,85.5-127.1
		c13.4,14.6,24.4,31.4,32.6,49.7C-38.7-8541.5-33-8516-33-8489.2z"/>
	<path class="st6" d="M-146.5-8660.1c0.2,26.3-7.1,51.7-20.4,73.4c-18.3,30-48,53.1-84.9,62.3c-51,12.7-102.4-4.5-135.6-40.6
		c-6.1-6.6-11.6-13.8-16.4-21.6v-37c0-28.1,22.8-50.9,50.9-50.9h134.7c17.8,0,35,2.5,51.3,7.2c4.4,1.3,8.8,2.7,13.1,4.3h0
		C-151.4-8662.1-148.9-8661.1-146.5-8660.1z"/>
	<path class="st5" d="M-3430.9-7882.3c0,2.1,0,4.2-0.1,6.3c-2.7,122.8-85.9,225.8-199,258.3c-24.2,7-49.8,10.7-76.2,10.7
		c-0.4,0-0.8,0-1.3,0l-150.8,146.7l-7.5,7.3c-11,10.7-25.3,17.2-40.4,18.7c-0.5,0-1,0.1-1.5,0.1c-0.5,0-1.1,0.1-1.6,0.1
		c-0.5,0-0.9,0-1.4,0c-0.5,0-1.1,0-1.6,0h-0.5c-0.7,0-1.4,0-2.1-0.1c-36.7-1.3-66.1-31.3-66.5-68.3c-0.3-2.7-0.5-5.4-0.5-8.1v-368.8
		c50.9,35,112,54.8,175.7,54.8c24.8,0,50.1-3,75.3-9.3c37.2-9.3,71.1-24.9,100.9-45.4c64.8-44.7,110.1-112.5,127-188.8
		c19.8,21.7,36.3,46.6,48.4,73.8C-3439.4-7960-3430.9-7922.2-3430.9-7882.3z"/>
	<path class="st6" d="M-3599.6-8136.2c0.3,39.1-10.6,76.8-30.3,109.1c-27.2,44.6-71.3,78.9-126,92.5
		c-75.7,18.9-152.1-6.7-201.5-60.3c-9.1-9.8-17.2-20.6-24.3-32.2v-55c0-41.7,33.8-75.6,75.6-75.6h200c26.5,0,52,3.7,76.3,10.7
		c6.6,1.9,13.1,4,19.5,6.4h0C-3606.8-8139.1-3603.2-8137.7-3599.6-8136.2z"/>
	<path class="st5" d="M1008.4-6392.4c0,1.2,0,2.3,0,3.5c-1.5,68.6-48,126.2-111.2,144.4c-13.5,3.9-27.8,6-42.6,6c-0.2,0-0.5,0-0.7,0
		l-84.3,82l-4.2,4.1c-6.1,6-14.1,9.6-22.6,10.4c-0.3,0-0.5,0-0.8,0.1c-0.3,0-0.6,0-0.9,0.1c-0.3,0-0.5,0-0.8,0c-0.3,0-0.6,0-0.9,0
		h-0.3c-0.4,0-0.8,0-1.2,0c-20.5-0.7-36.9-17.5-37.2-38.2c-0.2-1.5-0.3-3-0.3-4.5v-206.1c28.4,19.6,62.6,30.6,98.2,30.6
		c13.9,0,28-1.7,42.1-5.2c20.8-5.2,39.8-13.9,56.4-25.4c36.2-25,61.6-62.9,71-105.5c11.1,12.1,20.3,26,27,41.3
		C1003.7-6435.8,1008.4-6414.7,1008.4-6392.4z"/>
	<path class="st6" d="M914.1-6534.3c0.2,21.9-5.9,42.9-16.9,61c-15.2,24.9-39.9,44.1-70.5,51.7c-42.3,10.5-85-3.8-112.6-33.7
		c-5.1-5.5-9.6-11.5-13.6-18v-30.8c0-23.3,18.9-42.2,42.2-42.2h111.8c14.8,0,29.1,2.1,42.6,6c3.7,1.1,7.3,2.3,10.9,3.6h0
		C910.1-6536,912.1-6535.2,914.1-6534.3z"/>
	<path class="st2" d="M-1245-6361.1c0,0.9,0,1.8,0,2.8c-1.2,53.9-37.7,99-87.3,113.3c-10.6,3.1-21.8,4.7-33.4,4.7
		c-0.2,0-0.4,0-0.6,0l-66.1,64.3l-3.3,3.2c-4.8,4.7-11.1,7.6-17.7,8.2c-0.2,0-0.4,0-0.6,0.1c-0.2,0-0.5,0-0.7,0c-0.2,0-0.4,0-0.6,0
		c-0.2,0-0.5,0-0.7,0h-0.2c-0.3,0-0.6,0-0.9,0c-16.1-0.6-29-13.7-29.2-30c-0.1-1.2-0.2-2.4-0.2-3.6v-161.7c22.3,15.4,49.1,24,77,24
		c10.9,0,22-1.3,33-4.1c16.3-4.1,31.2-10.9,44.3-19.9c28.4-19.6,48.3-49.4,55.7-82.8c8.7,9.5,15.9,20.4,21.2,32.4
		C-1248.7-6395.1-1245-6378.5-1245-6361.1z"/>
	<path class="st6" d="M-1319-6472.4c0.1,17.2-4.6,33.7-13.3,47.8c-11.9,19.5-31.3,34.6-55.3,40.6c-33.2,8.3-66.7-3-88.4-26.4
		c-4-4.3-7.6-9-10.7-14.1v-24.1c0-18.3,14.8-33.1,33.1-33.1h87.7c11.6,0,22.8,1.6,33.4,4.7c2.9,0.8,5.7,1.8,8.5,2.8h0
		C-1322.2-6473.7-1320.6-6473.1-1319-6472.4z"/>
	<path class="st7" d="M-947.1-8078c12.8,6.4,22.6,15.7,29.6,27.7c7,12,10.4,26,10.4,42.1c0,16-3.5,30-10.4,42.1
		c-7,12-16.8,21.2-29.6,27.7c-12.8,6.4-27.7,9.6-44.8,9.6h-54.1v62.6h-51.9v-221.4h106C-974.8-8087.6-959.9-8084.4-947.1-8078z
		 M-968.3-7983.3c6.4-6.1,9.6-14.3,9.6-24.7c0-10.3-3.2-18.6-9.6-24.7c-6.4-6.1-15.1-9.2-26.1-9.2h-51.9v67.7h51.9
		C-983.5-7974.1-974.8-7977.1-968.3-7983.3z"/>
	<path class="st7" d="M-722.4-8022.5v156.3h-43l-3.2-18.7c-13.3,14.6-30.6,21.8-51.9,21.8c-14.5,0-27.5-3.4-38.7-10.3
		c-11.3-6.8-20.1-16.4-26.4-28.8c-6.3-12.3-9.5-26.4-9.5-42.2s3.2-29.9,9.5-42.2c6.3-12.3,15.1-21.9,26.4-28.8
		c11.3-6.9,24.2-10.3,38.7-10.3c10.5,0,20.2,1.8,29.1,5.5c8.9,3.7,16.4,9,22.8,16l3.2-18.3H-722.4z M-781.9-7915.7
		c7-7.3,10.4-16.8,10.4-28.6c0-11.8-3.5-21.4-10.4-28.6c-7-7.3-15.9-10.9-26.9-10.9c-11,0-19.9,3.7-26.7,11.1
		c-6.9,7.4-10.3,16.9-10.3,28.5c0,11.6,3.4,21.1,10.3,28.5c6.8,7.4,15.8,11.1,26.7,11.1C-797.8-7904.8-788.8-7908.5-781.9-7915.7z"
		/>
	<path class="st4" d="M-681.1-8045.6c-5.4-5.1-8.1-11.5-8.1-19.3c0-8,2.7-14.6,8.2-19.6c5.5-5.1,12.4-7.6,20.9-7.6
		c8.4,0,15.4,2.5,20.9,7.6c5.5,5.1,8.2,11.6,8.2,19.6c0,7.8-2.7,14.2-8.1,19.3c-5.4,5.1-12.4,7.6-21,7.6
		C-668.7-8038-675.8-8040.5-681.1-8045.6z"/>
	<rect x="-685.1" y="-8022.5" class="st7" width="49.7" height="156.3"/>
	<path class="st7" d="M-609.5-7883l19-34.2c7.6,4.6,16.4,8.2,26.4,10.8c10,2.5,20,3.8,29.9,3.8c13.7,0,20.6-3.7,20.6-11.1
		c0-3.8-1.9-6.6-5.7-8.5c-3.8-1.9-10.1-3.2-19-3.8c-19.8-1.1-35.6-6-47.3-14.9c-11.7-8.9-17.6-20.5-17.6-34.8c0-15.6,6.3-28,19-37.2
		c12.7-9.2,29.7-13.8,51.2-13.8c12.2,0,23.9,1.5,35,4.4c11.1,3,20.6,7.1,28.6,12.3l-19.3,33.2c-11.8-6.7-25.8-10.1-42.1-10.1
		c-16,0-24,3.8-24,11.4c0,3.2,1.6,5.6,4.9,7.3c3.3,1.7,8.8,3,16.6,3.8c22.3,1.7,39.4,6.8,51.1,15.2c11.7,8.4,17.6,20.2,17.6,35.4
		c0,16-6.4,28.6-19.3,37.8c-12.9,9.2-30.7,13.8-53.5,13.8C-565-7862.1-589-7869.1-609.5-7883z"/>
	<path class="st7" d="M-276.4-8022.5v156.3h-43l-3.2-18.7c-13.3,14.6-30.6,21.8-51.9,21.8c-14.5,0-27.5-3.4-38.7-10.3
		c-11.3-6.8-20.1-16.4-26.4-28.8c-6.3-12.3-9.5-26.4-9.5-42.2s3.2-29.9,9.5-42.2c6.3-12.3,15.1-21.9,26.4-28.8
		c11.3-6.9,24.2-10.3,38.7-10.3c10.5,0,20.2,1.8,29.1,5.5c8.9,3.7,16.4,9,22.8,16l3.2-18.3H-276.4z M-335.9-7915.7
		c7-7.3,10.4-16.8,10.4-28.6c0-11.8-3.5-21.4-10.4-28.6c-7-7.3-15.9-10.9-26.9-10.9c-11,0-19.9,3.7-26.7,11.1
		c-6.9,7.4-10.3,16.9-10.3,28.5c0,11.6,3.4,21.1,10.3,28.5c6.9,7.4,15.8,11.1,26.7,11.1C-351.8-7904.8-342.8-7908.5-335.9-7915.7z"
		/>
	<path class="st7" d="M-186.9-7873.8c-13.1-7.4-23.2-17.8-30.5-31.2c-7.3-13.4-10.9-28.7-10.9-46v-136.6h13.9v136.6
		c0,14.8,3.1,27.8,9.2,39.1c6.1,11.3,14.7,20.1,25.6,26.4c11,6.3,23.5,9.5,37.6,9.5c14.1,0,26.7-3.2,37.6-9.5
		c11-6.3,19.5-15.1,25.6-26.4c6.1-11.3,9.2-24.3,9.2-39.1v-136.6h13.9v136.6c0,17.3-3.6,32.6-10.9,46c-7.3,13.4-17.5,23.8-30.5,31.2
		c-13.1,7.4-28,11.1-44.9,11.1C-158.9-7862.8-173.8-7866.4-186.9-7873.8z"/>
	<path class="st7" d="M143.9-8087.6v221.4h-12.7l-0.3-34.5c-5.9,11.4-14.8,20.4-26.7,27c-11.9,6.6-25.4,10-40.3,10
		c-15,0-28.4-3.4-40.3-10.3c-11.9-6.9-21.2-16.4-27.8-28.6c-6.6-12.2-10-26.1-10-41.8c0-15.6,3.3-29.5,10-41.8
		c6.6-12.2,15.9-21.8,27.8-28.6c11.9-6.9,25.4-10.3,40.3-10.3c15,0,28.4,3.3,40.2,9.8c11.8,6.5,20.7,15.5,26.6,26.9v-99.3H143.9z
		 M98.9-7884.6c10-5.7,17.8-13.7,23.4-24c5.6-10.3,8.4-22.2,8.4-35.7c0-13.5-2.8-25.4-8.4-35.7c-5.6-10.3-13.4-18.3-23.4-24
		c-10-5.7-21.4-8.5-34-8.5c-12.9,0-24.3,2.8-34.2,8.5c-9.9,5.7-17.7,13.7-23.2,24c-5.6,10.3-8.4,22.2-8.4,35.7
		c0,13.5,2.8,25.4,8.4,35.7c5.6,10.3,13.3,18.3,23.2,24c9.9,5.7,21.3,8.5,34.2,8.5C77.5-7876,88.8-7878.9,98.9-7884.6z"/>
	<path class="st7" d="M319-8006.7c11.7,12,17.6,28.8,17.6,50.3v90.1h-13.3v-89.5c0-18.1-4.6-32.1-13.9-41.8
		c-9.3-9.7-22.5-14.6-39.5-14.6c-11.6,0-22,2.6-31.2,7.7c-9.2,5.2-16.3,12.2-21.4,21.2c-5.1,9-7.6,18.9-7.6,29.9v87h-13.3v-221.4
		h13.3v95.5c6.1-10.1,14.5-18.1,25.1-23.9c10.6-5.8,22.5-8.7,35.6-8.7C291.1-8024.7,307.3-8018.7,319-8006.7z"/>
	<path class="st7" d="M534.6-8022.5v156.3h-12.7l-0.3-34.8c-5.9,11.6-14.8,20.7-26.7,27.4c-11.9,6.6-25.4,10-40.3,10
		c-15.2,0-28.7-3.4-40.5-10.3c-11.8-6.9-21-16.4-27.7-28.6c-6.6-12.2-10-26.1-10-41.8c0-15.6,3.3-29.5,10-41.8
		c6.6-12.2,15.9-21.8,27.7-28.6c11.8-6.9,25.3-10.3,40.5-10.3c15,0,28.4,3.4,40.3,10.1c11.9,6.8,20.8,15.9,26.7,27.5l0.3-35.1H534.6
		z M489.5-7884.6c10-5.7,17.8-13.7,23.4-24c5.6-10.3,8.4-22.2,8.4-35.7c0-13.5-2.8-25.4-8.4-35.7c-5.6-10.3-13.4-18.3-23.4-24
		c-10-5.7-21.4-8.5-34-8.5c-12.9,0-24.3,2.8-34.2,8.5c-9.9,5.7-17.7,13.7-23.2,24c-5.6,10.3-8.4,22.2-8.4,35.7
		c0,13.5,2.8,25.4,8.4,35.7c5.6,10.3,13.3,18.3,23.2,24c9.9,5.7,21.3,8.5,34.2,8.5C468.1-7876,479.5-7878.9,489.5-7884.6z"/>
	<path class="st7" d="M685.1-8015.5l-6,11.4c-7.8-4.6-16.6-7-26.3-7c-9.7,0-18.6,2.8-26.7,8.5c-8.1,5.7-14.5,13.5-19.1,23.4
		c-4.6,9.9-7,20.8-7,32.6v80.3h-13.3v-156.3h12.7v34.8c5.5-11.4,12.9-20.3,22.3-26.7c9.4-6.4,19.9-9.6,31.5-9.6
		C665.6-8024.1,676.3-8021.2,685.1-8015.5z"/>
</g>
<rect x="-4986.6" y="1308.6" class="st0" width="3500" height="3500"/>
<rect x="-1486.6" y="3529.9" class="st1" width="3500" height="1278.7"/>
<rect x="-1486.6" y="1308.6" class="st2" width="3500" height="2221.3"/>
<g>
	<path class="st2" d="M994.8,3968.4v413.4c0,67.5,55.2,122.7,122.7,122.7h413.4c67.5,0,122.7-55.2,122.7-122.7v-413.4
		c0-67.5-55.2-122.7-122.7-122.7h-413.4C1050,3845.7,994.8,3900.9,994.8,3968.4"/>
	<g>
		<path class="st3" d="M-4343.1,3255c19.1,9.6,33.8,23.4,44.2,41.3c10.4,18,15.6,38.9,15.6,62.8c0,23.9-5.2,44.9-15.6,62.8
			c-10.4,18-25.1,31.7-44.2,41.3c-19.1,9.6-41.3,14.4-66.9,14.4h-80.8v93.5h-77.5v-330.7h158.3
			C-4384.5,3240.6-4362.2,3245.4-4343.1,3255z M-4374.8,3396.5c9.6-9.1,14.4-21.4,14.4-36.9c0-15.4-4.8-27.7-14.4-36.9
			c-9.6-9.1-22.6-13.7-39-13.7h-77.5v101.1h77.5C-4397.4,3410.2-4384.4,3405.6-4374.8,3396.5z"/>
		<path class="st3" d="M-4007.4,3337.9v233.4h-64.3l-4.7-27.9c-19.8,21.7-45.7,32.6-77.5,32.6c-21.7,0-41-5.1-57.9-15.4
			c-16.9-10.2-30-24.6-39.5-43c-9.4-18.4-14.2-39.5-14.2-63.1c0-23.6,4.7-44.6,14.2-63.1c9.4-18.4,22.6-32.8,39.5-43
			c16.8-10.2,36.1-15.4,57.9-15.4c15.7,0,30.2,2.8,43.5,8.3c13.2,5.5,24.6,13.5,34,23.9l4.7-27.4H-4007.4z M-4096.3,3497.4
			c10.4-10.9,15.6-25.1,15.6-42.8c0-17.6-5.2-31.9-15.6-42.8c-10.4-10.9-23.8-16.3-40.2-16.3c-16.4,0-29.7,5.5-39.9,16.5
			c-10.2,11-15.4,25.2-15.4,42.5c0,17.3,5.1,31.5,15.4,42.5c10.2,11,23.5,16.5,39.9,16.5C-4120,3513.7-4106.6,3508.2-4096.3,3497.4z
			"/>
		<path class="st8" d="M-3945.8,3303.4c-8-7.6-12-17.2-12-28.8c0-12,4.1-21.7,12.3-29.3c8.2-7.6,18.6-11.3,31.2-11.3
			c12.6,0,23,3.8,31.2,11.3c8.2,7.6,12.3,17.3,12.3,29.3c0,11.7-4,21.3-12,28.8s-18.5,11.3-31.4,11.3
			C-3927.3,3314.8-3937.7,3311-3945.8,3303.4z"/>
		<rect x="-3951.7" y="3337.9" class="st3" width="74.2" height="233.4"/>
		<path class="st3" d="M-3838.8,3546.3l28.3-51c11.3,6.9,24.5,12.3,39.5,16.1c15,3.8,29.8,5.7,44.6,5.7c20.5,0,30.7-5.5,30.7-16.5
			c0-5.7-2.8-9.9-8.5-12.8c-5.7-2.8-15.1-4.7-28.3-5.7c-29.6-1.6-53.2-9-70.6-22.2c-17.5-13.2-26.2-30.5-26.2-52
			c0-23.3,9.4-41.8,28.3-55.5c18.9-13.7,44.4-20.6,76.5-20.6c18.3,0,35.7,2.2,52.2,6.6c16.5,4.4,30.8,10.6,42.8,18.4l-28.8,49.6
			c-17.6-10.1-38.6-15.1-62.8-15.1c-23.9,0-35.9,5.7-35.9,17c0,4.7,2.4,8.3,7.3,10.9c4.9,2.5,13.1,4.4,24.8,5.7
			c33.4,2.5,58.8,10.1,76.3,22.7c17.5,12.6,26.2,30.2,26.2,52.9c0,23.9-9.6,42.8-28.8,56.5c-19.2,13.7-45.8,20.6-79.8,20.6
			C-3772.3,3577.5-3808.2,3567.1-3838.8,3546.3z"/>
		<path class="st3" d="M-3341.3,3337.9v233.4h-64.3l-4.7-27.9c-19.8,21.7-45.7,32.6-77.5,32.6c-21.7,0-41-5.1-57.9-15.4
			c-16.9-10.2-30-24.6-39.5-43c-9.4-18.4-14.2-39.5-14.2-63.1c0-23.6,4.7-44.6,14.2-63.1c9.4-18.4,22.6-32.8,39.5-43
			c16.8-10.2,36.1-15.4,57.9-15.4c15.7,0,30.2,2.8,43.5,8.3c13.2,5.5,24.6,13.5,34,23.9l4.7-27.4H-3341.3z M-3430.1,3497.4
			c10.4-10.9,15.6-25.1,15.6-42.8c0-17.6-5.2-31.9-15.6-42.8c-10.4-10.9-23.8-16.3-40.2-16.3c-16.4,0-29.7,5.5-39.9,16.5
			c-10.2,11-15.4,25.2-15.4,42.5c0,17.3,5.1,31.5,15.4,42.5c10.2,11,23.5,16.5,39.9,16.5
			C-3453.9,3513.7-3440.5,3508.2-3430.1,3497.4z"/>
		<path class="st3" d="M-3207.6,3560c-19.5-11-34.7-26.5-45.6-46.5c-10.9-20-16.3-42.9-16.3-68.7v-204.1h20.8v204.1
			c0,22.1,4.6,41.5,13.7,58.3c9.1,16.9,21.9,30,38.3,39.5c16.4,9.4,35.1,14.2,56.2,14.2c21.1,0,39.8-4.7,56.2-14.2
			c16.4-9.4,29.1-22.6,38.3-39.5c9.1-16.8,13.7-36.3,13.7-58.3v-204.1h20.8v204.1c0,25.8-5.4,48.7-16.3,68.7
			c-10.9,20-26.1,35.5-45.6,46.5c-19.5,11-41.9,16.5-67.1,16.5C-3165.7,3576.5-3188,3571-3207.6,3560z"/>
		<path class="st3" d="M-2713.4,3240.6v330.7h-18.9l-0.5-51.5c-8.8,17-22.1,30.5-39.9,40.4c-17.8,9.9-37.9,14.9-60.2,14.9
			c-22.4,0-42.4-5.1-60.2-15.4c-17.8-10.2-31.7-24.5-41.6-42.8c-9.9-18.3-14.9-39.1-14.9-62.4c0-23.3,5-44.1,14.9-62.4
			c9.9-18.3,23.8-32.5,41.6-42.8c17.8-10.2,37.9-15.4,60.2-15.4c22.4,0,42.4,4.9,60,14.6c17.6,9.8,30.9,23.2,39.7,40.2v-148.4
			H-2713.4z M-2780.7,3543.9c15-8.5,26.6-20.5,35-35.9c8.3-15.4,12.5-33.2,12.5-53.4c0-20.2-4.2-38-12.5-53.4
			c-8.3-15.4-20-27.4-35-35.9c-15-8.5-31.9-12.8-50.8-12.8c-19.2,0-36.2,4.3-51,12.8c-14.8,8.5-26.4,20.5-34.7,35.9
			c-8.3,15.4-12.5,33.2-12.5,53.4c0,20.2,4.2,38,12.5,53.4c8.3,15.4,19.9,27.4,34.7,35.9c14.8,8.5,31.8,12.8,51,12.8
			C-2812.6,3556.7-2795.6,3552.4-2780.7,3543.9z"/>
		<path class="st3" d="M-2451.9,3361.5c17.5,18,26.2,43,26.2,75.1v134.7h-19.8v-133.7c0-27.1-6.9-47.9-20.8-62.4
			c-13.9-14.5-33.5-21.7-59.1-21.7c-17.3,0-32.8,3.9-46.5,11.6c-13.7,7.7-24.3,18.3-31.9,31.7c-7.6,13.4-11.3,28.3-11.3,44.6v129.9
			h-19.8v-330.7h19.8v142.7c9.1-15.1,21.7-27,37.6-35.7c15.9-8.7,33.6-13,53.2-13C-2493.5,3334.6-2469.3,3343.6-2451.9,3361.5z"/>
		<path class="st3" d="M-2129.9,3337.9v233.4h-18.9l-0.5-52c-8.8,17.3-22.1,30.9-39.9,40.9c-17.8,9.9-37.9,14.9-60.2,14.9
			c-22.7,0-42.8-5.1-60.5-15.4c-17.6-10.2-31.4-24.5-41.3-42.8c-9.9-18.3-14.9-39.1-14.9-62.4c0-23.3,5-44.1,14.9-62.4
			c9.9-18.3,23.7-32.5,41.3-42.8c17.6-10.2,37.8-15.4,60.5-15.4c22.4,0,42.4,5,60.2,15.1c17.8,10.1,31.1,23.8,39.9,41.1l0.5-52.4
			H-2129.9z M-2197.2,3543.9c15-8.5,26.6-20.5,35-35.9c8.3-15.4,12.5-33.2,12.5-53.4c0-20.2-4.2-38-12.5-53.4
			c-8.3-15.4-20-27.4-35-35.9c-15-8.5-31.9-12.8-50.8-12.8c-19.2,0-36.2,4.3-51,12.8c-14.8,8.5-26.4,20.5-34.7,35.9
			c-8.3,15.4-12.5,33.2-12.5,53.4c0,20.2,4.2,38,12.5,53.4c8.3,15.4,19.9,27.4,34.7,35.9c14.8,8.5,31.8,12.8,51,12.8
			C-2229.1,3556.7-2212.2,3552.4-2197.2,3543.9z"/>
		<path class="st3" d="M-1905,3348.3l-9,17c-11.7-6.9-24.7-10.4-39.2-10.4c-14.5,0-27.8,4.3-39.9,12.8c-12.1,8.5-21.7,20.2-28.6,35
			c-6.9,14.8-10.4,31-10.4,48.7v120h-19.8v-233.4h18.9v52c8.2-17,19.3-30.3,33.3-39.9c14-9.6,29.7-14.4,47-14.4
			C-1934.1,3335.6-1918.2,3339.8-1905,3348.3z"/>
	</g>
	<path class="st3" d="M-565.6,4114.4c8.2,4.2,14.6,10.1,19.1,17.9c4.5,7.8,6.7,16.8,6.7,27.1c0,10.3-2.2,19.4-6.7,27.1
		c-4.5,7.8-10.9,13.7-19.1,17.9c-8.2,4.2-17.9,6.2-28.9,6.2h-34.9v40.4h-33.5v-142.9h68.4C-583.4,4108.2-573.8,4110.3-565.6,4114.4z
		 M-579.3,4175.5c4.1-3.9,6.2-9.3,6.2-15.9c0-6.7-2.1-12-6.2-15.9c-4.2-3.9-9.8-5.9-16.8-5.9h-33.5v43.7h33.5
		C-589,4181.5-583.4,4179.5-579.3,4175.5z"/>
	<path class="st3" d="M-420.6,4150.2v100.8h-27.8l-2-12c-8.6,9.4-19.7,14.1-33.5,14.1c-9.4,0-17.7-2.2-25-6.6
		c-7.3-4.4-13-10.6-17-18.6c-4.1-8-6.1-17-6.1-27.2s2-19.3,6.1-27.2c4.1-8,9.8-14.2,17-18.6c7.3-4.4,15.6-6.6,25-6.6
		c6.8,0,13.1,1.2,18.8,3.6c5.7,2.4,10.6,5.8,14.7,10.3l2-11.8H-420.6z M-458.9,4219.1c4.5-4.7,6.7-10.9,6.7-18.5
		c0-7.6-2.2-13.8-6.7-18.5c-4.5-4.7-10.3-7-17.4-7c-7.1,0-12.8,2.4-17.2,7.1c-4.4,4.8-6.6,10.9-6.6,18.4c0,7.5,2.2,13.6,6.6,18.4
		c4.4,4.8,10.2,7.1,17.2,7.1C-469.2,4226.2-463.4,4223.8-458.9,4219.1z"/>
	<path class="st8" d="M-393.9,4135.3c-3.5-3.3-5.2-7.4-5.2-12.5c0-5.2,1.8-9.4,5.3-12.7c3.5-3.3,8-4.9,13.5-4.9
		c5.4,0,9.9,1.6,13.5,4.9c3.5,3.3,5.3,7.5,5.3,12.7c0,5-1.7,9.2-5.2,12.5c-3.5,3.3-8,4.9-13.6,4.9
		C-385.9,4140.2-390.5,4138.6-393.9,4135.3z"/>
	<rect x="-396.5" y="4150.2" class="st3" width="32" height="100.8"/>
	<path class="st3" d="M-347.7,4240.2l12.2-22c4.9,3,10.6,5.3,17,6.9c6.5,1.6,12.9,2.4,19.3,2.4c8.8,0,13.3-2.4,13.3-7.1
		c0-2.4-1.2-4.3-3.7-5.5c-2.4-1.2-6.5-2-12.2-2.4c-12.8-0.7-23-3.9-30.5-9.6c-7.6-5.7-11.3-13.2-11.3-22.5c0-10.1,4.1-18.1,12.2-24
		c8.2-5.9,19.2-8.9,33.1-8.9c7.9,0,15.4,1,22.6,2.9c7.1,1.9,13.3,4.6,18.5,8l-12.5,21.4c-7.6-4.4-16.7-6.5-27.1-6.5
		c-10.3,0-15.5,2.4-15.5,7.3c0,2,1.1,3.6,3.2,4.7c2.1,1.1,5.7,1.9,10.7,2.4c14.4,1.1,25.4,4.4,33,9.8c7.6,5.4,11.3,13.1,11.3,22.9
		c0,10.3-4.2,18.5-12.5,24.4c-8.3,5.9-19.8,8.9-34.5,8.9C-319,4253.7-334.5,4249.2-347.7,4240.2z"/>
	<path class="st3" d="M-132.8,4150.2v100.8h-27.8l-2-12c-8.6,9.4-19.7,14.1-33.5,14.1c-9.4,0-17.7-2.2-25-6.6
		c-7.3-4.4-13-10.6-17-18.6c-4.1-8-6.1-17-6.1-27.2s2-19.3,6.1-27.2c4.1-8,9.8-14.2,17-18.6c7.3-4.4,15.6-6.6,25-6.6
		c6.8,0,13.1,1.2,18.8,3.6c5.7,2.4,10.6,5.8,14.7,10.3l2-11.8H-132.8z M-171.1,4219.1c4.5-4.7,6.7-10.9,6.7-18.5
		c0-7.6-2.2-13.8-6.7-18.5c-4.5-4.7-10.3-7-17.4-7c-7.1,0-12.8,2.4-17.2,7.1c-4.4,4.8-6.6,10.9-6.6,18.4c0,7.5,2.2,13.6,6.6,18.4
		c4.4,4.8,10.2,7.1,17.2,7.1C-181.4,4226.2-175.6,4223.8-171.1,4219.1z"/>
	<path class="st3" d="M-75,4246.2c-8.4-4.8-15-11.5-19.7-20.1c-4.7-8.6-7-18.5-7-29.7v-88.2h9v88.2c0,9.5,2,17.9,5.9,25.2
		c3.9,7.3,9.5,13,16.5,17c7.1,4.1,15.2,6.1,24.3,6.1c9.1,0,17.2-2,24.3-6.1c7.1-4.1,12.6-9.8,16.5-17c3.9-7.3,5.9-15.7,5.9-25.2
		v-88.2h9v88.2c0,11.2-2.3,21.1-7,29.7c-4.7,8.6-11.3,15.3-19.7,20.1c-8.4,4.8-18.1,7.1-29,7.1C-56.9,4253.3-66.6,4250.9-75,4246.2z
		"/>
	<path class="st3" d="M138.5,4108.2v142.9h-8.2l-0.2-22.2c-3.8,7.3-9.6,13.2-17.2,17.5c-7.7,4.3-16.4,6.4-26,6.4
		c-9.7,0-18.3-2.2-26-6.6c-7.7-4.4-13.7-10.6-18-18.5c-4.3-7.9-6.4-16.9-6.4-26.9c0-10.1,2.1-19,6.4-26.9c4.3-7.9,10.3-14,18-18.5
		c7.7-4.4,16.4-6.6,26-6.6c9.7,0,18.3,2.1,25.9,6.3c7.6,4.2,13.3,10,17.1,17.4v-64.1H138.5z M109.4,4239.2
		c6.5-3.7,11.5-8.8,15.1-15.5c3.6-6.7,5.4-14.4,5.4-23.1c0-8.7-1.8-16.4-5.4-23.1c-3.6-6.7-8.6-11.8-15.1-15.5
		c-6.5-3.7-13.8-5.5-21.9-5.5c-8.3,0-15.7,1.8-22,5.5c-6.4,3.7-11.4,8.8-15,15.5c-3.6,6.7-5.4,14.4-5.4,23.1
		c0,8.7,1.8,16.4,5.4,23.1c3.6,6.7,8.6,11.8,15,15.5c6.4,3.7,13.7,5.5,22,5.5C95.6,4244.7,103,4242.9,109.4,4239.2z"/>
	<path class="st3" d="M251.5,4160.4c7.6,7.8,11.3,18.6,11.3,32.5v58.2h-8.6v-57.8c0-11.7-3-20.7-9-26.9c-6-6.3-14.5-9.4-25.5-9.4
		c-7.5,0-14.2,1.7-20.1,5c-5.9,3.3-10.5,7.9-13.8,13.7c-3.3,5.8-4.9,12.2-4.9,19.3v56.1h-8.6v-142.9h8.6v61.6
		c3.9-6.5,9.4-11.7,16.2-15.4c6.9-3.7,14.5-5.6,23-5.6C233.5,4148.8,243.9,4152.7,251.5,4160.4z"/>
	<path class="st3" d="M390.6,4150.2v100.8h-8.2l-0.2-22.5c-3.8,7.5-9.6,13.4-17.2,17.7c-7.7,4.3-16.4,6.4-26,6.4
		c-9.8,0-18.5-2.2-26.1-6.6c-7.6-4.4-13.6-10.6-17.9-18.5c-4.3-7.9-6.4-16.9-6.4-26.9c0-10.1,2.1-19,6.4-26.9
		c4.3-7.9,10.2-14,17.9-18.5c7.6-4.4,16.3-6.6,26.1-6.6c9.7,0,18.3,2.2,26,6.5c7.7,4.4,13.4,10.3,17.2,17.8l0.2-22.7H390.6z
		 M361.5,4239.2c6.5-3.7,11.5-8.8,15.1-15.5c3.6-6.7,5.4-14.4,5.4-23.1c0-8.7-1.8-16.4-5.4-23.1c-3.6-6.7-8.6-11.8-15.1-15.5
		c-6.5-3.7-13.8-5.5-21.9-5.5c-8.3,0-15.7,1.8-22,5.5c-6.4,3.7-11.4,8.8-15,15.5c-3.6,6.7-5.4,14.4-5.4,23.1
		c0,8.7,1.8,16.4,5.4,23.1c3.6,6.7,8.6,11.8,15,15.5c6.4,3.7,13.7,5.5,22,5.5C347.7,4244.7,355,4242.9,361.5,4239.2z"/>
	<path class="st3" d="M487.8,4154.7l-3.9,7.3c-5-3-10.7-4.5-16.9-4.5c-6.3,0-12,1.8-17.2,5.5c-5.2,3.7-9.4,8.7-12.3,15.1
		c-3,6.4-4.5,13.4-4.5,21v51.8h-8.6v-100.8h8.2v22.5c3.5-7.3,8.3-13.1,14.4-17.2c6.1-4.1,12.8-6.2,20.3-6.2
		C475.2,4149.2,482,4151,487.8,4154.7z"/>
	<g>
		<path class="st5" d="M436.8,2030c0,1.4,0,2.8-0.1,4.2c-1.9,82.7-57.9,152-133.9,173.9c-16.3,4.7-33.5,7.2-51.3,7.2
			c-0.3,0-0.6,0-0.9,0l-101.5,98.8l-5.1,4.9c-7.4,7.2-17,11.6-27.2,12.6c-0.3,0-0.7,0.1-1,0.1c-0.4,0-0.7,0.1-1.1,0.1
			c-0.3,0-0.6,0-1,0c-0.4,0-0.7,0-1.1,0h-0.3c-0.5,0-1,0-1.4,0c-24.7-0.9-44.5-21.1-44.8-46c-0.2-1.8-0.3-3.6-0.3-5.4V2032
			c34.2,23.6,75.4,36.9,118.3,36.9c16.7,0,33.7-2,50.7-6.2c25-6.2,47.9-16.8,67.9-30.6c43.6-30.1,74.1-75.8,85.5-127.1
			c13.4,14.6,24.4,31.4,32.6,49.7C431.1,1977.7,436.8,2003.2,436.8,2030z"/>
		<path class="st9" d="M323.2,1859.1c0.2,26.3-7.1,51.7-20.4,73.4c-18.3,30-48,53.1-84.9,62.3c-51,12.7-102.4-4.5-135.6-40.6
			c-6.1-6.6-11.6-13.8-16.4-21.6v-37c0-28.1,22.8-50.9,50.9-50.9h134.7c17.8,0,35,2.5,51.3,7.2c4.4,1.3,8.8,2.7,13.1,4.3h0
			C318.4,1857.1,320.8,1858.1,323.2,1859.1z"/>
	</g>
	<g>
		<path class="st5" d="M-2961.2,2636.9c0,2.1,0,4.2-0.1,6.3c-2.7,122.8-85.9,225.8-199,258.3c-24.2,7-49.8,10.7-76.2,10.7
			c-0.4,0-0.8,0-1.3,0l-150.8,146.7l-7.5,7.3c-11,10.7-25.3,17.2-40.4,18.7c-0.5,0-1,0.1-1.5,0.1c-0.5,0-1.1,0.1-1.6,0.1
			c-0.5,0-0.9,0-1.4,0c-0.5,0-1.1,0-1.6,0h-0.5c-0.7,0-1.4,0-2.1-0.1c-36.7-1.3-66.1-31.3-66.5-68.3c-0.3-2.7-0.5-5.4-0.5-8.1
			v-368.8c50.9,35,112,54.8,175.7,54.8c24.8,0,50.1-3,75.3-9.3c37.2-9.3,71.1-24.9,100.9-45.4c64.8-44.7,110.1-112.5,127-188.8
			c19.8,21.7,36.3,46.6,48.4,73.8C-2969.6,2559.2-2961.2,2597-2961.2,2636.9z"/>
		<path class="st9" d="M-3129.9,2383c0.3,39.1-10.6,76.8-30.3,109.1c-27.2,44.6-71.3,78.9-126,92.5c-75.7,18.9-152.1-6.7-201.5-60.3
			c-9.1-9.8-17.2-20.6-24.3-32.2v-55c0-41.7,33.8-75.6,75.6-75.6h200c26.5,0,52,3.7,76.3,10.7c6.6,1.9,13.1,4,19.5,6.4h0
			C-3137.1,2380.1-3133.5,2381.5-3129.9,2383z"/>
	</g>
	<g>
		<path class="st5" d="M1478.1,4126.8c0,1.2,0,2.3,0,3.5c-1.5,68.6-48,126.2-111.2,144.4c-13.5,3.9-27.8,6-42.6,6
			c-0.2,0-0.5,0-0.7,0l-84.3,82l-4.2,4.1c-6.1,6-14.1,9.6-22.6,10.4c-0.3,0-0.5,0-0.8,0.1c-0.3,0-0.6,0-0.9,0.1c-0.3,0-0.5,0-0.8,0
			c-0.3,0-0.6,0-0.9,0h-0.3c-0.4,0-0.8,0-1.2,0c-20.5-0.7-36.9-17.5-37.2-38.2c-0.2-1.5-0.3-3-0.3-4.5v-206.1
			c28.4,19.6,62.6,30.6,98.2,30.6c13.9,0,28-1.7,42.1-5.2c20.8-5.2,39.8-13.9,56.4-25.4c36.2-25,61.6-62.9,71-105.5
			c11.1,12.1,20.3,26,27,41.3C1473.4,4083.4,1478.1,4104.5,1478.1,4126.8z"/>
		<path class="st9" d="M1383.8,3984.9c0.2,21.9-5.9,42.9-16.9,61c-15.2,24.9-39.9,44.1-70.5,51.7c-42.3,10.5-85-3.8-112.6-33.7
			c-5.1-5.5-9.6-11.5-13.6-18v-30.8c0-23.3,18.9-42.2,42.2-42.2h111.8c14.8,0,29.1,2.1,42.6,6c3.7,1.1,7.3,2.3,10.9,3.6h0
			C1379.8,3983.2,1381.8,3984,1383.8,3984.9z"/>
	</g>
	<path class="st2" d="M-775.3,4158.1c0,0.9,0,1.8,0,2.8c-1.2,53.9-37.7,99-87.3,113.3c-10.6,3.1-21.8,4.7-33.4,4.7
		c-0.2,0-0.4,0-0.6,0l-66.1,64.3l-3.3,3.2c-4.8,4.7-11.1,7.6-17.7,8.2c-0.2,0-0.4,0-0.6,0.1c-0.2,0-0.5,0-0.7,0c-0.2,0-0.4,0-0.6,0
		c-0.2,0-0.5,0-0.7,0h-0.2c-0.3,0-0.6,0-0.9,0c-16.1-0.6-29-13.7-29.2-30c-0.1-1.2-0.2-2.4-0.2-3.6v-161.7c22.3,15.4,49.1,24,77,24
		c10.9,0,22-1.3,33-4.1c16.3-4.1,31.2-10.9,44.3-19.9c28.4-19.6,48.3-49.4,55.7-82.8c8.7,9.5,15.9,20.4,21.2,32.4
		C-779,4124.1-775.3,4140.7-775.3,4158.1z"/>
	<path class="st9" d="M-849.3,4046.8c0.1,17.2-4.6,33.7-13.3,47.8c-11.9,19.5-31.3,34.6-55.3,40.6c-33.2,8.3-66.7-3-88.4-26.4
		c-4-4.3-7.6-9-10.7-14.1v-24.1c0-18.3,14.8-33.1,33.1-33.1h87.7c11.6,0,22.8,1.6,33.4,4.7c2.9,0.8,5.7,1.8,8.5,2.8h0
		C-852.4,4045.5-850.8,4046.1-849.3,4046.8z"/>
	<path class="st7" d="M-477.4,2441.2c12.8,6.4,22.6,15.7,29.6,27.7c7,12,10.4,26,10.4,42.1c0,16-3.5,30-10.4,42.1
		c-7,12-16.8,21.2-29.6,27.7c-12.8,6.4-27.7,9.6-44.8,9.6h-54.1v62.6h-51.9v-221.4h106C-505.1,2431.6-490.1,2434.8-477.4,2441.2z
		 M-498.6,2535.9c6.4-6.1,9.6-14.3,9.6-24.7c0-10.3-3.2-18.6-9.6-24.7c-6.4-6.1-15.1-9.2-26.1-9.2h-51.9v67.7h51.9
		C-513.7,2545.1-505,2542.1-498.6,2535.9z"/>
	<path class="st7" d="M-252.7,2496.7V2653h-43l-3.2-18.7c-13.3,14.5-30.6,21.8-51.9,21.8c-14.5,0-27.5-3.4-38.7-10.3
		c-11.3-6.8-20.1-16.4-26.4-28.8c-6.3-12.3-9.5-26.4-9.5-42.2c0-15.8,3.2-29.9,9.5-42.2c6.3-12.3,15.1-21.9,26.4-28.8
		c11.3-6.8,24.2-10.3,38.7-10.3c10.5,0,20.2,1.8,29.1,5.5c8.9,3.7,16.4,9,22.8,16l3.2-18.3H-252.7z M-312.1,2603.5
		c7-7.3,10.4-16.8,10.4-28.6c0-11.8-3.5-21.3-10.4-28.6c-7-7.3-15.9-10.9-26.9-10.9c-11,0-19.9,3.7-26.7,11.1
		c-6.9,7.4-10.3,16.9-10.3,28.5c0,11.6,3.4,21.1,10.3,28.5c6.8,7.4,15.8,11.1,26.7,11.1C-328,2614.4-319.1,2610.7-312.1,2603.5z"/>
	<path class="st8" d="M-211.4,2473.6c-5.4-5.1-8.1-11.5-8.1-19.3c0-8,2.7-14.5,8.2-19.6c5.5-5.1,12.4-7.6,20.9-7.6
		c8.4,0,15.4,2.5,20.9,7.6c5.5,5.1,8.2,11.6,8.2,19.6c0,7.8-2.7,14.2-8.1,19.3c-5.4,5.1-12.4,7.6-21,7.6
		C-199,2481.2-206,2478.7-211.4,2473.6z"/>
	<rect x="-215.3" y="2496.7" class="st7" width="49.7" height="156.3"/>
	<path class="st7" d="M-139.7,2636.2l19-34.2c7.6,4.6,16.4,8.2,26.4,10.8c10,2.5,20,3.8,29.9,3.8c13.7,0,20.6-3.7,20.6-11.1
		c0-3.8-1.9-6.6-5.7-8.5c-3.8-1.9-10.1-3.2-19-3.8c-19.8-1.1-35.6-6-47.3-14.9c-11.7-8.9-17.6-20.5-17.6-34.8c0-15.6,6.3-28,19-37.2
		c12.7-9.2,29.7-13.8,51.2-13.8c12.2,0,23.9,1.5,35,4.4c11.1,3,20.6,7.1,28.6,12.3l-19.3,33.2c-11.8-6.7-25.8-10.1-42.1-10.1
		c-16,0-24,3.8-24,11.4c0,3.2,1.6,5.6,4.9,7.3c3.3,1.7,8.8,3,16.6,3.8c22.3,1.7,39.4,6.8,51.1,15.2c11.7,8.4,17.6,20.2,17.6,35.4
		c0,16-6.4,28.6-19.3,37.8c-12.9,9.2-30.7,13.8-53.5,13.8C-95.3,2657.1-119.3,2650.1-139.7,2636.2z"/>
	<path class="st7" d="M193.3,2496.7V2653h-43l-3.2-18.7c-13.3,14.5-30.6,21.8-51.9,21.8c-14.5,0-27.5-3.4-38.7-10.3
		c-11.3-6.8-20.1-16.4-26.4-28.8c-6.3-12.3-9.5-26.4-9.5-42.2c0-15.8,3.2-29.9,9.5-42.2c6.3-12.3,15.1-21.9,26.4-28.8
		c11.3-6.8,24.2-10.3,38.7-10.3c10.5,0,20.2,1.8,29.1,5.5c8.9,3.7,16.4,9,22.8,16l3.2-18.3H193.3z M133.9,2603.5
		c7-7.3,10.4-16.8,10.4-28.6c0-11.8-3.5-21.3-10.4-28.6c-7-7.3-15.9-10.9-26.9-10.9c-11,0-19.9,3.7-26.7,11.1
		c-6.9,7.4-10.3,16.9-10.3,28.5c0,11.6,3.4,21.1,10.3,28.5c6.8,7.4,15.8,11.1,26.7,11.1C117.9,2614.4,126.9,2610.7,133.9,2603.5z"/>
	<path class="st7" d="M282.8,2645.4c-13.1-7.4-23.2-17.8-30.5-31.2c-7.3-13.4-10.9-28.7-10.9-46v-136.6h13.9v136.6
		c0,14.8,3.1,27.8,9.2,39.1c6.1,11.3,14.7,20.1,25.6,26.4c11,6.3,23.5,9.5,37.6,9.5c14.1,0,26.7-3.2,37.6-9.5
		c11-6.3,19.5-15.1,25.6-26.4c6.1-11.3,9.2-24.3,9.2-39.1v-136.6h13.9v136.6c0,17.3-3.6,32.6-10.9,46c-7.3,13.4-17.5,23.8-30.5,31.2
		c-13.1,7.4-28,11.1-44.9,11.1C310.9,2656.5,295.9,2652.8,282.8,2645.4z"/>
	<path class="st7" d="M613.7,2431.6V2653H601l-0.3-34.5c-5.9,11.4-14.8,20.4-26.7,27c-11.9,6.6-25.4,10-40.3,10
		c-15,0-28.4-3.4-40.3-10.3c-11.9-6.9-21.2-16.4-27.8-28.6c-6.6-12.2-10-26.1-10-41.8c0-15.6,3.3-29.5,10-41.8
		c6.6-12.2,15.9-21.8,27.8-28.6c11.9-6.9,25.4-10.3,40.3-10.3c15,0,28.4,3.3,40.2,9.8c11.8,6.5,20.7,15.5,26.6,26.9v-99.3H613.7z
		 M568.6,2634.6c10-5.7,17.8-13.7,23.4-24c5.6-10.3,8.4-22.2,8.4-35.7c0-13.5-2.8-25.4-8.4-35.7c-5.6-10.3-13.4-18.3-23.4-24
		c-10-5.7-21.4-8.5-34-8.5c-12.9,0-24.3,2.8-34.2,8.5c-9.9,5.7-17.7,13.7-23.2,24c-5.6,10.3-8.4,22.3-8.4,35.7
		c0,13.5,2.8,25.4,8.4,35.7c5.6,10.3,13.3,18.3,23.2,24c9.9,5.7,21.3,8.5,34.2,8.5C547.3,2643.2,558.6,2640.3,568.6,2634.6z"/>
	<path class="st7" d="M788.8,2512.5c11.7,12,17.6,28.8,17.6,50.3v90.1H793v-89.5c0-18.1-4.6-32.1-13.9-41.8
		c-9.3-9.7-22.5-14.5-39.5-14.5c-11.6,0-22,2.6-31.2,7.7c-9.2,5.2-16.3,12.2-21.4,21.2c-5.1,9-7.6,18.9-7.6,29.9v87h-13.3v-221.4
		h13.3v95.5c6.1-10.1,14.5-18.1,25.1-23.9c10.6-5.8,22.5-8.7,35.6-8.7C760.9,2494.5,777.1,2500.5,788.8,2512.5z"/>
	<path class="st7" d="M1004.3,2496.7V2653h-12.7l-0.3-34.8c-5.9,11.6-14.8,20.7-26.7,27.4c-11.9,6.6-25.4,10-40.3,10
		c-15.2,0-28.7-3.4-40.5-10.3c-11.8-6.9-21-16.4-27.7-28.6c-6.6-12.2-10-26.1-10-41.8c0-15.6,3.3-29.5,10-41.8
		c6.6-12.2,15.9-21.8,27.7-28.6c11.8-6.9,25.3-10.3,40.5-10.3c15,0,28.4,3.4,40.3,10.1c11.9,6.8,20.8,15.9,26.7,27.5l0.3-35.1
		H1004.3z M959.2,2634.6c10-5.7,17.8-13.7,23.4-24c5.6-10.3,8.4-22.2,8.4-35.7c0-13.5-2.8-25.4-8.4-35.7
		c-5.6-10.3-13.4-18.3-23.4-24c-10-5.7-21.4-8.5-34-8.5c-12.9,0-24.3,2.8-34.2,8.5c-9.9,5.7-17.7,13.7-23.2,24
		c-5.6,10.3-8.4,22.3-8.4,35.7c0,13.5,2.8,25.4,8.4,35.7c5.6,10.3,13.3,18.3,23.2,24c9.9,5.7,21.3,8.5,34.2,8.5
		C937.9,2643.2,949.2,2640.3,959.2,2634.6z"/>
	<path class="st7" d="M1154.9,2503.7l-6,11.4c-7.8-4.6-16.6-7-26.3-7c-9.7,0-18.6,2.8-26.7,8.5c-8.1,5.7-14.5,13.5-19.1,23.4
		c-4.6,9.9-7,20.8-7,32.6v80.3h-13.3v-156.3h12.7v34.8c5.5-11.4,12.9-20.3,22.3-26.7c9.4-6.4,19.9-9.6,31.5-9.6
		C1135.4,2495.1,1146,2498,1154.9,2503.7z"/>
</g>
<g class="st10">
	<path class="st11" d="M-527.8-548.9c0,1,0,2,0,3c-1.3,59.1-41.3,108.6-95.7,124.2c-11.6,3.4-23.9,5.2-36.7,5.2c-0.2,0-0.4,0-0.6,0
		l-72.5,70.5l-3.6,3.5c-5.3,5.1-12.1,8.3-19.4,9c-0.2,0-0.5,0-0.7,0.1c-0.3,0-0.5,0-0.8,0c-0.2,0-0.4,0-0.7,0c-0.3,0-0.5,0-0.8,0
		h-0.2c-0.3,0-0.7,0-1,0c-17.6-0.6-31.8-15-32-32.8c-0.1-1.3-0.2-2.6-0.2-3.9v-177.3c24.5,16.8,53.8,26.4,84.5,26.4
		c11.9,0,24.1-1.4,36.2-4.5c17.9-4.5,34.2-12,48.5-21.9c31.2-21.5,53-54.1,61.1-90.8c9.5,10.4,17.4,22.4,23.3,35.5
		C-531.9-586.2-527.8-568-527.8-548.9z"/>
	<path class="st12" d="M-608.9-671c0.2,18.8-5.1,36.9-14.6,52.5c-13.1,21.4-34.3,37.9-60.6,44.5c-36.4,9.1-73.1-3.2-96.9-29
		c-4.4-4.7-8.3-9.9-11.7-15.5v-26.5c0-20.1,16.3-36.3,36.3-36.3h96.2c12.7,0,25,1.8,36.7,5.1c3.2,0.9,6.3,1.9,9.4,3.1h0
		C-612.4-672.4-610.7-671.7-608.9-671z"/>
	<path class="st13" d="M-306.3-588.5c10.3,5.2,18.2,12.6,23.8,22.3c5.6,9.7,8.4,21,8.4,33.8c0,12.9-2.8,24.2-8.4,33.8
		c-5.6,9.7-13.5,17.1-23.8,22.3c-10.3,5.2-22.3,7.8-36,7.8h-43.5v50.4h-41.7v-178.1h85.3C-328.5-596.2-316.5-593.6-306.3-588.5z
		 M-323.3-512.2c5.2-4.9,7.8-11.5,7.8-19.9c0-8.3-2.6-14.9-7.8-19.9c-5.2-4.9-12.2-7.4-21-7.4h-41.7v54.5h41.7
		C-335.5-504.9-328.5-507.3-323.3-512.2z"/>
	<path class="st13" d="M-125.5-543.8v125.7h-34.6l-2.5-15c-10.7,11.7-24.6,17.6-41.7,17.6c-11.7,0-22.1-2.8-31.2-8.3
		c-9.1-5.5-16.2-13.2-21.3-23.2c-5.1-9.9-7.6-21.3-7.6-34c0-12.7,2.5-24,7.6-34c5.1-9.9,12.2-17.6,21.3-23.2
		c9.1-5.5,19.5-8.3,31.2-8.3c8.5,0,16.3,1.5,23.4,4.5c7.1,3,13.2,7.3,18.3,12.9l2.5-14.8H-125.5z M-173.3-457.9
		c5.6-5.9,8.4-13.5,8.4-23c0-9.5-2.8-17.2-8.4-23c-5.6-5.9-12.8-8.8-21.6-8.8c-8.8,0-16,3-21.5,8.9c-5.5,5.9-8.3,13.6-8.3,22.9
		c0,9.3,2.8,17,8.3,22.9c5.5,5.9,12.7,8.9,21.5,8.9C-186.1-449.1-178.9-452.1-173.3-457.9z"/>
	<path class="st14" d="M-92.3-562.4c-4.3-4.1-6.5-9.2-6.5-15.5c0-6.4,2.2-11.7,6.6-15.8c4.4-4.1,10-6.1,16.8-6.1
		c6.8,0,12.4,2,16.8,6.1c4.4,4.1,6.6,9.3,6.6,15.8c0,6.3-2.2,11.5-6.5,15.5s-10,6.1-16.9,6.1C-82.3-556.3-87.9-558.3-92.3-562.4z"/>
	<rect x="-95.4" y="-543.8" class="st13" width="40" height="125.7"/>
	<path class="st13" d="M-34.6-431.6l15.3-27.5c6.1,3.7,13.2,6.6,21.3,8.7c8.1,2,16.1,3.1,24,3.1c11,0,16.5-3,16.5-8.9
		c0-3.1-1.5-5.3-4.6-6.9c-3.1-1.5-8.1-2.5-15.3-3.1c-15.9-0.8-28.6-4.8-38-12c-9.4-7.1-14.1-16.5-14.1-28c0-12.6,5.1-22.5,15.3-29.9
		c10.2-7.4,23.9-11.1,41.2-11.1c9.8,0,19.2,1.2,28.1,3.6c8.9,2.4,16.6,5.7,23,9.9l-15.5,26.7c-9.5-5.4-20.8-8.1-33.8-8.1
		c-12.9,0-19.3,3.1-19.3,9.2c0,2.5,1.3,4.5,3.9,5.9c2.6,1.4,7.1,2.4,13.4,3.1c18,1.4,31.7,5.4,41.1,12.2C77.2-478,82-468.5,82-456.3
		c0,12.9-5.2,23-15.5,30.4c-10.4,7.4-24.7,11.1-43,11.1C1.2-414.8-18.2-420.4-34.6-431.6z"/>
	<path class="st13" d="M233.4-543.8v125.7h-34.6l-2.5-15c-10.7,11.7-24.6,17.6-41.7,17.6c-11.7,0-22.1-2.8-31.2-8.3
		c-9.1-5.5-16.2-13.2-21.3-23.2c-5.1-9.9-7.6-21.3-7.6-34c0-12.7,2.5-24,7.6-34c5.1-9.9,12.2-17.6,21.3-23.2
		c9.1-5.5,19.5-8.3,31.2-8.3c8.5,0,16.3,1.5,23.4,4.5c7.1,3,13.2,7.3,18.3,12.9l2.5-14.8H233.4z M185.5-457.9
		c5.6-5.9,8.4-13.5,8.4-23c0-9.5-2.8-17.2-8.4-23c-5.6-5.9-12.8-8.8-21.6-8.8c-8.8,0-16,3-21.5,8.9c-5.5,5.9-8.3,13.6-8.3,22.9
		c0,9.3,2.8,17,8.3,22.9c5.5,5.9,12.7,8.9,21.5,8.9C172.7-449.1,179.9-452.1,185.5-457.9z"/>
	<path class="st13" d="M305.4-424.2c-10.5-5.9-18.7-14.3-24.6-25.1c-5.9-10.8-8.8-23.1-8.8-37v-109.9h11.2v109.9
		c0,11.9,2.5,22.4,7.4,31.4c4.9,9.1,11.8,16.2,20.6,21.3c8.8,5.1,18.9,7.6,30.3,7.6c11.4,0,21.5-2.5,30.3-7.6
		c8.8-5.1,15.7-12.2,20.6-21.3c4.9-9.1,7.4-19.6,7.4-31.4v-109.9H411v109.9c0,13.9-2.9,26.3-8.8,37c-5.9,10.8-14,19.1-24.6,25.1
		c-10.5,5.9-22.6,8.9-36.1,8.9C328-415.3,315.9-418.2,305.4-424.2z"/>
	<path class="st13" d="M571.6-596.2v178.1h-10.2l-0.3-27.7c-4.8,9.2-11.9,16.4-21.5,21.8c-9.6,5.3-20.4,8-32.4,8
		c-12,0-22.9-2.8-32.4-8.3c-9.6-5.5-17.1-13.2-22.4-23c-5.3-9.8-8-21-8-33.6c0-12.6,2.7-23.8,8-33.6c5.3-9.8,12.8-17.5,22.4-23
		c9.6-5.5,20.4-8.3,32.4-8.3c12,0,22.8,2.6,32.3,7.9c9.5,5.3,16.6,12.5,21.4,21.6v-79.9H571.6z M535.3-432.8
		c8.1-4.6,14.3-11,18.8-19.3c4.5-8.3,6.7-17.9,6.7-28.8c0-10.9-2.3-20.4-6.7-28.8c-4.5-8.3-10.8-14.8-18.8-19.3
		c-8.1-4.6-17.2-6.9-27.4-6.9c-10.4,0-19.5,2.3-27.5,6.9c-8,4.6-14.2,11-18.7,19.3c-4.5,8.3-6.7,17.9-6.7,28.8
		c0,10.9,2.2,20.4,6.7,28.8c4.5,8.3,10.7,14.8,18.7,19.3c8,4.6,17.1,6.9,27.5,6.9C518.2-426,527.3-428.3,535.3-432.8z"/>
	<path class="st13" d="M712.5-531.1c9.4,9.7,14.1,23.2,14.1,40.5v72.5h-10.7v-72c0-14.6-3.7-25.8-11.2-33.6
		c-7.5-7.8-18.1-11.7-31.8-11.7c-9.3,0-17.7,2.1-25.1,6.2c-7.4,4.2-13.1,9.8-17.2,17.1c-4.1,7.2-6.1,15.2-6.1,24.1v70h-10.7v-178.1
		h10.7v76.9c4.9-8.1,11.7-14.5,20.2-19.2c8.6-4.7,18.1-7,28.6-7C690-545.6,703-540.7,712.5-531.1z"/>
	<path class="st13" d="M885.9-543.8v125.7h-10.2l-0.3-28c-4.8,9.3-11.9,16.7-21.5,22c-9.6,5.3-20.4,8-32.4,8
		c-12.2,0-23.1-2.8-32.6-8.3c-9.5-5.5-16.9-13.2-22.3-23c-5.3-9.8-8-21-8-33.6c0-12.6,2.7-23.8,8-33.6c5.3-9.8,12.8-17.5,22.3-23
		c9.5-5.5,20.4-8.3,32.6-8.3c12,0,22.9,2.7,32.4,8.1c9.6,5.4,16.8,12.8,21.5,22.1l0.3-28.2H885.9z M849.6-432.8
		c8.1-4.6,14.3-11,18.8-19.3c4.5-8.3,6.7-17.9,6.7-28.8c0-10.9-2.3-20.4-6.7-28.8c-4.5-8.3-10.8-14.8-18.8-19.3
		c-8.1-4.6-17.2-6.9-27.4-6.9c-10.4,0-19.5,2.3-27.5,6.9c-8,4.6-14.2,11-18.7,19.3c-4.5,8.3-6.7,17.9-6.7,28.8
		c0,10.9,2.2,20.4,6.7,28.8c4.5,8.3,10.7,14.8,18.7,19.3c8,4.6,17.1,6.9,27.5,6.9C832.5-426,841.6-428.3,849.6-432.8z"/>
	<path class="st13" d="M1007-538.2l-4.8,9.2c-6.3-3.7-13.3-5.6-21.1-5.6c-7.8,0-15,2.3-21.5,6.9c-6.5,4.6-11.7,10.9-15.4,18.8
		c-3.7,8-5.6,16.7-5.6,26.2v64.6h-10.7v-125.7h10.2v28c4.4-9.2,10.4-16.3,17.9-21.5c7.5-5.2,16-7.8,25.3-7.8
		C991.3-545.1,999.9-542.8,1007-538.2z"/>
</g>
<g>
	<path class="st5" d="M154,81.7c0,0.4,0,0.8,0,1.3c-0.5,24.5-17.2,45.1-39.7,51.6c-4.8,1.4-9.9,2.1-15.2,2.1c-0.1,0-0.2,0-0.3,0
		L68.7,166l-1.5,1.5c-2.2,2.1-5,3.4-8.1,3.7c-0.1,0-0.2,0-0.3,0c-0.1,0-0.2,0-0.3,0c-0.1,0-0.2,0-0.3,0c-0.1,0-0.2,0-0.3,0h-0.1
		c-0.1,0-0.3,0-0.4,0c-7.3-0.3-13.2-6.2-13.3-13.6C44,157,44,156.5,44,156V82.3c10.2,7,22.4,10.9,35.1,10.9c5,0,10-0.6,15-1.9
		c7.4-1.9,14.2-5,20.1-9.1c12.9-8.9,22-22.5,25.3-37.7c4,4.3,7.2,9.3,9.7,14.7C152.3,66.2,154,73.8,154,81.7z"/>
	<path class="st9" d="M120.3,31c0.1,7.8-2.1,15.3-6.1,21.8c-5.4,8.9-14.2,15.8-25.2,18.5C74,75.1,58.7,70,48.9,59.3
		c-1.8-2-3.4-4.1-4.9-6.4v-11c0-8.3,6.8-15.1,15.1-15.1H99c5.3,0,10.4,0.7,15.2,2.1c1.3,0.4,2.6,0.8,3.9,1.3h0
		C118.9,30.5,119.6,30.7,120.3,31z"/>
</g>
<g>
	<g>
		<path class="st5" d="M-527.8-548.9c0,1,0,2,0,3c-1.3,59.1-41.3,108.6-95.7,124.2c-11.6,3.4-23.9,5.2-36.7,5.2c-0.2,0-0.4,0-0.6,0
			l-72.5,70.5l-3.6,3.5c-5.3,5.1-12.1,8.3-19.4,9c-0.2,0-0.5,0-0.7,0.1c-0.3,0-0.5,0-0.8,0c-0.2,0-0.4,0-0.7,0c-0.3,0-0.5,0-0.8,0
			h-0.2c-0.3,0-0.7,0-1,0c-17.6-0.6-31.8-15-32-32.8c-0.1-1.3-0.2-2.6-0.2-3.9v-177.3c24.5,16.8,53.8,26.4,84.5,26.4
			c11.9,0,24.1-1.4,36.2-4.5c17.9-4.5,34.2-12,48.5-21.9c31.2-21.5,53-54.1,61.1-90.8c9.5,10.4,17.4,22.4,23.3,35.5
			C-531.9-586.2-527.8-568-527.8-548.9z"/>
		<path class="st9" d="M-608.9-671c0.2,18.8-5.1,36.9-14.6,52.5c-13.1,21.4-34.3,37.9-60.6,44.5c-36.4,9.1-73.1-3.2-96.9-29
			c-4.4-4.7-8.3-9.9-11.7-15.5v-26.5c0-20.1,16.3-36.3,36.3-36.3h96.2c12.7,0,25,1.8,36.7,5.1c3.2,0.9,6.3,1.9,9.4,3.1h0
			C-612.4-672.4-610.7-671.7-608.9-671z"/>
	</g>
	<g>
		<path class="st7" d="M-306.3-588.5c10.3,5.2,18.2,12.6,23.8,22.3c5.6,9.7,8.4,21,8.4,33.8c0,12.9-2.8,24.2-8.4,33.8
			c-5.6,9.7-13.5,17.1-23.8,22.3c-10.3,5.2-22.3,7.8-36,7.8h-43.5v50.4h-41.7v-178.1h85.3C-328.5-596.2-316.5-593.6-306.3-588.5z
			 M-323.3-512.2c5.2-4.9,7.8-11.5,7.8-19.9c0-8.3-2.6-14.9-7.8-19.9c-5.2-4.9-12.2-7.4-21-7.4h-41.7v54.5h41.7
			C-335.5-504.9-328.5-507.3-323.3-512.2z"/>
		<path class="st7" d="M-125.5-543.8v125.7h-34.6l-2.5-15c-10.7,11.7-24.6,17.6-41.7,17.6c-11.7,0-22.1-2.8-31.2-8.3
			c-9.1-5.5-16.2-13.2-21.3-23.2c-5.1-9.9-7.6-21.3-7.6-34c0-12.7,2.5-24,7.6-34c5.1-9.9,12.2-17.6,21.3-23.2
			c9.1-5.5,19.5-8.3,31.2-8.3c8.5,0,16.3,1.5,23.4,4.5c7.1,3,13.2,7.3,18.3,12.9l2.5-14.8H-125.5z M-173.3-457.9
			c5.6-5.9,8.4-13.5,8.4-23c0-9.5-2.8-17.2-8.4-23c-5.6-5.9-12.8-8.8-21.6-8.8c-8.8,0-16,3-21.5,8.9c-5.5,5.9-8.3,13.6-8.3,22.9
			c0,9.3,2.8,17,8.3,22.9c5.5,5.9,12.7,8.9,21.5,8.9C-186.1-449.1-178.9-452.1-173.3-457.9z"/>
		<path class="st8" d="M-92.3-562.4c-4.3-4.1-6.5-9.2-6.5-15.5c0-6.4,2.2-11.7,6.6-15.8c4.4-4.1,10-6.1,16.8-6.1
			c6.8,0,12.4,2,16.8,6.1c4.4,4.1,6.6,9.3,6.6,15.8c0,6.3-2.2,11.5-6.5,15.5s-10,6.1-16.9,6.1C-82.3-556.3-87.9-558.3-92.3-562.4z"
			/>
		<rect x="-95.4" y="-543.8" class="st7" width="40" height="125.7"/>
		<path class="st7" d="M-34.6-431.6l15.3-27.5c6.1,3.7,13.2,6.6,21.3,8.7c8.1,2,16.1,3.1,24,3.1c11,0,16.5-3,16.5-8.9
			c0-3.1-1.5-5.3-4.6-6.9c-3.1-1.5-8.1-2.5-15.3-3.1c-15.9-0.8-28.6-4.8-38-12c-9.4-7.1-14.1-16.5-14.1-28
			c0-12.6,5.1-22.5,15.3-29.9c10.2-7.4,23.9-11.1,41.2-11.1c9.8,0,19.2,1.2,28.1,3.6c8.9,2.4,16.6,5.7,23,9.9l-15.5,26.7
			c-9.5-5.4-20.8-8.1-33.8-8.1c-12.9,0-19.3,3.1-19.3,9.2c0,2.5,1.3,4.5,3.9,5.9c2.6,1.4,7.1,2.4,13.4,3.1
			c18,1.4,31.7,5.4,41.1,12.2C77.2-478,82-468.5,82-456.3c0,12.9-5.2,23-15.5,30.4c-10.4,7.4-24.7,11.1-43,11.1
			C1.2-414.8-18.2-420.4-34.6-431.6z"/>
		<path class="st7" d="M233.4-543.8v125.7h-34.6l-2.5-15c-10.7,11.7-24.6,17.6-41.7,17.6c-11.7,0-22.1-2.8-31.2-8.3
			c-9.1-5.5-16.2-13.2-21.3-23.2c-5.1-9.9-7.6-21.3-7.6-34c0-12.7,2.5-24,7.6-34c5.1-9.9,12.2-17.6,21.3-23.2
			c9.1-5.5,19.5-8.3,31.2-8.3c8.5,0,16.3,1.5,23.4,4.5c7.1,3,13.2,7.3,18.3,12.9l2.5-14.8H233.4z M185.5-457.9
			c5.6-5.9,8.4-13.5,8.4-23c0-9.5-2.8-17.2-8.4-23c-5.6-5.9-12.8-8.8-21.6-8.8c-8.8,0-16,3-21.5,8.9c-5.5,5.9-8.3,13.6-8.3,22.9
			c0,9.3,2.8,17,8.3,22.9c5.5,5.9,12.7,8.9,21.5,8.9C172.7-449.1,179.9-452.1,185.5-457.9z"/>
		<path class="st7" d="M305.4-424.2c-10.5-5.9-18.7-14.3-24.6-25.1c-5.9-10.8-8.8-23.1-8.8-37v-109.9h11.2v109.9
			c0,11.9,2.5,22.4,7.4,31.4c4.9,9.1,11.8,16.2,20.6,21.3c8.8,5.1,18.9,7.6,30.3,7.6c11.4,0,21.5-2.5,30.3-7.6
			c8.8-5.1,15.7-12.2,20.6-21.3c4.9-9.1,7.4-19.6,7.4-31.4v-109.9H411v109.9c0,13.9-2.9,26.3-8.8,37c-5.9,10.8-14,19.1-24.6,25.1
			c-10.5,5.9-22.6,8.9-36.1,8.9C328-415.3,315.9-418.2,305.4-424.2z"/>
		<path class="st7" d="M571.6-596.2v178.1h-10.2l-0.3-27.7c-4.8,9.2-11.9,16.4-21.5,21.8c-9.6,5.3-20.4,8-32.4,8
			c-12,0-22.9-2.8-32.4-8.3c-9.6-5.5-17.1-13.2-22.4-23c-5.3-9.8-8-21-8-33.6c0-12.6,2.7-23.8,8-33.6c5.3-9.8,12.8-17.5,22.4-23
			c9.6-5.5,20.4-8.3,32.4-8.3c12,0,22.8,2.6,32.3,7.9c9.5,5.3,16.6,12.5,21.4,21.6v-79.9H571.6z M535.3-432.8
			c8.1-4.6,14.3-11,18.8-19.3c4.5-8.3,6.7-17.9,6.7-28.8c0-10.9-2.3-20.4-6.7-28.8c-4.5-8.3-10.8-14.8-18.8-19.3
			c-8.1-4.6-17.2-6.9-27.4-6.9c-10.4,0-19.5,2.3-27.5,6.9c-8,4.6-14.2,11-18.7,19.3c-4.5,8.3-6.7,17.9-6.7,28.8
			c0,10.9,2.2,20.4,6.7,28.8c4.5,8.3,10.7,14.8,18.7,19.3c8,4.6,17.1,6.9,27.5,6.9C518.2-426,527.3-428.3,535.3-432.8z"/>
		<path class="st7" d="M712.5-531.1c9.4,9.7,14.1,23.2,14.1,40.5v72.5h-10.7v-72c0-14.6-3.7-25.8-11.2-33.6
			c-7.5-7.8-18.1-11.7-31.8-11.7c-9.3,0-17.7,2.1-25.1,6.2c-7.4,4.2-13.1,9.8-17.2,17.1c-4.1,7.2-6.1,15.2-6.1,24.1v70h-10.7v-178.1
			h10.7v76.9c4.9-8.1,11.7-14.5,20.2-19.2c8.6-4.7,18.1-7,28.6-7C690-545.6,703-540.7,712.5-531.1z"/>
		<path class="st7" d="M885.9-543.8v125.7h-10.2l-0.3-28c-4.8,9.3-11.9,16.7-21.5,22c-9.6,5.3-20.4,8-32.4,8
			c-12.2,0-23.1-2.8-32.6-8.3c-9.5-5.5-16.9-13.2-22.3-23c-5.3-9.8-8-21-8-33.6c0-12.6,2.7-23.8,8-33.6c5.3-9.8,12.8-17.5,22.3-23
			c9.5-5.5,20.4-8.3,32.6-8.3c12,0,22.9,2.7,32.4,8.1c9.6,5.4,16.8,12.8,21.5,22.1l0.3-28.2H885.9z M849.6-432.8
			c8.1-4.6,14.3-11,18.8-19.3c4.5-8.3,6.7-17.9,6.7-28.8c0-10.9-2.3-20.4-6.7-28.8c-4.5-8.3-10.8-14.8-18.8-19.3
			c-8.1-4.6-17.2-6.9-27.4-6.9c-10.4,0-19.5,2.3-27.5,6.9c-8,4.6-14.2,11-18.7,19.3c-4.5,8.3-6.7,17.9-6.7,28.8
			c0,10.9,2.2,20.4,6.7,28.8c4.5,8.3,10.7,14.8,18.7,19.3c8,4.6,17.1,6.9,27.5,6.9C832.5-426,841.6-428.3,849.6-432.8z"/>
		<path class="st7" d="M1007-538.2l-4.8,9.2c-6.3-3.7-13.3-5.6-21.1-5.6c-7.8,0-15,2.3-21.5,6.9c-6.5,4.6-11.7,10.9-15.4,18.8
			c-3.7,8-5.6,16.7-5.6,26.2v64.6h-10.7v-125.7h10.2v28c4.4-9.2,10.4-16.3,17.9-21.5c7.5-5.2,16-7.8,25.3-7.8
			C991.3-545.1,999.9-542.8,1007-538.2z"/>
	</g>
</g>
<g>
	<g>
		<path class="st5" d="M-2591.3,80.9c0,1,0,2,0,3c-1.3,59.1-41.3,108.6-95.7,124.2c-11.6,3.4-23.9,5.2-36.7,5.2c-0.2,0-0.4,0-0.6,0
			l-72.5,70.5l-3.6,3.5c-5.3,5.1-12.1,8.3-19.4,9c-0.2,0-0.5,0-0.7,0.1c-0.3,0-0.5,0-0.8,0.1c-0.2,0-0.4,0-0.7,0c-0.3,0-0.5,0-0.8,0
			h-0.2c-0.3,0-0.7,0-1,0c-17.6-0.6-31.8-15-32-32.8c-0.1-1.3-0.2-2.6-0.2-3.9V82.3c24.5,16.8,53.8,26.4,84.5,26.4
			c11.9,0,24.1-1.4,36.2-4.5c17.9-4.5,34.2-12,48.5-21.9c31.2-21.5,53-54.1,61.1-90.8c9.5,10.4,17.4,22.4,23.3,35.5
			C-2595.4,43.5-2591.3,61.7-2591.3,80.9z"/>
		<path class="st9" d="M-2672.5-41.2c0.2,18.8-5.1,36.9-14.6,52.5c-13.1,21.4-34.3,37.9-60.6,44.5c-36.4,9.1-73.1-3.2-96.9-29
			c-4.4-4.7-8.3-9.9-11.7-15.5v-26.5c0-20.1,16.3-36.3,36.3-36.3h96.2c12.7,0,25,1.8,36.7,5.1c3.2,0.9,6.3,1.9,9.4,3.1h0
			C-2675.9-42.6-2674.2-41.9-2672.5-41.2z"/>
	</g>
	<g>
		<path class="st7" d="M-2369.8,41.3c10.3,5.2,18.2,12.6,23.8,22.3c5.6,9.7,8.4,21,8.4,33.8c0,12.9-2.8,24.2-8.4,33.8
			c-5.6,9.7-13.5,17.1-23.8,22.3c-10.3,5.2-22.3,7.8-36,7.8h-43.5v50.4h-41.7V33.5h85.3C-2392.1,33.5-2380.1,36.1-2369.8,41.3z
			 M-2386.9,117.5c5.2-4.9,7.8-11.5,7.8-19.9c0-8.3-2.6-14.9-7.8-19.9c-5.2-4.9-12.2-7.4-21-7.4h-41.7v54.5h41.7
			C-2399,124.9-2392,122.4-2386.9,117.5z"/>
		<path class="st7" d="M-2189,85.9v125.7h-34.6l-2.5-15c-10.7,11.7-24.6,17.6-41.7,17.6c-11.7,0-22.1-2.8-31.2-8.3
			c-9.1-5.5-16.2-13.2-21.3-23.2c-5.1-9.9-7.6-21.3-7.6-34c0-12.7,2.5-24,7.6-34c5.1-9.9,12.2-17.6,21.3-23.2
			c9.1-5.5,19.5-8.3,31.2-8.3c8.5,0,16.3,1.5,23.4,4.5c7.1,3,13.2,7.3,18.3,12.9l2.5-14.8H-2189z M-2236.8,171.8
			c5.6-5.9,8.4-13.5,8.4-23c0-9.5-2.8-17.2-8.4-23c-5.6-5.9-12.8-8.8-21.6-8.8c-8.8,0-16,3-21.5,8.9c-5.5,5.9-8.3,13.6-8.3,22.9
			c0,9.3,2.8,17,8.3,22.9c5.5,5.9,12.7,8.9,21.5,8.9C-2249.7,180.6-2242.4,177.7-2236.8,171.8z"/>
		<path class="st8" d="M-2155.8,67.4c-4.3-4.1-6.5-9.2-6.5-15.5c0-6.4,2.2-11.7,6.6-15.8c4.4-4.1,10-6.1,16.8-6.1
			c6.8,0,12.4,2,16.8,6.1c4.4,4.1,6.6,9.3,6.6,15.8c0,6.3-2.2,11.5-6.5,15.5c-4.3,4.1-10,6.1-16.9,6.1
			C-2145.8,73.5-2151.5,71.4-2155.8,67.4z"/>
		<rect x="-2159" y="85.9" class="st7" width="40" height="125.7"/>
		<path class="st7" d="M-2098.1,198.2l15.3-27.5c6.1,3.7,13.2,6.6,21.3,8.7c8.1,2,16.1,3.1,24.1,3.1c11,0,16.5-3,16.5-8.9
			c0-3.1-1.5-5.3-4.6-6.9c-3.1-1.5-8.1-2.5-15.3-3.1c-15.9-0.8-28.6-4.8-38-12c-9.4-7.1-14.1-16.5-14.1-28
			c0-12.6,5.1-22.5,15.3-29.9c10.2-7.4,23.9-11.1,41.2-11.1c9.8,0,19.2,1.2,28.1,3.6c8.9,2.4,16.6,5.7,23,9.9l-15.5,26.7
			c-9.5-5.4-20.8-8.1-33.8-8.1c-12.9,0-19.3,3.1-19.3,9.2c0,2.5,1.3,4.5,3.9,5.9c2.6,1.4,7.1,2.4,13.4,3.1
			c18,1.4,31.7,5.4,41.1,12.2c9.4,6.8,14.1,16.3,14.1,28.5c0,12.9-5.2,23-15.5,30.4c-10.4,7.4-24.7,11.1-43,11.1
			C-2062.3,215-2081.7,209.4-2098.1,198.2z"/>
		<path class="st7" d="M-1830.2,85.9v125.7h-34.6l-2.5-15c-10.7,11.7-24.6,17.6-41.7,17.6c-11.7,0-22.1-2.8-31.2-8.3
			c-9.1-5.5-16.2-13.2-21.3-23.2c-5.1-9.9-7.6-21.3-7.6-34c0-12.7,2.5-24,7.6-34c5.1-9.9,12.2-17.6,21.3-23.2
			c9.1-5.5,19.5-8.3,31.2-8.3c8.5,0,16.3,1.5,23.4,4.5c7.1,3,13.2,7.3,18.3,12.9l2.5-14.8H-1830.2z M-1878,171.8
			c5.6-5.9,8.4-13.5,8.4-23c0-9.5-2.8-17.2-8.4-23c-5.6-5.9-12.8-8.8-21.6-8.8c-8.8,0-16,3-21.5,8.9c-5.5,5.9-8.3,13.6-8.3,22.9
			c0,9.3,2.8,17,8.3,22.9c5.5,5.9,12.7,8.9,21.5,8.9C-1890.8,180.6-1883.6,177.7-1878,171.8z"/>
		<path class="st7" d="M-1758.1,205.5c-10.5-5.9-18.7-14.3-24.6-25.1c-5.9-10.8-8.8-23.1-8.8-37V33.5h11.2v109.9
			c0,11.9,2.5,22.4,7.4,31.4c4.9,9.1,11.8,16.2,20.6,21.3c8.8,5.1,18.9,7.6,30.3,7.6c11.4,0,21.5-2.5,30.3-7.6
			c8.8-5.1,15.7-12.2,20.6-21.3c4.9-9.1,7.4-19.6,7.4-31.4V33.5h11.2v109.9c0,13.9-2.9,26.3-8.8,37c-5.9,10.8-14,19.1-24.6,25.1
			c-10.5,5.9-22.6,8.9-36.1,8.9C-1735.6,214.5-1747.6,211.5-1758.1,205.5z"/>
		<path class="st7" d="M-1491.9,33.5v178.1h-10.2l-0.3-27.7c-4.8,9.2-11.9,16.4-21.5,21.8c-9.6,5.3-20.4,8-32.4,8
			c-12,0-22.9-2.8-32.4-8.3c-9.6-5.5-17.1-13.2-22.4-23c-5.3-9.8-8-21-8-33.6c0-12.6,2.7-23.8,8-33.6c5.3-9.8,12.8-17.5,22.4-23
			c9.6-5.5,20.4-8.3,32.4-8.3c12,0,22.8,2.6,32.3,7.9c9.5,5.3,16.6,12.5,21.4,21.6V33.5H-1491.9z M-1528.2,196.9
			c8.1-4.6,14.3-11,18.8-19.3c4.5-8.3,6.7-17.9,6.7-28.8c0-10.9-2.3-20.4-6.7-28.8c-4.5-8.3-10.8-14.8-18.8-19.3
			c-8.1-4.6-17.2-6.9-27.4-6.9c-10.4,0-19.5,2.3-27.5,6.9c-8,4.6-14.2,11-18.7,19.3c-4.5,8.3-6.7,17.9-6.7,28.8
			c0,10.9,2.2,20.4,6.7,28.8c4.5,8.3,10.7,14.8,18.7,19.3c8,4.6,17.1,6.9,27.5,6.9C-1545.4,203.8-1536.3,201.5-1528.2,196.9z"/>
		<path class="st7" d="M-1351.1,98.7c9.4,9.7,14.1,23.2,14.1,40.5v72.5h-10.7v-72c0-14.6-3.7-25.8-11.2-33.6
			c-7.5-7.8-18.1-11.7-31.8-11.7c-9.3,0-17.7,2.1-25.1,6.2c-7.4,4.2-13.1,9.8-17.2,17.1c-4.1,7.2-6.1,15.2-6.1,24.1v70h-10.7V33.5
			h10.7v76.9c4.9-8.1,11.7-14.5,20.2-19.2c8.6-4.7,18.1-7,28.6-7C-1373.5,84.2-1360.5,89-1351.1,98.7z"/>
		<path class="st7" d="M-1177.6,85.9v125.7h-10.2l-0.3-28c-4.8,9.3-11.9,16.7-21.5,22c-9.6,5.3-20.4,8-32.4,8
			c-12.2,0-23.1-2.8-32.6-8.3c-9.5-5.5-16.9-13.2-22.3-23c-5.3-9.8-8-21-8-33.6c0-12.6,2.7-23.8,8-33.6c5.3-9.8,12.8-17.5,22.3-23
			c9.5-5.5,20.4-8.3,32.6-8.3c12,0,22.9,2.7,32.4,8.1c9.6,5.4,16.8,12.8,21.5,22.1l0.3-28.2H-1177.6z M-1213.9,196.9
			c8.1-4.6,14.3-11,18.8-19.3c4.5-8.3,6.7-17.9,6.7-28.8c0-10.9-2.3-20.4-6.7-28.8c-4.5-8.3-10.8-14.8-18.8-19.3
			c-8.1-4.6-17.2-6.9-27.4-6.9c-10.4,0-19.5,2.3-27.5,6.9c-8,4.6-14.2,11-18.7,19.3c-4.5,8.3-6.7,17.9-6.7,28.8
			c0,10.9,2.2,20.4,6.7,28.8c4.5,8.3,10.7,14.8,18.7,19.3c8,4.6,17.1,6.9,27.5,6.9C-1231.1,203.8-1222,201.5-1213.9,196.9z"/>
		<path class="st7" d="M-1056.5,91.5l-4.8,9.2c-6.3-3.7-13.3-5.6-21.1-5.6c-7.8,0-15,2.3-21.5,6.9c-6.5,4.6-11.7,10.9-15.4,18.8
			c-3.7,8-5.6,16.7-5.6,26.2v64.6h-10.7V85.9h10.2v28c4.4-9.2,10.4-16.3,17.9-21.5c7.5-5.2,16-7.8,25.3-7.8
			C-1072.2,84.7-1063.6,87-1056.5,91.5z"/>
	</g>
</g>
<g>
	<rect x="-5456.4" y="-5318.4" class="st0" width="3500" height="3500"/>
	<rect x="-1956.4" y="-3097.1" class="st1" width="3500" height="1278.7"/>
	<rect x="-1956.4" y="-5318.4" class="st2" width="3500" height="2221.3"/>
	<path class="st2" d="M525-2658.6v413.4c0,67.5,55.2,122.7,122.7,122.7h413.4c67.5,0,122.7-55.2,122.7-122.7v-413.4
		c0-67.5-55.2-122.7-122.7-122.7H647.7C580.2-2781.3,525-2726.1,525-2658.6"/>
	<g>
		<path class="st3" d="M-4812.9-3372c19.1,9.6,33.8,23.4,44.2,41.3c10.4,18,15.6,38.9,15.6,62.8c0,23.9-5.2,44.9-15.6,62.8
			c-10.4,18-25.1,31.7-44.2,41.3c-19.1,9.6-41.3,14.4-66.9,14.4h-80.8v93.5h-77.5v-330.7h158.3
			C-4854.2-3386.4-4831.9-3381.6-4812.9-3372z M-4844.5-3230.5c9.6-9.1,14.4-21.4,14.4-36.9c0-15.4-4.8-27.7-14.4-36.9
			c-9.6-9.1-22.6-13.7-39-13.7h-77.5v101.1h77.5C-4867.1-3216.8-4854.1-3221.4-4844.5-3230.5z"/>
		<path class="st3" d="M-4477.2-3289.1v233.4h-64.3l-4.7-27.9c-19.8,21.7-45.7,32.6-77.5,32.6c-21.7,0-41-5.1-57.9-15.4
			c-16.9-10.2-30-24.6-39.5-43c-9.4-18.4-14.2-39.5-14.2-63.1c0-23.6,4.7-44.6,14.2-63.1c9.4-18.4,22.6-32.8,39.5-43
			c16.8-10.2,36.1-15.4,57.9-15.4c15.7,0,30.2,2.8,43.5,8.3c13.2,5.5,24.6,13.5,34,23.9l4.7-27.4H-4477.2z M-4566-3129.6
			c10.4-10.9,15.6-25.1,15.6-42.8c0-17.6-5.2-31.9-15.6-42.8c-10.4-10.9-23.8-16.3-40.2-16.3c-16.4,0-29.7,5.5-39.9,16.5
			c-10.2,11-15.4,25.2-15.4,42.5c0,17.3,5.1,31.5,15.4,42.5c10.2,11,23.5,16.5,39.9,16.5C-4589.8-3113.3-4576.4-3118.8-4566-3129.6z
			"/>
		<path class="st8" d="M-4415.5-3323.6c-8-7.6-12-17.2-12-28.8c0-12,4.1-21.7,12.3-29.3c8.2-7.6,18.6-11.3,31.2-11.3
			c12.6,0,23,3.8,31.2,11.3c8.2,7.6,12.3,17.3,12.3,29.3c0,11.7-4,21.3-12,28.8s-18.5,11.3-31.4,11.3
			C-4397-3312.2-4407.5-3316-4415.5-3323.6z"/>
		<rect x="-4421.4" y="-3289.1" class="st3" width="74.2" height="233.4"/>
		<path class="st3" d="M-4308.5-3080.7l28.3-51c11.3,6.9,24.5,12.3,39.5,16.1c15,3.8,29.8,5.7,44.6,5.7c20.5,0,30.7-5.5,30.7-16.5
			c0-5.7-2.8-9.9-8.5-12.8c-5.7-2.8-15.1-4.7-28.3-5.7c-29.6-1.6-53.2-9-70.6-22.2c-17.5-13.2-26.2-30.5-26.2-52
			c0-23.3,9.4-41.8,28.3-55.5c18.9-13.7,44.4-20.6,76.5-20.6c18.3,0,35.7,2.2,52.2,6.6c16.5,4.4,30.8,10.6,42.8,18.4l-28.8,49.6
			c-17.6-10.1-38.6-15.1-62.8-15.1c-23.9,0-35.9,5.7-35.9,17c0,4.7,2.4,8.3,7.3,10.9c4.9,2.5,13.1,4.4,24.8,5.7
			c33.4,2.5,58.8,10.1,76.3,22.7c17.5,12.6,26.2,30.2,26.2,52.9c0,23.9-9.6,42.8-28.8,56.5c-19.2,13.7-45.8,20.6-79.8,20.6
			C-4242.1-3049.6-4278-3060-4308.5-3080.7z"/>
		<path class="st3" d="M-3811-3289.1v233.4h-64.3l-4.7-27.9c-19.8,21.7-45.7,32.6-77.5,32.6c-21.7,0-41-5.1-57.9-15.4
			c-16.9-10.2-30-24.6-39.5-43c-9.4-18.4-14.2-39.5-14.2-63.1c0-23.6,4.7-44.6,14.2-63.1c9.4-18.4,22.6-32.8,39.5-43
			c16.8-10.2,36.1-15.4,57.9-15.4c15.7,0,30.2,2.8,43.5,8.3c13.2,5.5,24.6,13.5,34,23.9l4.7-27.4H-3811z M-3899.8-3129.6
			c10.4-10.9,15.6-25.1,15.6-42.8c0-17.6-5.2-31.9-15.6-42.8c-10.4-10.9-23.8-16.3-40.2-16.3c-16.4,0-29.7,5.5-39.9,16.5
			c-10.2,11-15.4,25.2-15.4,42.5c0,17.3,5.1,31.5,15.4,42.5c10.2,11,23.5,16.5,39.9,16.5
			C-3923.6-3113.3-3910.2-3118.8-3899.8-3129.6z"/>
		<path class="st3" d="M-3677.3-3067c-19.5-11-34.7-26.5-45.6-46.5c-10.9-20-16.3-42.9-16.3-68.7v-204.1h20.8v204.1
			c0,22.1,4.6,41.5,13.7,58.3c9.1,16.9,21.9,30,38.3,39.5c16.4,9.4,35.1,14.2,56.2,14.2c21.1,0,39.8-4.7,56.2-14.2
			c16.4-9.4,29.1-22.6,38.3-39.5c9.1-16.8,13.7-36.3,13.7-58.3v-204.1h20.8v204.1c0,25.8-5.4,48.7-16.3,68.7
			c-10.9,20-26.1,35.5-45.6,46.5c-19.5,11-41.9,16.5-67.1,16.5C-3635.4-3050.5-3657.8-3056-3677.3-3067z"/>
		<path class="st3" d="M-3183.1-3386.4v330.7h-18.9l-0.5-51.5c-8.8,17-22.1,30.5-39.9,40.4c-17.8,9.9-37.9,14.9-60.2,14.9
			c-22.4,0-42.4-5.1-60.2-15.4c-17.8-10.2-31.7-24.5-41.6-42.8c-9.9-18.3-14.9-39.1-14.9-62.4c0-23.3,5-44.1,14.9-62.4
			c9.9-18.3,23.8-32.5,41.6-42.8c17.8-10.2,37.9-15.4,60.2-15.4c22.4,0,42.4,4.9,60,14.6c17.6,9.8,30.9,23.2,39.7,40.2v-148.4
			H-3183.1z M-3250.4-3083.1c15-8.5,26.6-20.5,35-35.9c8.3-15.4,12.5-33.2,12.5-53.4c0-20.2-4.2-38-12.5-53.4
			c-8.3-15.4-20-27.4-35-35.9c-15-8.5-31.9-12.8-50.8-12.8c-19.2,0-36.2,4.3-51,12.8c-14.8,8.5-26.4,20.5-34.7,35.9
			c-8.3,15.4-12.5,33.2-12.5,53.4c0,20.2,4.2,38,12.5,53.4c8.3,15.4,19.9,27.4,34.7,35.9c14.8,8.5,31.8,12.8,51,12.8
			C-3282.3-3070.3-3265.4-3074.6-3250.4-3083.1z"/>
		<path class="st3" d="M-2921.6-3265.5c17.5,18,26.2,43,26.2,75.1v134.7h-19.8v-133.7c0-27.1-6.9-47.9-20.8-62.4
			c-13.9-14.5-33.5-21.7-59.1-21.7c-17.3,0-32.8,3.9-46.5,11.6c-13.7,7.7-24.3,18.3-31.9,31.7c-7.6,13.4-11.3,28.3-11.3,44.6v129.9
			h-19.8v-330.7h19.8v142.7c9.1-15.1,21.7-27,37.6-35.7c15.9-8.7,33.6-13,53.2-13C-2963.3-3292.4-2939.1-3283.4-2921.6-3265.5z"/>
		<path class="st3" d="M-2599.6-3289.1v233.4h-18.9l-0.5-52c-8.8,17.3-22.1,30.9-39.9,40.9c-17.8,9.9-37.9,14.9-60.2,14.9
			c-22.7,0-42.8-5.1-60.5-15.4c-17.6-10.2-31.4-24.5-41.3-42.8c-9.9-18.3-14.9-39.1-14.9-62.4c0-23.3,5-44.1,14.9-62.4
			c9.9-18.3,23.7-32.5,41.3-42.8c17.6-10.2,37.8-15.4,60.5-15.4c22.4,0,42.4,5,60.2,15.1c17.8,10.1,31.1,23.8,39.9,41.1l0.5-52.4
			H-2599.6z M-2667-3083.1c15-8.5,26.6-20.5,35-35.9c8.3-15.4,12.5-33.2,12.5-53.4c0-20.2-4.2-38-12.5-53.4
			c-8.3-15.4-20-27.4-35-35.9c-15-8.5-31.9-12.8-50.8-12.8c-19.2,0-36.2,4.3-51,12.8c-14.8,8.5-26.4,20.5-34.7,35.9
			c-8.3,15.4-12.5,33.2-12.5,53.4c0,20.2,4.2,38,12.5,53.4c8.3,15.4,19.9,27.4,34.7,35.9c14.8,8.5,31.8,12.8,51,12.8
			C-2698.8-3070.3-2681.9-3074.6-2667-3083.1z"/>
		<path class="st3" d="M-2374.7-3278.7l-9,17c-11.7-6.9-24.7-10.4-39.2-10.4c-14.5,0-27.8,4.3-39.9,12.8
			c-12.1,8.5-21.7,20.2-28.6,35c-6.9,14.8-10.4,31-10.4,48.7v120h-19.8v-233.4h18.9v52c8.2-17,19.3-30.3,33.3-39.9
			c14-9.6,29.7-14.4,47-14.4C-2403.9-3291.5-2388-3287.2-2374.7-3278.7z"/>
	</g>
	<path class="st3" d="M-1035.3-2512.6c8.2,4.2,14.6,10.1,19.1,17.9c4.5,7.8,6.7,16.8,6.7,27.1c0,10.3-2.2,19.4-6.7,27.1
		c-4.5,7.8-10.9,13.7-19.1,17.9c-8.2,4.2-17.9,6.2-28.9,6.2h-34.9v40.4h-33.5v-142.9h68.4
		C-1053.2-2518.8-1043.6-2516.8-1035.3-2512.6z M-1049-2451.5c4.1-3.9,6.2-9.3,6.2-15.9c0-6.7-2.1-12-6.2-15.9
		c-4.2-3.9-9.8-5.9-16.8-5.9h-33.5v43.7h33.5C-1058.8-2445.6-1053.2-2447.5-1049-2451.5z"/>
	<path class="st3" d="M-890.3-2476.8v100.8h-27.8l-2-12c-8.6,9.4-19.7,14.1-33.5,14.1c-9.4,0-17.7-2.2-25-6.6
		c-7.3-4.4-13-10.6-17-18.6c-4.1-8-6.1-17-6.1-27.2c0-10.2,2-19.3,6.1-27.2c4.1-8,9.8-14.2,17-18.6c7.3-4.4,15.6-6.6,25-6.6
		c6.8,0,13.1,1.2,18.8,3.6c5.7,2.4,10.6,5.8,14.7,10.3l2-11.8H-890.3z M-928.7-2407.9c4.5-4.7,6.7-10.9,6.7-18.5
		c0-7.6-2.2-13.8-6.7-18.5c-4.5-4.7-10.3-7-17.4-7c-7.1,0-12.8,2.4-17.2,7.1c-4.4,4.8-6.6,10.9-6.6,18.4c0,7.5,2.2,13.6,6.6,18.4
		c4.4,4.8,10.2,7.1,17.2,7.1C-939-2400.9-933.2-2403.2-928.7-2407.9z"/>
	<path class="st8" d="M-863.7-2491.7c-3.5-3.3-5.2-7.4-5.2-12.5c0-5.2,1.8-9.4,5.3-12.7c3.5-3.3,8-4.9,13.5-4.9
		c5.4,0,9.9,1.6,13.5,4.9c3.5,3.3,5.3,7.5,5.3,12.7c0,5-1.7,9.2-5.2,12.5c-3.5,3.3-8,4.9-13.6,4.9
		C-855.7-2486.8-860.2-2488.4-863.7-2491.7z"/>
	<rect x="-866.2" y="-2476.8" class="st3" width="32" height="100.8"/>
	<path class="st3" d="M-817.4-2386.8l12.2-22c4.9,3,10.6,5.3,17,6.9c6.5,1.6,12.9,2.4,19.3,2.4c8.8,0,13.3-2.4,13.3-7.1
		c0-2.4-1.2-4.3-3.7-5.5c-2.4-1.2-6.5-2-12.2-2.4c-12.8-0.7-23-3.9-30.5-9.6c-7.6-5.7-11.3-13.2-11.3-22.5c0-10.1,4.1-18.1,12.2-24
		c8.2-5.9,19.2-8.9,33.1-8.9c7.9,0,15.4,1,22.6,2.9c7.1,1.9,13.3,4.6,18.5,8l-12.5,21.4c-7.6-4.4-16.7-6.5-27.1-6.5
		c-10.3,0-15.5,2.4-15.5,7.3c0,2,1.1,3.6,3.2,4.7c2.1,1.1,5.7,1.9,10.7,2.4c14.4,1.1,25.4,4.4,33,9.8c7.6,5.4,11.3,13.1,11.3,22.9
		c0,10.3-4.2,18.5-12.5,24.4c-8.3,5.9-19.8,8.9-34.5,8.9C-788.7-2373.3-804.2-2377.8-817.4-2386.8z"/>
	<path class="st3" d="M-602.5-2476.8v100.8h-27.8l-2-12c-8.6,9.4-19.7,14.1-33.5,14.1c-9.4,0-17.7-2.2-25-6.6
		c-7.3-4.4-13-10.6-17-18.6c-4.1-8-6.1-17-6.1-27.2c0-10.2,2-19.3,6.1-27.2c4.1-8,9.8-14.2,17-18.6c7.3-4.4,15.6-6.6,25-6.6
		c6.8,0,13.1,1.2,18.8,3.6c5.7,2.4,10.6,5.8,14.7,10.3l2-11.8H-602.5z M-640.9-2407.9c4.5-4.7,6.7-10.9,6.7-18.5
		c0-7.6-2.2-13.8-6.7-18.5c-4.5-4.7-10.3-7-17.4-7c-7.1,0-12.8,2.4-17.2,7.1c-4.4,4.8-6.6,10.9-6.6,18.4c0,7.5,2.2,13.6,6.6,18.4
		c4.4,4.8,10.2,7.1,17.2,7.1C-651.2-2400.9-645.4-2403.2-640.9-2407.9z"/>
	<path class="st3" d="M-544.7-2380.8c-8.4-4.8-15-11.5-19.7-20.1c-4.7-8.6-7-18.5-7-29.7v-88.2h9v88.2c0,9.5,2,17.9,5.9,25.2
		c3.9,7.3,9.5,13,16.5,17c7.1,4.1,15.2,6.1,24.3,6.1c9.1,0,17.2-2,24.3-6.1c7.1-4.1,12.6-9.8,16.5-17c3.9-7.3,5.9-15.7,5.9-25.2
		v-88.2h9v88.2c0,11.2-2.3,21.1-7,29.7c-4.7,8.6-11.3,15.3-19.7,20.1c-8.4,4.8-18.1,7.1-29,7.1
		C-526.6-2373.7-536.3-2376.1-544.7-2380.8z"/>
	<path class="st3" d="M-331.2-2518.8v142.9h-8.2l-0.2-22.2c-3.8,7.3-9.6,13.2-17.2,17.5c-7.7,4.3-16.4,6.4-26,6.4
		c-9.7,0-18.3-2.2-26-6.6c-7.7-4.4-13.7-10.6-18-18.5c-4.3-7.9-6.4-16.9-6.4-26.9c0-10.1,2.1-19,6.4-26.9c4.3-7.9,10.3-14,18-18.5
		c7.7-4.4,16.4-6.6,26-6.6c9.7,0,18.3,2.1,25.9,6.3c7.6,4.2,13.3,10,17.1,17.4v-64.1H-331.2z M-360.3-2387.8
		c6.5-3.7,11.5-8.8,15.1-15.5c3.6-6.7,5.4-14.4,5.4-23.1c0-8.7-1.8-16.4-5.4-23.1c-3.6-6.7-8.6-11.8-15.1-15.5
		c-6.5-3.7-13.8-5.5-21.9-5.5c-8.3,0-15.7,1.8-22,5.5c-6.4,3.7-11.4,8.8-15,15.5c-3.6,6.7-5.4,14.4-5.4,23.1
		c0,8.7,1.8,16.4,5.4,23.1c3.6,6.7,8.6,11.8,15,15.5c6.4,3.7,13.7,5.5,22,5.5C-374.1-2382.3-366.8-2384.1-360.3-2387.8z"/>
	<path class="st3" d="M-218.3-2466.6c7.6,7.8,11.3,18.6,11.3,32.5v58.2h-8.6v-57.8c0-11.7-3-20.7-9-26.9c-6-6.3-14.5-9.4-25.5-9.4
		c-7.5,0-14.2,1.7-20.1,5c-5.9,3.3-10.5,7.9-13.8,13.7c-3.3,5.8-4.9,12.2-4.9,19.3v56.1h-8.6v-142.9h8.6v61.6
		c3.9-6.5,9.4-11.7,16.2-15.4c6.9-3.7,14.5-5.6,23-5.6C-236.3-2478.2-225.8-2474.3-218.3-2466.6z"/>
	<path class="st3" d="M-79.2-2476.8v100.8h-8.2l-0.2-22.5c-3.8,7.5-9.6,13.4-17.2,17.7c-7.7,4.3-16.4,6.4-26,6.4
		c-9.8,0-18.5-2.2-26.1-6.6c-7.6-4.4-13.6-10.6-17.9-18.5c-4.3-7.9-6.4-16.9-6.4-26.9c0-10.1,2.1-19,6.4-26.9
		c4.3-7.9,10.2-14,17.9-18.5c7.6-4.4,16.3-6.6,26.1-6.6c9.7,0,18.3,2.2,26,6.5c7.7,4.4,13.4,10.3,17.2,17.8l0.2-22.7H-79.2z
		 M-108.2-2387.8c6.5-3.7,11.5-8.8,15.1-15.5c3.6-6.7,5.4-14.4,5.4-23.1c0-8.7-1.8-16.4-5.4-23.1c-3.6-6.7-8.6-11.8-15.1-15.5
		c-6.5-3.7-13.8-5.5-21.9-5.5c-8.3,0-15.7,1.8-22,5.5c-6.4,3.7-11.4,8.8-15,15.5c-3.6,6.7-5.4,14.4-5.4,23.1
		c0,8.7,1.8,16.4,5.4,23.1c3.6,6.7,8.6,11.8,15,15.5c6.4,3.7,13.7,5.5,22,5.5C-122-2382.3-114.7-2384.1-108.2-2387.8z"/>
	<path class="st3" d="M18-2472.3l-3.9,7.3c-5-3-10.7-4.5-16.9-4.5c-6.3,0-12,1.8-17.2,5.5c-5.2,3.7-9.4,8.7-12.3,15.1
		c-3,6.4-4.5,13.4-4.5,21v51.8h-8.6v-100.8h8.2v22.5c3.5-7.3,8.3-13.1,14.4-17.2c6.1-4.1,12.8-6.2,20.3-6.2
		C5.4-2477.8,12.3-2476,18-2472.3z"/>
	<g>
		<path class="st5" d="M-33-4597c0,1.4,0,2.8-0.1,4.2c-1.9,82.7-57.9,152-133.9,173.9c-16.3,4.7-33.5,7.2-51.3,7.2
			c-0.3,0-0.6,0-0.9,0l-101.5,98.8l-5.1,4.9c-7.4,7.2-17,11.6-27.2,12.6c-0.3,0-0.7,0.1-1,0.1c-0.4,0-0.7,0.1-1.1,0.1
			c-0.3,0-0.6,0-1,0c-0.4,0-0.7,0-1.1,0h-0.3c-0.5,0-1,0-1.4,0c-24.7-0.9-44.5-21.1-44.8-46c-0.2-1.8-0.3-3.6-0.3-5.4V-4595
			c34.2,23.6,75.4,36.9,118.3,36.9c16.7,0,33.7-2,50.7-6.2c25-6.2,47.9-16.8,67.9-30.6c43.6-30.1,74.1-75.8,85.5-127.1
			c13.4,14.6,24.4,31.4,32.6,49.7C-38.7-4649.3-33-4623.8-33-4597z"/>
		<path class="st9" d="M-146.5-4767.9c0.2,26.3-7.1,51.7-20.4,73.4c-18.3,30-48,53.1-84.9,62.3c-51,12.7-102.4-4.5-135.6-40.6
			c-6.1-6.6-11.6-13.8-16.4-21.6v-37c0-28.1,22.8-50.9,50.9-50.9h134.7c17.8,0,35,2.5,51.3,7.2c4.4,1.3,8.8,2.7,13.1,4.3h0
			C-151.4-4769.9-148.9-4768.9-146.5-4767.9z"/>
	</g>
	<g>
		<path class="st5" d="M-3430.9-3990.1c0,2.1,0,4.2-0.1,6.3c-2.7,122.8-85.9,225.8-199,258.3c-24.2,7-49.8,10.7-76.2,10.7
			c-0.4,0-0.8,0-1.3,0l-150.8,146.7l-7.5,7.3c-11,10.7-25.3,17.2-40.4,18.7c-0.5,0-1,0.1-1.5,0.1c-0.5,0-1.1,0.1-1.6,0.1
			c-0.5,0-0.9,0-1.4,0c-0.5,0-1.1,0-1.6,0h-0.5c-0.7,0-1.4,0-2.1-0.1c-36.7-1.3-66.1-31.3-66.5-68.3c-0.3-2.7-0.5-5.4-0.5-8.1
			v-368.8c50.9,35,112,54.8,175.7,54.8c24.8,0,50.1-3,75.3-9.3c37.2-9.3,71.1-24.9,100.9-45.4c64.8-44.7,110.1-112.5,127-188.8
			c19.8,21.7,36.3,46.6,48.4,73.8C-3439.4-4067.8-3430.9-4030-3430.9-3990.1z"/>
		<path class="st9" d="M-3599.6-4244c0.3,39.1-10.6,76.8-30.3,109.1c-27.2,44.6-71.3,78.9-126,92.5c-75.7,18.9-152.1-6.7-201.5-60.3
			c-9.1-9.8-17.2-20.6-24.3-32.2v-55c0-41.7,33.8-75.6,75.6-75.6h200c26.5,0,52,3.7,76.3,10.7c6.6,1.9,13.1,4,19.5,6.4h0
			C-3606.8-4247-3603.2-4245.5-3599.6-4244z"/>
	</g>
	<g>
		<path class="st5" d="M1008.4-2500.2c0,1.2,0,2.3,0,3.5c-1.5,68.6-48,126.2-111.2,144.4c-13.5,3.9-27.8,6-42.6,6
			c-0.2,0-0.5,0-0.7,0l-84.3,82l-4.2,4.1c-6.1,6-14.1,9.6-22.6,10.4c-0.3,0-0.5,0-0.8,0.1c-0.3,0-0.6,0-0.9,0.1c-0.3,0-0.5,0-0.8,0
			c-0.3,0-0.6,0-0.9,0h-0.3c-0.4,0-0.8,0-1.2,0c-20.5-0.7-36.9-17.5-37.2-38.2c-0.2-1.5-0.3-3-0.3-4.5v-206.1
			c28.4,19.6,62.6,30.6,98.2,30.6c13.9,0,28-1.7,42.1-5.2c20.8-5.2,39.8-13.9,56.4-25.4c36.2-25,61.6-62.9,71-105.5
			c11.1,12.1,20.3,26,27,41.3C1003.7-2543.7,1008.4-2522.5,1008.4-2500.2z"/>
		<path class="st9" d="M914.1-2642.1c0.2,21.9-5.9,42.9-16.9,61c-15.2,24.9-39.9,44.1-70.5,51.7c-42.3,10.5-85-3.8-112.6-33.7
			c-5.1-5.5-9.6-11.5-13.6-18v-30.8c0-23.3,18.9-42.2,42.2-42.2h111.8c14.8,0,29.1,2.1,42.6,6c3.7,1.1,7.3,2.3,10.9,3.6h0
			C910.1-2643.8,912.1-2643,914.1-2642.1z"/>
	</g>
	<path class="st2" d="M-1245-2468.9c0,0.9,0,1.8,0,2.8c-1.2,53.9-37.7,99-87.3,113.3c-10.6,3.1-21.8,4.7-33.4,4.7
		c-0.2,0-0.4,0-0.6,0l-66.1,64.3l-3.3,3.2c-4.8,4.7-11.1,7.6-17.7,8.2c-0.2,0-0.4,0-0.6,0.1c-0.2,0-0.5,0-0.7,0c-0.2,0-0.4,0-0.6,0
		c-0.2,0-0.5,0-0.7,0h-0.2c-0.3,0-0.6,0-0.9,0c-16.1-0.6-29-13.7-29.2-30c-0.1-1.2-0.2-2.4-0.2-3.6v-161.7c22.3,15.4,49.1,24,77,24
		c10.9,0,22-1.3,33-4.1c16.3-4.1,31.2-10.9,44.3-19.9c28.4-19.6,48.3-49.4,55.7-82.8c8.7,9.5,15.9,20.4,21.2,32.4
		C-1248.7-2503-1245-2486.3-1245-2468.9z"/>
	<path class="st9" d="M-1319-2580.2c0.1,17.2-4.6,33.7-13.3,47.8c-11.9,19.5-31.3,34.6-55.3,40.6c-33.2,8.3-66.7-3-88.4-26.4
		c-4-4.3-7.6-9-10.7-14.1v-24.1c0-18.3,14.8-33.1,33.1-33.1h87.7c11.6,0,22.8,1.6,33.4,4.7c2.9,0.8,5.7,1.8,8.5,2.8h0
		C-1322.2-2581.5-1320.6-2580.9-1319-2580.2z"/>
	<path class="st7" d="M-947.1-4185.8c12.8,6.4,22.6,15.7,29.6,27.7c7,12,10.4,26,10.4,42.1c0,16-3.5,30-10.4,42.1
		c-7,12-16.8,21.2-29.6,27.7c-12.8,6.4-27.7,9.6-44.8,9.6h-54.1v62.6h-51.9v-221.4h106C-974.8-4195.5-959.9-4192.2-947.1-4185.8z
		 M-968.3-4091.1c6.4-6.1,9.6-14.3,9.6-24.7c0-10.3-3.2-18.6-9.6-24.7c-6.4-6.1-15.1-9.2-26.1-9.2h-51.9v67.7h51.9
		C-983.5-4081.9-974.8-4085-968.3-4091.1z"/>
	<path class="st7" d="M-722.4-4130.3v156.3h-43l-3.2-18.7c-13.3,14.6-30.6,21.8-51.9,21.8c-14.5,0-27.5-3.4-38.7-10.3
		c-11.3-6.8-20.1-16.4-26.4-28.8c-6.3-12.3-9.5-26.4-9.5-42.2c0-15.8,3.2-29.9,9.5-42.2c6.3-12.3,15.1-21.9,26.4-28.8
		c11.3-6.8,24.2-10.3,38.7-10.3c10.5,0,20.2,1.8,29.1,5.5c8.9,3.7,16.4,9,22.8,16l3.2-18.3H-722.4z M-781.9-4023.5
		c7-7.3,10.4-16.8,10.4-28.6c0-11.8-3.5-21.3-10.4-28.6c-7-7.3-15.9-10.9-26.9-10.9c-11,0-19.9,3.7-26.7,11.1
		c-6.9,7.4-10.3,16.9-10.3,28.5c0,11.6,3.4,21.1,10.3,28.5c6.8,7.4,15.8,11.1,26.7,11.1C-797.8-4012.6-788.8-4016.3-781.9-4023.5z"
		/>
	<path class="st8" d="M-681.1-4153.4c-5.4-5.1-8.1-11.5-8.1-19.3c0-8,2.7-14.5,8.2-19.6c5.5-5.1,12.4-7.6,20.9-7.6
		c8.4,0,15.4,2.5,20.9,7.6c5.5,5.1,8.2,11.6,8.2,19.6c0,7.8-2.7,14.2-8.1,19.3c-5.4,5.1-12.4,7.6-21,7.6
		C-668.7-4145.8-675.8-4148.3-681.1-4153.4z"/>
	<rect x="-685.1" y="-4130.3" class="st7" width="49.7" height="156.3"/>
	<path class="st7" d="M-609.5-3990.8l19-34.2c7.6,4.6,16.4,8.2,26.4,10.8c10,2.5,20,3.8,29.9,3.8c13.7,0,20.6-3.7,20.6-11.1
		c0-3.8-1.9-6.6-5.7-8.5c-3.8-1.9-10.1-3.2-19-3.8c-19.8-1.1-35.6-6-47.3-14.9c-11.7-8.9-17.6-20.5-17.6-34.8c0-15.6,6.3-28,19-37.2
		c12.7-9.2,29.7-13.8,51.2-13.8c12.2,0,23.9,1.5,35,4.4c11.1,3,20.6,7.1,28.6,12.3l-19.3,33.2c-11.8-6.7-25.8-10.1-42.1-10.1
		c-16,0-24,3.8-24,11.4c0,3.2,1.6,5.6,4.9,7.3c3.3,1.7,8.8,3,16.6,3.8c22.3,1.7,39.4,6.8,51.1,15.2c11.7,8.4,17.6,20.2,17.6,35.4
		c0,16-6.4,28.6-19.3,37.8c-12.9,9.2-30.7,13.8-53.5,13.8C-565-3969.9-589-3976.9-609.5-3990.8z"/>
	<path class="st7" d="M-276.4-4130.3v156.3h-43l-3.2-18.7c-13.3,14.6-30.6,21.8-51.9,21.8c-14.5,0-27.5-3.4-38.7-10.3
		c-11.3-6.8-20.1-16.4-26.4-28.8c-6.3-12.3-9.5-26.4-9.5-42.2c0-15.8,3.2-29.9,9.5-42.2c6.3-12.3,15.1-21.9,26.4-28.8
		c11.3-6.8,24.2-10.3,38.7-10.3c10.5,0,20.2,1.8,29.1,5.5c8.9,3.7,16.4,9,22.8,16l3.2-18.3H-276.4z M-335.9-4023.5
		c7-7.3,10.4-16.8,10.4-28.6c0-11.8-3.5-21.3-10.4-28.6c-7-7.3-15.9-10.9-26.9-10.9c-11,0-19.9,3.7-26.7,11.1
		c-6.9,7.4-10.3,16.9-10.3,28.5c0,11.6,3.4,21.1,10.3,28.5c6.9,7.4,15.8,11.1,26.7,11.1C-351.8-4012.6-342.8-4016.3-335.9-4023.5z"
		/>
	<path class="st7" d="M-186.9-3981.6c-13.1-7.4-23.2-17.8-30.5-31.2c-7.3-13.4-10.9-28.7-10.9-46v-136.6h13.9v136.6
		c0,14.8,3.1,27.8,9.2,39.1c6.1,11.3,14.7,20.1,25.6,26.4c11,6.3,23.5,9.5,37.6,9.5c14.1,0,26.7-3.2,37.6-9.5
		c11-6.3,19.5-15.1,25.6-26.4c6.1-11.3,9.2-24.3,9.2-39.1v-136.6h13.9v136.6c0,17.3-3.6,32.6-10.9,46c-7.3,13.4-17.5,23.8-30.5,31.2
		c-13.1,7.4-28,11.1-44.9,11.1C-158.9-3970.6-173.8-3974.2-186.9-3981.6z"/>
	<path class="st7" d="M143.9-4195.5v221.4h-12.7l-0.3-34.5c-5.9,11.4-14.8,20.4-26.7,27c-11.9,6.6-25.4,10-40.3,10
		c-15,0-28.4-3.4-40.3-10.3c-11.9-6.9-21.2-16.4-27.8-28.6c-6.6-12.2-10-26.1-10-41.8c0-15.6,3.3-29.5,10-41.8
		c6.6-12.2,15.9-21.8,27.8-28.6c11.9-6.9,25.4-10.3,40.3-10.3c15,0,28.4,3.3,40.2,9.8c11.8,6.5,20.7,15.5,26.6,26.9v-99.3H143.9z
		 M98.9-3992.4c10-5.7,17.8-13.7,23.4-24c5.6-10.3,8.4-22.2,8.4-35.7c0-13.5-2.8-25.4-8.4-35.7c-5.6-10.3-13.4-18.3-23.4-24
		c-10-5.7-21.4-8.5-34-8.5c-12.9,0-24.3,2.8-34.2,8.5c-9.9,5.7-17.7,13.7-23.2,24c-5.6,10.3-8.4,22.3-8.4,35.7
		c0,13.5,2.8,25.4,8.4,35.7c5.6,10.3,13.3,18.3,23.2,24c9.9,5.7,21.3,8.5,34.2,8.5C77.5-3983.8,88.8-3986.7,98.9-3992.4z"/>
	<path class="st7" d="M319-4114.5c11.7,12,17.6,28.8,17.6,50.3v90.1h-13.3v-89.5c0-18.1-4.6-32.1-13.9-41.8
		c-9.3-9.7-22.5-14.5-39.5-14.5c-11.6,0-22,2.6-31.2,7.7c-9.2,5.2-16.3,12.2-21.4,21.2c-5.1,9-7.6,18.9-7.6,29.9v87h-13.3v-221.4
		h13.3v95.5c6.1-10.1,14.5-18.1,25.1-23.9c10.6-5.8,22.5-8.7,35.6-8.7C291.1-4132.5,307.3-4126.5,319-4114.5z"/>
	<path class="st7" d="M534.6-4130.3v156.3h-12.7l-0.3-34.8c-5.9,11.6-14.8,20.7-26.7,27.4c-11.9,6.6-25.4,10-40.3,10
		c-15.2,0-28.7-3.4-40.5-10.3c-11.8-6.9-21-16.4-27.7-28.6c-6.6-12.2-10-26.1-10-41.8c0-15.6,3.3-29.5,10-41.8
		c6.6-12.2,15.9-21.8,27.7-28.6c11.8-6.9,25.3-10.3,40.5-10.3c15,0,28.4,3.4,40.3,10.1c11.9,6.8,20.8,15.9,26.7,27.5l0.3-35.1H534.6
		z M489.5-3992.4c10-5.7,17.8-13.7,23.4-24c5.6-10.3,8.4-22.2,8.4-35.7c0-13.5-2.8-25.4-8.4-35.7c-5.6-10.3-13.4-18.3-23.4-24
		c-10-5.7-21.4-8.5-34-8.5c-12.9,0-24.3,2.8-34.2,8.5c-9.9,5.7-17.7,13.7-23.2,24c-5.6,10.3-8.4,22.3-8.4,35.7
		c0,13.5,2.8,25.4,8.4,35.7c5.6,10.3,13.3,18.3,23.2,24c9.9,5.7,21.3,8.5,34.2,8.5C468.1-3983.8,479.5-3986.7,489.5-3992.4z"/>
	<path class="st7" d="M685.1-4123.3l-6,11.4c-7.8-4.6-16.6-7-26.3-7c-9.7,0-18.6,2.8-26.7,8.5c-8.1,5.7-14.5,13.5-19.1,23.4
		c-4.6,9.9-7,20.8-7,32.6v80.3h-13.3v-156.3h12.7v34.8c5.5-11.4,12.9-20.3,22.3-26.7c9.4-6.4,19.9-9.6,31.5-9.6
		C665.6-4131.9,676.3-4129,685.1-4123.3z"/>
</g>
<g>
	<path class="st3" d="M-8428.4-3973.8c19.1,9.6,33.8,23.4,44.2,41.3c10.4,18,15.6,38.9,15.6,62.8c0,23.9-5.2,44.9-15.6,62.8
		c-10.4,18-25.1,31.7-44.2,41.3c-19.1,9.6-41.3,14.4-66.9,14.4h-80.8v93.5h-77.5v-330.7h158.3
		C-8469.8-3988.2-8447.5-3983.4-8428.4-3973.8z M-8460.1-3832.3c9.6-9.1,14.4-21.4,14.4-36.9c0-15.4-4.8-27.7-14.4-36.9
		c-9.6-9.1-22.6-13.7-39-13.7h-77.5v101.1h77.5C-8482.7-3818.6-8469.7-3823.2-8460.1-3832.3z"/>
	<path class="st3" d="M-8092.7-3890.9v233.4h-64.3l-4.7-27.9c-19.8,21.7-45.7,32.6-77.5,32.6c-21.7,0-41-5.1-57.9-15.4
		c-16.9-10.2-30-24.6-39.5-43c-9.4-18.4-14.2-39.5-14.2-63.1c0-23.6,4.7-44.6,14.2-63.1c9.4-18.4,22.6-32.8,39.5-43
		c16.8-10.2,36.1-15.4,57.9-15.4c15.7,0,30.2,2.8,43.5,8.3c13.2,5.5,24.6,13.5,34,23.9l4.7-27.4H-8092.7z M-8181.6-3731.4
		c10.4-10.9,15.6-25.1,15.6-42.8c0-17.6-5.2-31.9-15.6-42.8c-10.4-10.9-23.8-16.3-40.2-16.3c-16.4,0-29.7,5.5-39.9,16.5
		c-10.2,11-15.4,25.2-15.4,42.5c0,17.3,5.1,31.5,15.4,42.5c10.2,11,23.5,16.5,39.9,16.5C-8205.4-3715.1-8192-3720.6-8181.6-3731.4z"
		/>
	<path class="st3" d="M-8031.1-3925.4c-8-7.6-12-17.2-12-28.8c0-12,4.1-21.7,12.3-29.3c8.2-7.6,18.6-11.3,31.2-11.3
		c12.6,0,23,3.8,31.2,11.3c8.2,7.6,12.3,17.3,12.3,29.3c0,11.7-4,21.3-12,28.8s-18.5,11.3-31.4,11.3
		C-8012.6-3914-8023.1-3917.8-8031.1-3925.4z M-8037-3890.9h74.2v233.4h-74.2V-3890.9z"/>
	<path class="st3" d="M-7924.1-3682.5l28.3-51c11.3,6.9,24.5,12.3,39.5,16.1c15,3.8,29.8,5.7,44.6,5.7c20.5,0,30.7-5.5,30.7-16.5
		c0-5.7-2.8-9.9-8.5-12.8c-5.7-2.8-15.1-4.7-28.3-5.7c-29.6-1.6-53.2-9-70.6-22.2c-17.5-13.2-26.2-30.5-26.2-52
		c0-23.3,9.4-41.8,28.3-55.5c18.9-13.7,44.4-20.6,76.5-20.6c18.3,0,35.7,2.2,52.2,6.6c16.5,4.4,30.8,10.6,42.8,18.4l-28.8,49.6
		c-17.6-10.1-38.6-15.1-62.8-15.1c-23.9,0-35.9,5.7-35.9,17c0,4.7,2.4,8.3,7.3,10.9c4.9,2.5,13.1,4.4,24.8,5.7
		c33.4,2.5,58.8,10.1,76.3,22.7c17.5,12.6,26.2,30.2,26.2,52.9c0,23.9-9.6,42.8-28.8,56.5c-19.2,13.7-45.8,20.6-79.8,20.6
		C-7857.6-3651.3-7893.5-3661.7-7924.1-3682.5z"/>
	<path class="st3" d="M-7426.6-3890.9v233.4h-64.3l-4.7-27.9c-19.8,21.7-45.7,32.6-77.5,32.6c-21.7,0-41-5.1-57.9-15.4
		c-16.9-10.2-30-24.6-39.5-43c-9.4-18.4-14.2-39.5-14.2-63.1c0-23.6,4.7-44.6,14.2-63.1c9.4-18.4,22.6-32.8,39.5-43
		c16.8-10.2,36.1-15.4,57.9-15.4c15.7,0,30.2,2.8,43.5,8.3c13.2,5.5,24.6,13.5,34,23.9l4.7-27.4H-7426.6z M-7515.4-3731.4
		c10.4-10.9,15.6-25.1,15.6-42.8c0-17.6-5.2-31.9-15.6-42.8c-10.4-10.9-23.8-16.3-40.2-16.3c-16.4,0-29.7,5.5-39.9,16.5
		c-10.2,11-15.4,25.2-15.4,42.5c0,17.3,5.1,31.5,15.4,42.5c10.2,11,23.5,16.5,39.9,16.5C-7539.2-3715.1-7525.8-3720.6-7515.4-3731.4
		z"/>
	<path class="st3" d="M-7292.9-3668.8c-19.5-11-34.7-26.5-45.6-46.5c-10.9-20-16.3-42.9-16.3-68.7v-204.1h20.8v204.1
		c0,22.1,4.6,41.5,13.7,58.3c9.1,16.9,21.9,30,38.3,39.5c16.4,9.4,35.1,14.2,56.2,14.2c21.1,0,39.8-4.7,56.2-14.2
		c16.4-9.4,29.1-22.6,38.3-39.5c9.1-16.8,13.7-36.3,13.7-58.3v-204.1h20.8v204.1c0,25.8-5.4,48.7-16.3,68.7
		c-10.9,20-26.1,35.5-45.6,46.5c-19.5,11-41.9,16.5-67.1,16.5C-7251-3652.3-7273.3-3657.8-7292.9-3668.8z"/>
	<path class="st3" d="M-6798.7-3988.2v330.7h-18.9l-0.5-51.5c-8.8,17-22.1,30.5-39.9,40.4c-17.8,9.9-37.9,14.9-60.2,14.9
		c-22.4,0-42.4-5.1-60.2-15.4c-17.8-10.2-31.7-24.5-41.6-42.8c-9.9-18.3-14.9-39.1-14.9-62.4c0-23.3,5-44.1,14.9-62.4
		c9.9-18.3,23.8-32.5,41.6-42.8c17.8-10.2,37.9-15.4,60.2-15.4c22.4,0,42.4,4.9,60,14.6c17.6,9.8,30.9,23.2,39.7,40.2v-148.4
		H-6798.7z M-6866-3684.9c15-8.5,26.6-20.5,35-35.9c8.3-15.4,12.5-33.2,12.5-53.4c0-20.2-4.2-38-12.5-53.4
		c-8.3-15.4-20-27.4-35-35.9c-15-8.5-31.9-12.8-50.8-12.8c-19.2,0-36.2,4.3-51,12.8c-14.8,8.5-26.4,20.5-34.7,35.9
		c-8.3,15.4-12.5,33.2-12.5,53.4c0,20.2,4.2,38,12.5,53.4c8.3,15.4,19.9,27.4,34.7,35.9c14.8,8.5,31.8,12.8,51,12.8
		C-6897.9-3672.1-6881-3676.4-6866-3684.9z"/>
	<path class="st3" d="M-6537.2-3867.3c17.5,18,26.2,43,26.2,75.1v134.7h-19.8v-133.7c0-27.1-6.9-47.9-20.8-62.4
		c-13.9-14.5-33.5-21.7-59.1-21.7c-17.3,0-32.8,3.9-46.5,11.6c-13.7,7.7-24.3,18.3-31.9,31.7c-7.6,13.4-11.3,28.3-11.3,44.6v129.9
		h-19.8v-330.7h19.8v142.7c9.1-15.1,21.7-27,37.6-35.7c15.9-8.7,33.6-13,53.2-13C-6578.8-3894.2-6554.6-3885.2-6537.2-3867.3z"/>
	<path class="st3" d="M-6215.2-3890.9v233.4h-18.9l-0.5-52c-8.8,17.3-22.1,30.9-39.9,40.9c-17.8,9.9-37.9,14.9-60.2,14.9
		c-22.7,0-42.8-5.1-60.5-15.4c-17.6-10.2-31.4-24.5-41.3-42.8c-9.9-18.3-14.9-39.1-14.9-62.4c0-23.3,5-44.1,14.9-62.4
		c9.9-18.3,23.7-32.5,41.3-42.8c17.6-10.2,37.8-15.4,60.5-15.4c22.4,0,42.4,5,60.2,15.1c17.8,10.1,31.1,23.8,39.9,41.1l0.5-52.4
		H-6215.2z M-6282.5-3684.9c15-8.5,26.6-20.5,35-35.9c8.3-15.4,12.5-33.2,12.5-53.4c0-20.2-4.2-38-12.5-53.4
		c-8.3-15.4-20-27.4-35-35.9c-15-8.5-31.9-12.8-50.8-12.8c-19.2,0-36.2,4.3-51,12.8c-14.8,8.5-26.4,20.5-34.7,35.9
		c-8.3,15.4-12.5,33.2-12.5,53.4c0,20.2,4.2,38,12.5,53.4c8.3,15.4,19.9,27.4,34.7,35.9c14.8,8.5,31.8,12.8,51,12.8
		C-6314.4-3672.1-6297.5-3676.4-6282.5-3684.9z"/>
	<path class="st3" d="M-5990.3-3880.5l-9,17c-11.7-6.9-24.7-10.4-39.2-10.4c-14.5,0-27.8,4.3-39.9,12.8c-12.1,8.5-21.7,20.2-28.6,35
		c-6.9,14.8-10.4,31-10.4,48.7v120h-19.8v-233.4h18.9v52c8.2-17,19.3-30.3,33.3-39.9c14-9.6,29.7-14.4,47-14.4
		C-6019.4-3893.2-6003.5-3889-5990.3-3880.5z"/>
</g>
<g>
</g>
<g>
</g>
<g>
</g>
<g>
</g>
<g>
</g>
<g>
</g>
</svg>
