<?xml version="1.0" encoding="utf-8"?>
<!-- Generator: Adobe Illustrator 25.2.1, SVG Export Plug-In . SVG Version: 6.00 Build 0)  -->
<svg version="1.1" id="Layer_1" xmlns="http://www.w3.org/2000/svg" xmlns:xlink="http://www.w3.org/1999/xlink" x="0px" y="0px"
	 viewBox="0 0 1915.3 419.4" style="enable-background:new 0 0 1915.3 419.4;" xml:space="preserve">
<style type="text/css">
	.st0{fill-rule:evenodd;clip-rule:evenodd;fill:#161922;}
	.st1{fill:#2874ED;}
	.st2{fill-rule:evenodd;clip-rule:evenodd;fill:#FFFFFF;}
	.st3{fill:#FFFFFF;}
	.st4{fill:#60F0A1;}
	.st5{fill-rule:evenodd;clip-rule:evenodd;fill:#2874ED;}
	.st6{fill-rule:evenodd;clip-rule:evenodd;fill:#60F0A1;}
	.st7{fill:#161922;}
	.st8{fill:#FFD63A;}
	.st9{fill-rule:evenodd;clip-rule:evenodd;fill:#FFD63A;}
	.st10{display:none;}
	.st11{display:inline;fill-rule:evenodd;clip-rule:evenodd;fill:#FFFFFF;}
	.st12{display:inline;fill-rule:evenodd;clip-rule:evenodd;fill:#FFD63A;}
	.st13{display:inline;fill:#FFFFFF;}
	.st14{display:inline;fill:#FFD63A;}
</style>
<rect x="-4597.7" y="-8489.7" class="st0" width="3500" height="3500"/>
<rect x="-1097.7" y="-6268.4" class="st1" width="3500" height="1278.7"/>
<rect x="-1097.7" y="-8489.7" class="st2" width="3500" height="2221.3"/>
<g>
	<path class="st2" d="M1383.7-5829.8v413.4c0,67.5,55.2,122.7,122.7,122.7h413.4c67.5,0,122.7-55.2,122.7-122.7v-413.4
		c0-67.5-55.2-122.7-122.7-122.7h-413.4C1438.9-5952.5,1383.7-5897.3,1383.7-5829.8"/>
	<path class="st3" d="M-3954.2-6543.2c19.1,9.6,33.8,23.4,44.2,41.3c10.4,18,15.6,38.9,15.6,62.8c0,23.9-5.2,44.9-15.6,62.8
		c-10.4,18-25.1,31.7-44.2,41.3c-19.1,9.6-41.3,14.4-66.9,14.4h-80.8v93.5h-77.5v-330.7h158.3
		C-3995.5-6557.7-3973.3-6552.9-3954.2-6543.2z M-3985.9-6401.7c9.6-9.1,14.4-21.4,14.4-36.9c0-15.4-4.8-27.7-14.4-36.9
		c-9.6-9.1-22.6-13.7-39-13.7h-77.5v101.1h77.5C-4008.5-6388-3995.5-6392.6-3985.9-6401.7z"/>
	<path class="st3" d="M-3618.5-6460.3v233.4h-64.3l-4.7-27.9c-19.8,21.7-45.7,32.6-77.5,32.6c-21.7,0-41-5.1-57.9-15.4
		c-16.9-10.2-30-24.6-39.5-43c-9.4-18.4-14.2-39.5-14.2-63.1c0-23.6,4.7-44.6,14.2-63.1c9.4-18.4,22.6-32.8,39.5-43
		c16.8-10.2,36.1-15.4,57.9-15.4c15.7,0,30.2,2.8,43.5,8.3c13.2,5.5,24.6,13.5,34,23.9l4.7-27.4H-3618.5z M-3707.3-6300.9
		c10.4-10.9,15.6-25.1,15.6-42.8c0-17.6-5.2-31.9-15.6-42.8c-10.4-10.9-23.8-16.3-40.2-16.3c-16.4,0-29.7,5.5-39.9,16.5
		c-10.2,11-15.4,25.2-15.4,42.5c0,17.3,5.1,31.5,15.4,42.5c10.2,11,23.5,16.5,39.9,16.5C-3731.1-6284.6-3717.7-6290-3707.3-6300.9z"
		/>
	<path class="st4" d="M-3556.9-6494.8c-8-7.6-12-17.2-12-28.8c0-12,4.1-21.7,12.3-29.3c8.2-7.6,18.6-11.3,31.2-11.3
		c12.6,0,23,3.8,31.2,11.3c8.2,7.6,12.3,17.3,12.3,29.3c0,11.7-4,21.3-12,28.8s-18.5,11.3-31.4,11.3
		C-3538.4-6483.5-3548.8-6487.3-3556.9-6494.8z"/>
	<rect x="-3562.8" y="-6460.3" class="st3" width="74.2" height="233.4"/>
	<path class="st3" d="M-3449.9-6252l28.3-51c11.3,6.9,24.5,12.3,39.5,16.1c15,3.8,29.8,5.7,44.6,5.7c20.5,0,30.7-5.5,30.7-16.5
		c0-5.7-2.8-9.9-8.5-12.8c-5.7-2.8-15.1-4.7-28.3-5.7c-29.6-1.6-53.2-9-70.6-22.2c-17.5-13.2-26.2-30.5-26.2-52
		c0-23.3,9.4-41.8,28.3-55.5c18.9-13.7,44.4-20.6,76.5-20.6c18.3,0,35.7,2.2,52.2,6.6c16.5,4.4,30.8,10.6,42.8,18.4l-28.8,49.6
		c-17.6-10.1-38.6-15.1-62.8-15.1c-23.9,0-35.9,5.7-35.9,17c0,4.7,2.4,8.3,7.3,10.9c4.9,2.5,13.1,4.4,24.8,5.7
		c33.4,2.5,58.8,10.1,76.3,22.7c17.5,12.6,26.2,30.2,26.2,52.9c0,23.9-9.6,42.8-28.8,56.5c-19.2,13.7-45.8,20.6-79.8,20.6
		C-3383.4-6220.8-3419.3-6231.2-3449.9-6252z"/>
	<path class="st3" d="M-2952.3-6460.3v233.4h-64.3l-4.7-27.9c-19.8,21.7-45.7,32.6-77.5,32.6c-21.7,0-41-5.1-57.9-15.4
		c-16.9-10.2-30-24.6-39.5-43c-9.4-18.4-14.2-39.5-14.2-63.1c0-23.6,4.7-44.6,14.2-63.1c9.4-18.4,22.6-32.8,39.5-43
		c16.8-10.2,36.1-15.4,57.9-15.4c15.7,0,30.2,2.8,43.5,8.3c13.2,5.5,24.6,13.5,34,23.9l4.7-27.4H-2952.3z M-3041.2-6300.9
		c10.4-10.9,15.6-25.1,15.6-42.8c0-17.6-5.2-31.9-15.6-42.8c-10.4-10.9-23.8-16.3-40.2-16.3c-16.4,0-29.7,5.5-39.9,16.5
		c-10.2,11-15.4,25.2-15.4,42.5c0,17.3,5.1,31.5,15.4,42.5c10.2,11,23.5,16.5,39.9,16.5C-3065-6284.6-3051.6-6290-3041.2-6300.9z"/>
	<path class="st3" d="M-2818.6-6238.3c-19.5-11-34.7-26.5-45.6-46.5c-10.9-20-16.3-42.9-16.3-68.7v-204.1h20.8v204.1
		c0,22.1,4.6,41.5,13.7,58.3c9.1,16.9,21.9,30,38.3,39.5c16.4,9.4,35.1,14.2,56.2,14.2c21.1,0,39.8-4.7,56.2-14.2
		c16.4-9.4,29.1-22.6,38.3-39.5c9.1-16.8,13.7-36.3,13.7-58.3v-204.1h20.8v204.1c0,25.8-5.4,48.7-16.3,68.7
		c-10.9,20-26.1,35.5-45.6,46.5c-19.5,11-41.9,16.5-67.1,16.5C-2776.8-6221.7-2799.1-6227.2-2818.6-6238.3z"/>
	<path class="st3" d="M-2324.4-6557.7v330.7h-18.9l-0.5-51.5c-8.8,17-22.1,30.5-39.9,40.4c-17.8,9.9-37.9,14.9-60.2,14.9
		c-22.4,0-42.4-5.1-60.2-15.4c-17.8-10.2-31.7-24.5-41.6-42.8c-9.9-18.3-14.9-39.1-14.9-62.4c0-23.3,5-44.1,14.9-62.4
		c9.9-18.3,23.8-32.5,41.6-42.8c17.8-10.2,37.9-15.4,60.2-15.4c22.4,0,42.4,4.9,60,14.6c17.6,9.8,30.9,23.2,39.7,40.2v-148.4
		H-2324.4z M-2391.8-6254.3c15-8.5,26.6-20.5,35-35.9c8.3-15.4,12.5-33.2,12.5-53.4c0-20.2-4.2-38-12.5-53.4
		c-8.3-15.4-20-27.4-35-35.9c-15-8.5-31.9-12.8-50.8-12.8c-19.2,0-36.2,4.3-51,12.8c-14.8,8.5-26.4,20.5-34.7,35.9
		c-8.3,15.4-12.5,33.2-12.5,53.4c0,20.2,4.2,38,12.5,53.4c8.3,15.4,19.9,27.4,34.7,35.9c14.8,8.5,31.8,12.8,51,12.8
		C-2423.7-6241.6-2406.7-6245.8-2391.8-6254.3z"/>
	<path class="st3" d="M-2062.9-6436.7c17.5,18,26.2,43,26.2,75.1v134.7h-19.8v-133.7c0-27.1-6.9-47.9-20.8-62.4
		c-13.9-14.5-33.5-21.7-59.1-21.7c-17.3,0-32.8,3.9-46.5,11.6c-13.7,7.7-24.3,18.3-31.9,31.7c-7.6,13.4-11.3,28.3-11.3,44.6v129.9
		h-19.8v-330.7h19.8v142.7c9.1-15.1,21.7-27,37.6-35.7c15.9-8.7,33.6-13,53.2-13C-2104.6-6463.6-2080.4-6454.7-2062.9-6436.7z"/>
	<path class="st3" d="M-1741-6460.3v233.4h-18.9l-0.5-52c-8.8,17.3-22.1,30.9-39.9,40.9c-17.8,9.9-37.9,14.9-60.2,14.9
		c-22.7,0-42.8-5.1-60.5-15.4c-17.6-10.2-31.4-24.5-41.3-42.8c-9.9-18.3-14.9-39.1-14.9-62.4c0-23.3,5-44.1,14.9-62.4
		c9.9-18.3,23.7-32.5,41.3-42.8c17.6-10.2,37.8-15.4,60.5-15.4c22.4,0,42.4,5,60.2,15.1c17.8,10.1,31.1,23.8,39.9,41.1l0.5-52.4
		H-1741z M-1808.3-6254.3c15-8.5,26.6-20.5,35-35.9c8.3-15.4,12.5-33.2,12.5-53.4c0-20.2-4.2-38-12.5-53.4
		c-8.3-15.4-20-27.4-35-35.9c-15-8.5-31.9-12.8-50.8-12.8c-19.2,0-36.2,4.3-51,12.8c-14.8,8.5-26.4,20.5-34.7,35.9
		c-8.3,15.4-12.5,33.2-12.5,53.4c0,20.2,4.2,38,12.5,53.4c8.3,15.4,19.9,27.4,34.7,35.9c14.8,8.5,31.8,12.8,51,12.8
		C-1840.2-6241.6-1823.2-6245.8-1808.3-6254.3z"/>
	<path class="st3" d="M-1516.1-6449.9l-9,17c-11.7-6.9-24.7-10.4-39.2-10.4c-14.5,0-27.8,4.3-39.9,12.8c-12.1,8.5-21.7,20.2-28.6,35
		c-6.9,14.8-10.4,31-10.4,48.7v120h-19.8v-233.4h18.9v52c8.2-17,19.3-30.3,33.3-39.9c14-9.6,29.7-14.4,47-14.4
		C-1545.2-6462.7-1529.3-6458.4-1516.1-6449.9z"/>
	<path class="st3" d="M-176.7-5683.8c8.2,4.2,14.6,10.1,19.1,17.9c4.5,7.8,6.7,16.8,6.7,27.1c0,10.3-2.2,19.4-6.7,27.1
		c-4.5,7.8-10.9,13.7-19.1,17.9c-8.2,4.2-17.9,6.2-28.9,6.2h-34.9v40.4h-33.5v-142.9h68.4C-194.5-5690.1-184.9-5688-176.7-5683.8z
		 M-190.3-5622.7c4.1-3.9,6.2-9.3,6.2-15.9c0-6.7-2.1-12-6.2-15.9c-4.2-3.9-9.8-5.9-16.8-5.9h-33.5v43.7h33.5
		C-200.1-5616.8-194.5-5618.8-190.3-5622.7z"/>
	<path class="st3" d="M-31.6-5648v100.8h-27.8l-2-12c-8.6,9.4-19.7,14.1-33.5,14.1c-9.4,0-17.7-2.2-25-6.6c-7.3-4.4-13-10.6-17-18.6
		c-4.1-8-6.1-17-6.1-27.2c0-10.2,2-19.3,6.1-27.2c4.1-8,9.8-14.2,17-18.6c7.3-4.4,15.6-6.6,25-6.6c6.8,0,13.1,1.2,18.8,3.6
		c5.7,2.4,10.6,5.8,14.7,10.3l2-11.8H-31.6z M-70-5579.1c4.5-4.7,6.7-10.9,6.7-18.5c0-7.6-2.2-13.8-6.7-18.5c-4.5-4.7-10.3-7-17.4-7
		c-7.1,0-12.8,2.4-17.2,7.1c-4.4,4.8-6.6,10.9-6.6,18.4c0,7.5,2.2,13.6,6.6,18.4c4.4,4.8,10.2,7.1,17.2,7.1
		C-80.3-5572.1-74.5-5574.4-70-5579.1z"/>
	<path class="st4" d="M-5-5662.9c-3.5-3.3-5.2-7.4-5.2-12.5c0-5.2,1.8-9.4,5.3-12.7c3.5-3.3,8-4.9,13.5-4.9c5.4,0,9.9,1.6,13.5,4.9
		c3.5,3.3,5.3,7.5,5.3,12.7c0,5-1.7,9.2-5.2,12.5c-3.5,3.3-8,4.9-13.6,4.9C3-5658-1.5-5659.7-5-5662.9z"/>
	<rect x="-7.6" y="-5648" class="st3" width="32" height="100.8"/>
	<path class="st3" d="M41.2-5558l12.2-22c4.9,3,10.6,5.3,17,6.9c6.5,1.6,12.9,2.4,19.3,2.4c8.8,0,13.3-2.4,13.3-7.1
		c0-2.4-1.2-4.3-3.7-5.5c-2.4-1.2-6.5-2-12.2-2.4c-12.8-0.7-23-3.9-30.5-9.6c-7.6-5.7-11.3-13.2-11.3-22.5c0-10.1,4.1-18.1,12.2-24
		c8.2-5.9,19.2-8.9,33.1-8.9c7.9,0,15.4,1,22.6,2.9c7.1,1.9,13.3,4.6,18.5,8l-12.5,21.4c-7.6-4.4-16.7-6.5-27.1-6.5
		c-10.3,0-15.5,2.4-15.5,7.3c0,2,1.1,3.6,3.2,4.7c2.1,1.1,5.7,1.9,10.7,2.4c14.4,1.1,25.4,4.4,33,9.8c7.6,5.4,11.3,13.1,11.3,22.9
		c0,10.3-4.2,18.5-12.5,24.4c-8.3,5.9-19.8,8.9-34.5,8.9C69.9-5544.5,54.4-5549,41.2-5558z"/>
	<path class="st3" d="M256.2-5648v100.8h-27.8l-2-12c-8.6,9.4-19.7,14.1-33.5,14.1c-9.4,0-17.7-2.2-25-6.6c-7.3-4.4-13-10.6-17-18.6
		c-4.1-8-6.1-17-6.1-27.2c0-10.2,2-19.3,6.1-27.2c4.1-8,9.8-14.2,17-18.6c7.3-4.4,15.6-6.6,25-6.6c6.8,0,13.1,1.2,18.8,3.6
		c5.7,2.4,10.6,5.8,14.7,10.3l2-11.8H256.2z M217.8-5579.1c4.5-4.7,6.7-10.9,6.7-18.5c0-7.6-2.2-13.8-6.7-18.5
		c-4.5-4.7-10.3-7-17.4-7c-7.1,0-12.8,2.4-17.2,7.1c-4.4,4.8-6.6,10.9-6.6,18.4c0,7.5,2.2,13.6,6.6,18.4c4.4,4.8,10.2,7.1,17.2,7.1
		C207.5-5572.1,213.3-5574.4,217.8-5579.1z"/>
	<path class="st3" d="M313.9-5552.1c-8.4-4.8-15-11.5-19.7-20.1c-4.7-8.6-7-18.5-7-29.7v-88.2h9v88.2c0,9.5,2,17.9,5.9,25.2
		c3.9,7.3,9.5,13,16.5,17c7.1,4.1,15.2,6.1,24.3,6.1c9.1,0,17.2-2,24.3-6.1c7.1-4.1,12.6-9.8,16.5-17c3.9-7.3,5.9-15.7,5.9-25.2
		v-88.2h9v88.2c0,11.2-2.3,21.1-7,29.7c-4.7,8.6-11.3,15.3-19.7,20.1c-8.4,4.8-18.1,7.1-29,7.1
		C332-5544.9,322.4-5547.3,313.9-5552.1z"/>
	<path class="st3" d="M527.4-5690.1v142.9h-8.2l-0.2-22.2c-3.8,7.3-9.6,13.2-17.2,17.5c-7.7,4.3-16.4,6.4-26,6.4
		c-9.7,0-18.3-2.2-26-6.6c-7.7-4.4-13.7-10.6-18-18.5c-4.3-7.9-6.4-16.9-6.4-26.9c0-10.1,2.1-19,6.4-26.9c4.3-7.9,10.3-14,18-18.5
		c7.7-4.4,16.4-6.6,26-6.6c9.7,0,18.3,2.1,25.9,6.3c7.6,4.2,13.3,10,17.1,17.4v-64.1H527.4z M498.3-5559c6.5-3.7,11.5-8.8,15.1-15.5
		c3.6-6.7,5.4-14.4,5.4-23.1c0-8.7-1.8-16.4-5.4-23.1c-3.6-6.7-8.6-11.8-15.1-15.5c-6.5-3.7-13.8-5.5-21.9-5.5
		c-8.3,0-15.7,1.8-22,5.5c-6.4,3.7-11.4,8.8-15,15.5c-3.6,6.7-5.4,14.4-5.4,23.1c0,8.7,1.8,16.4,5.4,23.1c3.6,6.7,8.6,11.8,15,15.5
		c6.4,3.7,13.7,5.5,22,5.5C484.6-5553.5,491.9-5555.3,498.3-5559z"/>
	<path class="st3" d="M640.4-5637.8c7.6,7.8,11.3,18.6,11.3,32.5v58.2h-8.6v-57.8c0-11.7-3-20.7-9-26.9c-6-6.3-14.5-9.4-25.5-9.4
		c-7.5,0-14.2,1.7-20.1,5c-5.9,3.3-10.5,7.9-13.8,13.7c-3.3,5.8-4.9,12.2-4.9,19.3v56.1h-8.6v-142.9h8.6v61.6
		c3.9-6.5,9.4-11.7,16.2-15.4c6.9-3.7,14.5-5.6,23-5.6C622.4-5649.4,632.9-5645.6,640.4-5637.8z"/>
	<path class="st3" d="M779.5-5648v100.8h-8.2l-0.2-22.5c-3.8,7.5-9.6,13.4-17.2,17.7c-7.7,4.3-16.4,6.4-26,6.4
		c-9.8,0-18.5-2.2-26.1-6.6c-7.6-4.4-13.6-10.6-17.9-18.5c-4.3-7.9-6.4-16.9-6.4-26.9c0-10.1,2.1-19,6.4-26.9
		c4.3-7.9,10.2-14,17.9-18.5c7.6-4.4,16.3-6.6,26.1-6.6c9.7,0,18.3,2.2,26,6.5c7.7,4.4,13.4,10.3,17.2,17.8l0.2-22.7H779.5z
		 M750.4-5559c6.5-3.7,11.5-8.8,15.1-15.5c3.6-6.7,5.4-14.4,5.4-23.1c0-8.7-1.8-16.4-5.4-23.1c-3.6-6.7-8.6-11.8-15.1-15.5
		c-6.5-3.7-13.8-5.5-21.9-5.5c-8.3,0-15.7,1.8-22,5.5c-6.4,3.7-11.4,8.8-15,15.5c-3.6,6.7-5.4,14.4-5.4,23.1
		c0,8.7,1.8,16.4,5.4,23.1c3.6,6.7,8.6,11.8,15,15.5c6.4,3.7,13.7,5.5,22,5.5C736.6-5553.5,744-5555.3,750.4-5559z"/>
	<path class="st3" d="M876.7-5643.5l-3.9,7.3c-5-3-10.7-4.5-16.9-4.5c-6.3,0-12,1.8-17.2,5.5c-5.2,3.7-9.4,8.7-12.3,15.1
		c-3,6.4-4.5,13.4-4.5,21v51.8h-8.6V-5648h8.2v22.5c3.5-7.3,8.3-13.1,14.4-17.2c6.1-4.1,12.8-6.2,20.3-6.2
		C864.1-5649,871-5647.2,876.7-5643.5z"/>
	<path class="st5" d="M825.7-7768.2c0,1.4,0,2.8-0.1,4.2c-1.9,82.7-57.9,152-133.9,173.9c-16.3,4.7-33.5,7.2-51.3,7.2
		c-0.3,0-0.6,0-0.9,0L538-7484.2l-5.1,4.9c-7.4,7.2-17,11.6-27.2,12.6c-0.3,0-0.7,0.1-1,0.1c-0.4,0-0.7,0.1-1.1,0.1
		c-0.3,0-0.6,0-1,0c-0.4,0-0.7,0-1.1,0h-0.3c-0.5,0-1,0-1.4,0c-24.7-0.9-44.5-21.1-44.8-46c-0.2-1.8-0.3-3.6-0.3-5.5v-248.3
		c34.2,23.6,75.4,36.9,118.3,36.9c16.7,0,33.7-2,50.7-6.2c25-6.2,47.9-16.8,67.9-30.6c43.6-30.1,74.1-75.8,85.5-127.1
		c13.4,14.6,24.4,31.4,32.6,49.7C820-7820.5,825.7-7795,825.7-7768.2z"/>
	<path class="st6" d="M712.1-7939.1c0.2,26.3-7.1,51.7-20.4,73.4c-18.3,30-48,53.1-84.9,62.3c-51,12.7-102.4-4.5-135.6-40.6
		c-6.1-6.6-11.6-13.8-16.4-21.6v-37c0-28.1,22.8-50.9,50.9-50.9h134.7c17.8,0,35,2.5,51.3,7.2c4.4,1.3,8.8,2.7,13.1,4.3h0
		C707.3-7941.1,709.7-7940.1,712.1-7939.1z"/>
	<path class="st5" d="M-2572.3-7161.4c0,2.1,0,4.2-0.1,6.3c-2.7,122.8-85.9,225.8-199,258.3c-24.2,7-49.8,10.7-76.2,10.7
		c-0.4,0-0.8,0-1.3,0l-150.8,146.7l-7.5,7.3c-11,10.7-25.3,17.2-40.4,18.7c-0.5,0-1,0.1-1.5,0.1c-0.5,0-1.1,0.1-1.6,0.1
		c-0.5,0-0.9,0-1.4,0c-0.5,0-1.1,0-1.6,0h-0.5c-0.7,0-1.4,0-2.1-0.1c-36.7-1.3-66.1-31.3-66.5-68.3c-0.3-2.7-0.5-5.4-0.5-8.1v-368.8
		c50.9,35,112,54.8,175.7,54.8c24.8,0,50.1-3,75.3-9.3c37.2-9.3,71.1-24.9,100.9-45.4c64.8-44.7,110.1-112.5,127-188.8
		c19.8,21.7,36.3,46.6,48.4,73.8C-2580.7-7239.1-2572.3-7201.2-2572.3-7161.4z"/>
	<path class="st6" d="M-2741-7415.3c0.3,39.1-10.6,76.8-30.3,109.1c-27.2,44.6-71.3,78.9-126,92.5c-75.7,18.9-152.1-6.7-201.5-60.3
		c-9.1-9.8-17.2-20.6-24.3-32.2v-55c0-41.7,33.8-75.6,75.6-75.6h200c26.5,0,52,3.7,76.3,10.7c6.6,1.9,13.1,4,19.5,6.4h0
		C-2748.2-7418.2-2744.5-7416.8-2741-7415.3z"/>
	<path class="st5" d="M1867.1-5671.5c0,1.2,0,2.3,0,3.5c-1.5,68.6-48,126.2-111.2,144.4c-13.5,3.9-27.8,6-42.6,6c-0.2,0-0.5,0-0.7,0
		l-84.3,82l-4.2,4.1c-6.1,6-14.1,9.6-22.6,10.4c-0.3,0-0.5,0-0.8,0.1c-0.3,0-0.6,0-0.9,0.1c-0.3,0-0.5,0-0.8,0c-0.3,0-0.6,0-0.9,0
		h-0.3c-0.4,0-0.8,0-1.2,0c-20.5-0.7-36.9-17.5-37.2-38.2c-0.2-1.5-0.3-3-0.3-4.5v-206.1c28.4,19.6,62.6,30.6,98.2,30.6
		c13.9,0,28-1.7,42.1-5.2c20.8-5.2,39.8-13.9,56.4-25.4c36.2-25,61.6-62.9,71-105.5c11.1,12.1,20.3,26,27,41.3
		C1862.3-5714.9,1867.1-5693.7,1867.1-5671.5z"/>
	<path class="st6" d="M1772.8-5813.4c0.2,21.9-5.9,42.9-16.9,61c-15.2,24.9-39.9,44.1-70.5,51.7c-42.3,10.5-85-3.8-112.6-33.7
		c-5.1-5.5-9.6-11.5-13.6-18v-30.8c0-23.3,18.9-42.2,42.2-42.2h111.8c14.8,0,29.1,2.1,42.6,6c3.7,1.1,7.3,2.3,10.9,3.6h0
		C1768.7-5815,1770.8-5814.2,1772.8-5813.4z"/>
	<path class="st2" d="M-386.4-5640.1c0,0.9,0,1.8,0,2.8c-1.2,53.9-37.7,99-87.3,113.3c-10.6,3.1-21.8,4.7-33.4,4.7
		c-0.2,0-0.4,0-0.6,0l-66.1,64.3l-3.3,3.2c-4.8,4.7-11.1,7.6-17.7,8.2c-0.2,0-0.4,0-0.6,0.1c-0.2,0-0.5,0-0.7,0c-0.2,0-0.4,0-0.6,0
		c-0.2,0-0.5,0-0.7,0h-0.2c-0.3,0-0.6,0-0.9,0c-16.1-0.6-29-13.7-29.2-30c-0.1-1.2-0.2-2.4-0.2-3.6v-161.7c22.3,15.4,49.1,24,77,24
		c10.9,0,22-1.3,33-4.1c16.3-4.1,31.2-10.9,44.3-19.9c28.4-19.6,48.3-49.4,55.7-82.8c8.7,9.5,15.9,20.4,21.2,32.4
		C-390.1-5674.2-386.4-5657.6-386.4-5640.1z"/>
	<path class="st6" d="M-460.3-5751.5c0.1,17.2-4.6,33.7-13.3,47.8c-11.9,19.5-31.3,34.6-55.3,40.6c-33.2,8.3-66.7-3-88.4-26.4
		c-4-4.3-7.6-9-10.7-14.1v-24.1c0-18.3,14.8-33.1,33.1-33.1h87.7c11.6,0,22.8,1.6,33.4,4.7c2.9,0.8,5.7,1.8,8.5,2.8h0
		C-463.5-5752.7-461.9-5752.1-460.3-5751.5z"/>
	<path class="st7" d="M-88.5-7357c12.8,6.4,22.6,15.7,29.6,27.7c7,12,10.4,26,10.4,42.1c0,16-3.5,30-10.4,42.1
		c-7,12-16.8,21.2-29.6,27.7c-12.8,6.4-27.7,9.6-44.8,9.6h-54.1v62.6h-51.9v-221.4h106C-116.1-7366.7-101.2-7363.5-88.5-7357z
		 M-109.7-7262.3c6.4-6.1,9.6-14.3,9.6-24.7c0-10.3-3.2-18.6-9.6-24.7c-6.4-6.1-15.1-9.2-26.1-9.2h-51.9v67.7h51.9
		C-124.8-7253.1-116.1-7256.2-109.7-7262.3z"/>
	<path class="st7" d="M136.3-7301.5v156.3h-43l-3.2-18.7c-13.3,14.5-30.6,21.8-51.9,21.8c-14.5,0-27.5-3.4-38.7-10.3
		c-11.3-6.8-20.1-16.4-26.4-28.8s-9.5-26.4-9.5-42.2c0-15.8,3.2-29.9,9.5-42.2c6.3-12.3,15.1-21.9,26.4-28.8
		c11.3-6.8,24.2-10.3,38.7-10.3c10.5,0,20.2,1.8,29.1,5.5c8.9,3.7,16.4,9,22.8,16l3.2-18.3H136.3z M76.8-7194.8
		c7-7.3,10.4-16.8,10.4-28.6c0-11.8-3.5-21.4-10.4-28.6c-7-7.3-15.9-10.9-26.9-10.9c-11,0-19.9,3.7-26.7,11.1
		c-6.9,7.4-10.3,16.9-10.3,28.5c0,11.6,3.4,21.1,10.3,28.5c6.8,7.4,15.8,11.1,26.7,11.1C60.9-7183.9,69.8-7187.5,76.8-7194.8z"/>
	<path class="st4" d="M177.5-7324.6c-5.4-5.1-8.1-11.5-8.1-19.3c0-8,2.7-14.5,8.2-19.6c5.5-5.1,12.4-7.6,20.9-7.6
		c8.4,0,15.4,2.5,20.9,7.6c5.5,5.1,8.2,11.6,8.2,19.6c0,7.8-2.7,14.2-8.1,19.3c-5.4,5.1-12.4,7.6-21,7.6
		C189.9-7317,182.9-7319.6,177.5-7324.6z"/>
	<rect x="173.6" y="-7301.5" class="st7" width="49.7" height="156.3"/>
	<path class="st7" d="M249.2-7162l19-34.2c7.6,4.6,16.4,8.2,26.4,10.8c10,2.5,20,3.8,29.9,3.8c13.7,0,20.6-3.7,20.6-11.1
		c0-3.8-1.9-6.6-5.7-8.5c-3.8-1.9-10.1-3.2-19-3.8c-19.8-1.1-35.6-6-47.3-14.9c-11.7-8.9-17.6-20.5-17.6-34.8c0-15.6,6.3-28,19-37.2
		c12.7-9.2,29.7-13.8,51.2-13.8c12.2,0,23.9,1.5,35,4.4c11.1,3,20.6,7.1,28.6,12.3l-19.3,33.2c-11.8-6.7-25.8-10.1-42.1-10.1
		c-16,0-24,3.8-24,11.4c0,3.2,1.6,5.6,4.9,7.3c3.3,1.7,8.8,3,16.6,3.8c22.3,1.7,39.4,6.8,51.1,15.2c11.7,8.4,17.6,20.2,17.6,35.4
		c0,16-6.4,28.6-19.3,37.8c-12.9,9.2-30.7,13.8-53.5,13.8C293.7-7141.2,269.6-7148.1,249.2-7162z"/>
	<path class="st7" d="M582.2-7301.5v156.3h-43l-3.2-18.7c-13.3,14.5-30.6,21.8-51.9,21.8c-14.5,0-27.5-3.4-38.7-10.3
		c-11.3-6.8-20.1-16.4-26.4-28.8s-9.5-26.4-9.5-42.2c0-15.8,3.2-29.9,9.5-42.2c6.3-12.3,15.1-21.9,26.4-28.8
		c11.3-6.8,24.2-10.3,38.7-10.3c10.5,0,20.2,1.8,29.1,5.5c8.9,3.7,16.4,9,22.8,16l3.2-18.3H582.2z M522.8-7194.8
		c7-7.3,10.4-16.8,10.4-28.6c0-11.8-3.5-21.4-10.4-28.6c-7-7.3-15.9-10.9-26.9-10.9c-11,0-19.9,3.7-26.7,11.1
		c-6.9,7.4-10.3,16.9-10.3,28.5c0,11.6,3.4,21.1,10.3,28.5c6.8,7.4,15.8,11.1,26.7,11.1C506.9-7183.9,515.8-7187.5,522.8-7194.8z"/>
	<path class="st7" d="M671.8-7152.9c-13.1-7.4-23.2-17.8-30.5-31.2c-7.3-13.4-10.9-28.7-10.9-46v-136.6h13.9v136.6
		c0,14.8,3.1,27.8,9.2,39.1c6.1,11.3,14.7,20.1,25.6,26.4c11,6.3,23.5,9.5,37.6,9.5c14.1,0,26.7-3.2,37.6-9.5
		c11-6.3,19.5-15.1,25.6-26.4c6.1-11.3,9.2-24.3,9.2-39.1v-136.6H803v136.6c0,17.3-3.6,32.6-10.9,46c-7.3,13.4-17.5,23.8-30.5,31.2
		c-13.1,7.4-28,11.1-44.9,11.1C699.8-7141.8,684.8-7145.5,671.8-7152.9z"/>
	<path class="st7" d="M1002.6-7366.7v221.4H990l-0.3-34.5c-5.9,11.4-14.8,20.4-26.7,27c-11.9,6.6-25.4,10-40.3,10
		c-15,0-28.4-3.4-40.3-10.3c-11.9-6.9-21.2-16.4-27.8-28.6c-6.6-12.2-10-26.1-10-41.8c0-15.6,3.3-29.5,10-41.8
		c6.6-12.2,15.9-21.8,27.8-28.6c11.9-6.9,25.4-10.3,40.3-10.3c15,0,28.4,3.3,40.2,9.8c11.8,6.5,20.7,15.5,26.6,26.9v-99.3H1002.6z
		 M957.5-7163.6c10-5.7,17.8-13.7,23.4-24c5.6-10.3,8.4-22.2,8.4-35.7c0-13.5-2.8-25.4-8.4-35.7c-5.6-10.3-13.4-18.3-23.4-24
		c-10-5.7-21.4-8.5-34-8.5c-12.9,0-24.3,2.8-34.2,8.5c-9.9,5.7-17.7,13.7-23.2,24c-5.6,10.3-8.4,22.2-8.4,35.7
		c0,13.5,2.8,25.4,8.4,35.7c5.6,10.3,13.3,18.3,23.2,24c9.9,5.7,21.3,8.5,34.2,8.5C936.2-7155.1,947.5-7157.9,957.5-7163.6z"/>
	<path class="st7" d="M1177.7-7285.7c11.7,12,17.6,28.8,17.6,50.3v90.1h-13.3v-89.5c0-18.1-4.6-32.1-13.9-41.8
		c-9.3-9.7-22.5-14.5-39.5-14.5c-11.6,0-22,2.6-31.2,7.7c-9.2,5.2-16.3,12.2-21.4,21.2c-5.1,9-7.6,18.9-7.6,29.9v87h-13.3v-221.4
		h13.3v95.5c6.1-10.1,14.5-18.1,25.1-23.9c10.6-5.8,22.5-8.7,35.6-8.7C1149.8-7303.7,1166-7297.7,1177.7-7285.7z"/>
	<path class="st7" d="M1393.2-7301.5v156.3h-12.7l-0.3-34.8c-5.9,11.6-14.8,20.7-26.7,27.4c-11.9,6.6-25.4,10-40.3,10
		c-15.2,0-28.7-3.4-40.5-10.3c-11.8-6.9-21-16.4-27.7-28.6c-6.6-12.2-10-26.1-10-41.8c0-15.6,3.3-29.5,10-41.8
		c6.6-12.2,15.9-21.8,27.7-28.6c11.8-6.9,25.3-10.3,40.5-10.3c15,0,28.4,3.4,40.3,10.1c11.9,6.8,20.8,15.9,26.7,27.5l0.3-35.1
		H1393.2z M1348.2-7163.6c10-5.7,17.8-13.7,23.4-24c5.6-10.3,8.4-22.2,8.4-35.7c0-13.5-2.8-25.4-8.4-35.7
		c-5.6-10.3-13.4-18.3-23.4-24c-10-5.7-21.4-8.5-34-8.5c-12.9,0-24.3,2.8-34.2,8.5c-9.9,5.7-17.7,13.7-23.2,24
		c-5.6,10.3-8.4,22.2-8.4,35.7c0,13.5,2.8,25.4,8.4,35.7c5.6,10.3,13.3,18.3,23.2,24c9.9,5.7,21.3,8.5,34.2,8.5
		C1326.8-7155.1,1338.1-7157.9,1348.2-7163.6z"/>
	<path class="st7" d="M1543.8-7294.6l-6,11.4c-7.8-4.6-16.6-7-26.3-7c-9.7,0-18.6,2.8-26.7,8.5c-8.1,5.7-14.5,13.5-19.1,23.4
		c-4.6,9.9-7,20.8-7,32.6v80.3h-13.3v-156.3h12.7v34.8c5.5-11.4,12.9-20.3,22.3-26.7c9.4-6.4,19.9-9.6,31.5-9.6
		C1524.3-7303.1,1534.9-7300.3,1543.8-7294.6z"/>
</g>
<rect x="-4127.9" y="2029.6" class="st0" width="3500" height="3500"/>
<rect x="-627.9" y="4250.8" class="st1" width="3500" height="1278.7"/>
<rect x="-627.9" y="2029.6" class="st2" width="3500" height="2221.3"/>
<g>
	<path class="st2" d="M1853.5,4689.4v413.4c0,67.5,55.2,122.7,122.7,122.7h413.4c67.5,0,122.7-55.2,122.7-122.7v-413.4
		c0-67.5-55.2-122.7-122.7-122.7h-413.4C1908.7,4566.7,1853.5,4621.9,1853.5,4689.4"/>
	<g>
		<path class="st3" d="M-3484.4,3976c19.1,9.6,33.8,23.4,44.2,41.3c10.4,18,15.6,38.9,15.6,62.8c0,23.9-5.2,44.9-15.6,62.8
			c-10.4,18-25.1,31.7-44.2,41.3c-19.1,9.6-41.3,14.4-66.9,14.4h-80.8v93.5h-77.5v-330.7h158.3
			C-3525.8,3961.5-3503.5,3966.4-3484.4,3976z M-3516.1,4117.5c9.6-9.1,14.4-21.4,14.4-36.9c0-15.4-4.8-27.7-14.4-36.9
			c-9.6-9.1-22.6-13.7-39-13.7h-77.5v101.1h77.5C-3538.7,4131.2-3525.7,4126.6-3516.1,4117.5z"/>
		<path class="st3" d="M-3148.8,4058.9v233.4h-64.3l-4.7-27.9c-19.8,21.7-45.7,32.6-77.5,32.6c-21.7,0-41-5.1-57.9-15.4
			c-16.9-10.2-30-24.6-39.5-43c-9.4-18.4-14.2-39.5-14.2-63.1c0-23.6,4.7-44.6,14.2-63.1c9.4-18.4,22.6-32.8,39.5-43
			c16.8-10.2,36.1-15.4,57.9-15.4c15.7,0,30.2,2.8,43.5,8.3c13.2,5.5,24.6,13.5,34,23.9l4.7-27.4H-3148.8z M-3237.6,4218.3
			c10.4-10.9,15.6-25.1,15.6-42.8c0-17.6-5.2-31.9-15.6-42.8c-10.4-10.9-23.8-16.3-40.2-16.3c-16.4,0-29.7,5.5-39.9,16.5
			c-10.2,11-15.4,25.2-15.4,42.5c0,17.3,5.1,31.5,15.4,42.5c10.2,11,23.5,16.5,39.9,16.5C-3261.4,4234.6-3248,4229.2-3237.6,4218.3z
			"/>
		<path class="st8" d="M-3087.1,4024.4c-8-7.6-12-17.2-12-28.8c0-12,4.1-21.7,12.3-29.3c8.2-7.6,18.6-11.3,31.2-11.3
			c12.6,0,23,3.8,31.2,11.3c8.2,7.6,12.3,17.3,12.3,29.3c0,11.7-4,21.3-12,28.8s-18.5,11.3-31.4,11.3
			C-3068.6,4035.7-3079.1,4031.9-3087.1,4024.4z"/>
		<rect x="-3093" y="4058.9" class="st3" width="74.2" height="233.4"/>
		<path class="st3" d="M-2980.1,4267.2l28.3-51c11.3,6.9,24.5,12.3,39.5,16.1c15,3.8,29.8,5.7,44.6,5.7c20.5,0,30.7-5.5,30.7-16.5
			c0-5.7-2.8-9.9-8.5-12.8c-5.7-2.8-15.1-4.7-28.3-5.7c-29.6-1.6-53.2-9-70.6-22.2c-17.5-13.2-26.2-30.5-26.2-52
			c0-23.3,9.4-41.8,28.3-55.5c18.9-13.7,44.4-20.6,76.5-20.6c18.3,0,35.7,2.2,52.2,6.6c16.5,4.4,30.8,10.6,42.8,18.4l-28.8,49.6
			c-17.6-10.1-38.6-15.1-62.8-15.1c-23.9,0-35.9,5.7-35.9,17c0,4.7,2.4,8.3,7.3,10.9c4.9,2.5,13.1,4.4,24.8,5.7
			c33.4,2.5,58.8,10.1,76.3,22.7c17.5,12.6,26.2,30.2,26.2,52.9c0,23.9-9.6,42.8-28.8,56.5c-19.2,13.7-45.8,20.6-79.8,20.6
			C-2913.6,4298.4-2949.6,4288-2980.1,4267.2z"/>
		<path class="st3" d="M-2482.6,4058.9v233.4h-64.3l-4.7-27.9c-19.8,21.7-45.7,32.6-77.5,32.6c-21.7,0-41-5.1-57.9-15.4
			c-16.9-10.2-30-24.6-39.5-43c-9.4-18.4-14.2-39.5-14.2-63.1c0-23.6,4.7-44.6,14.2-63.1c9.4-18.4,22.6-32.8,39.5-43
			c16.8-10.2,36.1-15.4,57.9-15.4c15.7,0,30.2,2.8,43.5,8.3c13.2,5.5,24.6,13.5,34,23.9l4.7-27.4H-2482.6z M-2571.4,4218.3
			c10.4-10.9,15.6-25.1,15.6-42.8c0-17.6-5.2-31.9-15.6-42.8c-10.4-10.9-23.8-16.3-40.2-16.3c-16.4,0-29.7,5.5-39.9,16.5
			c-10.2,11-15.4,25.2-15.4,42.5c0,17.3,5.1,31.5,15.4,42.5c10.2,11,23.5,16.5,39.9,16.5
			C-2595.2,4234.6-2581.8,4229.2-2571.4,4218.3z"/>
		<path class="st3" d="M-2348.9,4280.9c-19.5-11-34.7-26.5-45.6-46.5c-10.9-20-16.3-42.9-16.3-68.7v-204.1h20.8v204.1
			c0,22.1,4.6,41.5,13.7,58.3c9.1,16.9,21.9,30,38.3,39.5c16.4,9.4,35.1,14.2,56.2,14.2c21.1,0,39.8-4.7,56.2-14.2
			c16.4-9.4,29.1-22.6,38.3-39.5c9.1-16.8,13.7-36.3,13.7-58.3v-204.1h20.8v204.1c0,25.8-5.4,48.7-16.3,68.7
			c-10.9,20-26.1,35.5-45.6,46.5c-19.5,11-41.9,16.5-67.1,16.5C-2307,4297.5-2329.4,4292-2348.9,4280.9z"/>
		<path class="st3" d="M-1854.7,3961.5v330.7h-18.9l-0.5-51.5c-8.8,17-22.1,30.5-39.9,40.4c-17.8,9.9-37.9,14.9-60.2,14.9
			c-22.4,0-42.4-5.1-60.2-15.4c-17.8-10.2-31.7-24.5-41.6-42.8c-9.9-18.3-14.9-39.1-14.9-62.4c0-23.3,5-44.1,14.9-62.4
			c9.9-18.3,23.8-32.5,41.6-42.8c17.8-10.2,37.9-15.4,60.2-15.4c22.4,0,42.4,4.9,60,14.6c17.6,9.8,30.9,23.2,39.7,40.2v-148.4
			H-1854.7z M-1922,4264.9c15-8.5,26.6-20.5,35-35.9c8.3-15.4,12.5-33.2,12.5-53.4c0-20.2-4.2-38-12.5-53.4
			c-8.3-15.4-20-27.4-35-35.9c-15-8.5-31.9-12.8-50.8-12.8c-19.2,0-36.2,4.3-51,12.8c-14.8,8.5-26.4,20.5-34.7,35.9
			c-8.3,15.4-12.5,33.2-12.5,53.4c0,20.2,4.2,38,12.5,53.4c8.3,15.4,19.9,27.4,34.7,35.9c14.8,8.5,31.8,12.8,51,12.8
			C-1953.9,4277.6-1937,4273.4-1922,4264.9z"/>
		<path class="st3" d="M-1593.2,4082.5c17.5,18,26.2,43,26.2,75.1v134.7h-19.8v-133.7c0-27.1-6.9-47.9-20.8-62.4
			c-13.9-14.5-33.5-21.7-59.1-21.7c-17.3,0-32.8,3.9-46.5,11.6c-13.7,7.7-24.3,18.3-31.9,31.7c-7.6,13.4-11.3,28.3-11.3,44.6v129.9
			h-19.8v-330.7h19.8v142.7c9.1-15.1,21.7-27,37.6-35.7c15.9-8.7,33.6-13,53.2-13C-1634.8,4055.6-1610.7,4064.5-1593.2,4082.5z"/>
		<path class="st3" d="M-1271.2,4058.9v233.4h-18.9l-0.5-52c-8.8,17.3-22.1,30.9-39.9,40.9c-17.8,9.9-37.9,14.9-60.2,14.9
			c-22.7,0-42.8-5.1-60.5-15.4c-17.6-10.2-31.4-24.5-41.3-42.8c-9.9-18.3-14.9-39.1-14.9-62.4c0-23.3,5-44.1,14.9-62.4
			c9.9-18.3,23.7-32.5,41.3-42.8c17.6-10.2,37.8-15.4,60.5-15.4c22.4,0,42.4,5,60.2,15.1c17.8,10.1,31.1,23.8,39.9,41.1l0.5-52.4
			H-1271.2z M-1338.5,4264.9c15-8.5,26.6-20.5,35-35.9c8.3-15.4,12.5-33.2,12.5-53.4c0-20.2-4.2-38-12.5-53.4
			c-8.3-15.4-20-27.4-35-35.9c-15-8.5-31.9-12.8-50.8-12.8c-19.2,0-36.2,4.3-51,12.8c-14.8,8.5-26.4,20.5-34.7,35.9
			c-8.3,15.4-12.5,33.2-12.5,53.4c0,20.2,4.2,38,12.5,53.4c8.3,15.4,19.9,27.4,34.7,35.9c14.8,8.5,31.8,12.8,51,12.8
			C-1370.4,4277.6-1353.5,4273.4-1338.5,4264.9z"/>
		<path class="st3" d="M-1046.3,4069.3l-9,17c-11.7-6.9-24.7-10.4-39.2-10.4c-14.5,0-27.8,4.3-39.9,12.8
			c-12.1,8.5-21.7,20.2-28.6,35c-6.9,14.8-10.4,31-10.4,48.7v120h-19.8v-233.4h18.9v52c8.2-17,19.3-30.3,33.3-39.9
			c14-9.6,29.7-14.4,47-14.4C-1075.5,4056.5-1059.5,4060.8-1046.3,4069.3z"/>
	</g>
	<path class="st3" d="M293.1,4835.4c8.2,4.2,14.6,10.1,19.1,17.9c4.5,7.8,6.7,16.8,6.7,27.1c0,10.3-2.2,19.4-6.7,27.1
		c-4.5,7.8-10.9,13.7-19.1,17.9c-8.2,4.2-17.9,6.2-28.9,6.2h-34.9v40.4h-33.5v-142.9h68.4C275.2,4829.1,284.8,4831.2,293.1,4835.4z
		 M279.4,4896.5c4.1-3.9,6.2-9.3,6.2-15.9c0-6.7-2.1-12-6.2-15.9c-4.2-3.9-9.8-5.9-16.8-5.9h-33.5v43.7h33.5
		C269.6,4902.4,275.3,4900.4,279.4,4896.5z"/>
	<path class="st3" d="M438.1,4871.2V4972h-27.8l-2-12c-8.6,9.4-19.7,14.1-33.5,14.1c-9.4,0-17.7-2.2-25-6.6
		c-7.3-4.4-13-10.6-17-18.6c-4.1-8-6.1-17-6.1-27.2c0-10.2,2-19.3,6.1-27.2c4.1-8,9.8-14.2,17-18.6c7.3-4.4,15.6-6.6,25-6.6
		c6.8,0,13.1,1.2,18.8,3.6c5.7,2.4,10.6,5.8,14.7,10.3l2-11.8H438.1z M399.7,4940.1c4.5-4.7,6.7-10.9,6.7-18.5
		c0-7.6-2.2-13.8-6.7-18.5c-4.5-4.7-10.3-7-17.4-7c-7.1,0-12.8,2.4-17.2,7.1c-4.4,4.8-6.6,10.9-6.6,18.4c0,7.5,2.2,13.6,6.6,18.4
		c4.4,4.8,10.2,7.1,17.2,7.1C389.5,4947.1,395.2,4944.8,399.7,4940.1z"/>
	<path class="st8" d="M464.7,4856.3c-3.5-3.3-5.2-7.4-5.2-12.5c0-5.2,1.8-9.4,5.3-12.7c3.5-3.3,8-4.9,13.5-4.9
		c5.4,0,9.9,1.6,13.5,4.9c3.5,3.3,5.3,7.5,5.3,12.7c0,5-1.7,9.2-5.2,12.5c-3.5,3.3-8,4.9-13.6,4.9
		C472.7,4861.2,468.2,4859.6,464.7,4856.3z"/>
	<rect x="462.2" y="4871.2" class="st3" width="32" height="100.8"/>
	<path class="st3" d="M511,4961.2l12.2-22c4.9,3,10.6,5.3,17,6.9c6.5,1.6,12.9,2.4,19.3,2.4c8.8,0,13.3-2.4,13.3-7.1
		c0-2.4-1.2-4.3-3.7-5.5c-2.4-1.2-6.5-2-12.2-2.4c-12.8-0.7-23-3.9-30.5-9.6c-7.6-5.7-11.3-13.2-11.3-22.5c0-10.1,4.1-18.1,12.2-24
		c8.2-5.9,19.2-8.9,33.1-8.9c7.9,0,15.4,1,22.6,2.9c7.1,1.9,13.3,4.6,18.5,8l-12.5,21.4c-7.6-4.4-16.7-6.5-27.1-6.5
		c-10.3,0-15.5,2.4-15.5,7.3c0,2,1.1,3.6,3.2,4.7c2.1,1.1,5.7,1.9,10.7,2.4c14.4,1.1,25.4,4.4,33,9.8c7.6,5.4,11.3,13.1,11.3,22.9
		c0,10.3-4.2,18.5-12.5,24.4c-8.3,5.9-19.8,8.9-34.5,8.9C539.7,4974.7,524.2,4970.2,511,4961.2z"/>
	<path class="st3" d="M725.9,4871.2V4972h-27.8l-2-12c-8.6,9.4-19.7,14.1-33.5,14.1c-9.4,0-17.7-2.2-25-6.6
		c-7.3-4.4-13-10.6-17-18.6c-4.1-8-6.1-17-6.1-27.2c0-10.2,2-19.3,6.1-27.2c4.1-8,9.8-14.2,17-18.6c7.3-4.4,15.6-6.6,25-6.6
		c6.8,0,13.1,1.2,18.8,3.6c5.7,2.4,10.6,5.8,14.7,10.3l2-11.8H725.9z M687.5,4940.1c4.5-4.7,6.7-10.9,6.7-18.5
		c0-7.6-2.2-13.8-6.7-18.5c-4.5-4.7-10.3-7-17.4-7c-7.1,0-12.8,2.4-17.2,7.1c-4.4,4.8-6.6,10.9-6.6,18.4c0,7.5,2.2,13.6,6.6,18.4
		c4.4,4.8,10.2,7.1,17.2,7.1C677.3,4947.1,683,4944.8,687.5,4940.1z"/>
	<path class="st3" d="M783.7,4967.1c-8.4-4.8-15-11.5-19.7-20.1c-4.7-8.6-7-18.5-7-29.7v-88.2h9v88.2c0,9.5,2,17.9,5.9,25.2
		c3.9,7.3,9.5,13,16.5,17c7.1,4.1,15.2,6.1,24.3,6.1c9.1,0,17.2-2,24.3-6.1c7.1-4.1,12.6-9.8,16.5-17c3.9-7.3,5.9-15.7,5.9-25.2
		v-88.2h9v88.2c0,11.2-2.3,21.1-7,29.7c-4.7,8.6-11.3,15.3-19.7,20.1c-8.4,4.8-18.1,7.1-29,7.1
		C801.8,4974.3,792.1,4971.9,783.7,4967.1z"/>
	<path class="st3" d="M997.2,4829.1V4972H989l-0.2-22.2c-3.8,7.3-9.6,13.2-17.2,17.5c-7.7,4.3-16.4,6.4-26,6.4
		c-9.7,0-18.3-2.2-26-6.6c-7.7-4.4-13.7-10.6-18-18.5c-4.3-7.9-6.4-16.9-6.4-26.9c0-10.1,2.1-19,6.4-26.9c4.3-7.9,10.3-14,18-18.5
		c7.7-4.4,16.4-6.6,26-6.6c9.7,0,18.3,2.1,25.9,6.3c7.6,4.2,13.3,10,17.1,17.4v-64.1H997.2z M968.1,4960.2
		c6.5-3.7,11.5-8.8,15.1-15.5c3.6-6.7,5.4-14.4,5.4-23.1c0-8.7-1.8-16.4-5.4-23.1c-3.6-6.7-8.6-11.8-15.1-15.5
		c-6.5-3.7-13.8-5.5-21.9-5.5c-8.3,0-15.7,1.8-22,5.5c-6.4,3.7-11.4,8.8-15,15.5c-3.6,6.7-5.4,14.4-5.4,23.1
		c0,8.7,1.8,16.4,5.4,23.1c3.6,6.7,8.6,11.8,15,15.5c6.4,3.7,13.7,5.5,22,5.5C954.3,4965.7,961.6,4963.9,968.1,4960.2z"/>
	<path class="st3" d="M1110.2,4881.4c7.6,7.8,11.3,18.6,11.3,32.5v58.2h-8.6v-57.8c0-11.7-3-20.7-9-26.9c-6-6.3-14.5-9.4-25.5-9.4
		c-7.5,0-14.2,1.7-20.1,5c-5.9,3.3-10.5,7.9-13.8,13.7c-3.3,5.8-4.9,12.2-4.9,19.3v56.1h-8.6v-142.9h8.6v61.6
		c3.9-6.5,9.4-11.7,16.2-15.4c6.9-3.7,14.5-5.6,23-5.6C1092.2,4869.8,1102.6,4873.6,1110.2,4881.4z"/>
	<path class="st3" d="M1249.3,4871.2V4972h-8.2l-0.2-22.5c-3.8,7.5-9.6,13.4-17.2,17.7c-7.7,4.3-16.4,6.4-26,6.4
		c-9.8,0-18.5-2.2-26.1-6.6c-7.6-4.4-13.6-10.6-17.9-18.5c-4.3-7.9-6.4-16.9-6.4-26.9c0-10.1,2.1-19,6.4-26.9
		c4.3-7.9,10.2-14,17.9-18.5c7.6-4.4,16.3-6.6,26.1-6.6c9.7,0,18.3,2.2,26,6.5c7.7,4.4,13.4,10.3,17.2,17.8l0.2-22.7H1249.3z
		 M1220.2,4960.2c6.5-3.7,11.5-8.8,15.1-15.5c3.6-6.7,5.4-14.4,5.4-23.1c0-8.7-1.8-16.4-5.4-23.1c-3.6-6.7-8.6-11.8-15.1-15.5
		c-6.5-3.7-13.8-5.5-21.9-5.5c-8.3,0-15.7,1.8-22,5.5c-6.4,3.7-11.4,8.8-15,15.5c-3.6,6.7-5.4,14.4-5.4,23.1
		c0,8.7,1.8,16.4,5.4,23.1c3.6,6.7,8.6,11.8,15,15.5c6.4,3.7,13.7,5.5,22,5.5C1206.4,4965.7,1213.7,4963.9,1220.2,4960.2z"/>
	<path class="st3" d="M1346.4,4875.7l-3.9,7.3c-5-3-10.7-4.5-16.9-4.5c-6.3,0-12,1.8-17.2,5.5c-5.2,3.7-9.4,8.7-12.3,15.1
		c-3,6.4-4.5,13.4-4.5,21v51.8h-8.6v-100.8h8.2v22.5c3.5-7.3,8.3-13.1,14.4-17.2c6.1-4.1,12.8-6.2,20.3-6.2
		C1333.8,4870.2,1340.7,4872,1346.4,4875.7z"/>
	<g>
		<path class="st5" d="M1295.5,2751c0,1.4,0,2.8-0.1,4.2c-1.9,82.7-57.9,152-133.9,173.9c-16.3,4.7-33.5,7.2-51.3,7.2
			c-0.3,0-0.6,0-0.9,0l-101.5,98.8l-5.1,4.9c-7.4,7.2-17,11.6-27.2,12.6c-0.3,0-0.7,0.1-1,0.1c-0.4,0-0.7,0.1-1.1,0.1
			c-0.3,0-0.6,0-1,0c-0.4,0-0.7,0-1.1,0h-0.3c-0.5,0-1,0-1.4,0c-24.7-0.9-44.5-21.1-44.8-46c-0.2-1.8-0.3-3.6-0.3-5.4V2753
			c34.2,23.6,75.4,36.9,118.3,36.9c16.7,0,33.7-2,50.7-6.2c25-6.2,47.9-16.8,67.9-30.6c43.6-30.1,74.1-75.8,85.5-127.1
			c13.4,14.6,24.4,31.4,32.6,49.7C1289.8,2698.7,1295.5,2724.2,1295.5,2751z"/>
		<path class="st9" d="M1181.9,2580.1c0.2,26.3-7.1,51.7-20.4,73.4c-18.3,30-48,53.1-84.9,62.3c-51,12.7-102.4-4.5-135.6-40.6
			c-6.1-6.6-11.6-13.8-16.4-21.6v-37c0-28.1,22.8-50.9,50.9-50.9h134.7c17.8,0,35,2.5,51.3,7.2c4.4,1.3,8.8,2.7,13.1,4.3h0
			C1177,2578.1,1179.5,2579.1,1181.9,2580.1z"/>
	</g>
	<g>
		<path class="st5" d="M-2102.5,3357.8c0,2.1,0,4.2-0.1,6.3c-2.7,122.8-85.9,225.8-199,258.3c-24.2,7-49.8,10.7-76.2,10.7
			c-0.4,0-0.8,0-1.3,0l-150.8,146.7l-7.5,7.3c-11,10.7-25.3,17.2-40.4,18.7c-0.5,0-1,0.1-1.5,0.1c-0.5,0-1.1,0.1-1.6,0.1
			c-0.5,0-0.9,0-1.4,0c-0.5,0-1.1,0-1.6,0h-0.5c-0.7,0-1.4,0-2.1-0.1c-36.7-1.3-66.1-31.3-66.5-68.3c-0.3-2.7-0.5-5.4-0.5-8.1
			v-368.8c50.9,35,112,54.8,175.7,54.8c24.8,0,50.1-3,75.3-9.3c37.2-9.3,71.1-24.9,100.9-45.4c64.8-44.7,110.1-112.5,127-188.8
			c19.8,21.7,36.3,46.6,48.4,73.8C-2111,3280.1-2102.5,3318-2102.5,3357.8z"/>
		<path class="st9" d="M-2271.2,3104c0.3,39.1-10.6,76.8-30.3,109.1c-27.2,44.6-71.3,78.9-126,92.5c-75.7,18.9-152.1-6.7-201.5-60.3
			c-9.1-9.8-17.2-20.6-24.3-32.2v-55c0-41.7,33.8-75.6,75.6-75.6h200c26.5,0,52,3.7,76.3,10.7c6.6,1.9,13.1,4,19.5,6.4h0
			C-2278.4,3101-2274.8,3102.4-2271.2,3104z"/>
	</g>
	<g>
		<path class="st5" d="M2336.8,4847.8c0,1.2,0,2.3,0,3.5c-1.5,68.6-48,126.2-111.2,144.4c-13.5,3.9-27.8,6-42.6,6
			c-0.2,0-0.5,0-0.7,0l-84.3,82l-4.2,4.1c-6.1,6-14.1,9.6-22.6,10.4c-0.3,0-0.5,0-0.8,0.1c-0.3,0-0.6,0-0.9,0.1c-0.3,0-0.5,0-0.8,0
			c-0.3,0-0.6,0-0.9,0h-0.3c-0.4,0-0.8,0-1.2,0c-20.5-0.7-36.9-17.5-37.2-38.2c-0.2-1.5-0.3-3-0.3-4.5v-206.1
			c28.4,19.6,62.6,30.6,98.2,30.6c13.9,0,28-1.7,42.1-5.2c20.8-5.2,39.8-13.9,56.4-25.4c36.2-25,61.6-62.9,71-105.5
			c11.1,12.1,20.3,26,27,41.3C2332.1,4804.3,2336.8,4825.5,2336.8,4847.8z"/>
		<path class="st9" d="M2242.5,4705.8c0.2,21.9-5.9,42.9-16.9,61c-15.2,24.9-39.9,44.1-70.5,51.7c-42.3,10.5-85-3.8-112.6-33.7
			c-5.1-5.5-9.6-11.5-13.6-18v-30.8c0-23.3,18.9-42.2,42.2-42.2h111.8c14.8,0,29.1,2.1,42.6,6c3.7,1.1,7.3,2.3,10.9,3.6h0
			C2238.5,4704.2,2240.5,4705,2242.5,4705.8z"/>
	</g>
	<path class="st2" d="M83.4,4879.1c0,0.9,0,1.8,0,2.8c-1.2,53.9-37.7,99-87.3,113.3c-10.6,3.1-21.8,4.7-33.4,4.7c-0.2,0-0.4,0-0.6,0
		l-66.1,64.3l-3.3,3.2c-4.8,4.7-11.1,7.6-17.7,8.2c-0.2,0-0.4,0-0.6,0.1c-0.2,0-0.5,0-0.7,0c-0.2,0-0.4,0-0.6,0c-0.2,0-0.5,0-0.7,0
		h-0.2c-0.3,0-0.6,0-0.9,0c-16.1-0.6-29-13.7-29.2-30c-0.1-1.2-0.2-2.4-0.2-3.6v-161.7c22.3,15.4,49.1,24,77,24
		c10.9,0,22-1.3,33-4.1c16.3-4.1,31.2-10.9,44.3-19.9c28.4-19.6,48.3-49.4,55.7-82.8c8.7,9.5,15.9,20.4,21.2,32.4
		C79.7,4845,83.4,4861.6,83.4,4879.1z"/>
	<path class="st9" d="M9.4,4767.8c0.1,17.2-4.6,33.7-13.3,47.8c-11.9,19.5-31.3,34.6-55.3,40.6c-33.2,8.3-66.7-3-88.4-26.4
		c-4-4.3-7.6-9-10.7-14.1v-24.1c0-18.3,14.8-33.1,33.1-33.1h87.7c11.6,0,22.8,1.6,33.4,4.7c2.9,0.8,5.7,1.8,8.5,2.8h0
		C6.3,4766.5,7.8,4767.1,9.4,4767.8z"/>
	<path class="st7" d="M381.3,3162.2c12.8,6.4,22.6,15.7,29.6,27.7c7,12,10.4,26,10.4,42.1c0,16-3.5,30-10.4,42.1
		c-7,12-16.8,21.2-29.6,27.7c-12.8,6.4-27.7,9.6-44.8,9.6h-54.1v62.6h-51.9v-221.4h106C353.6,3152.5,368.5,3155.7,381.3,3162.2z
		 M360.1,3256.9c6.4-6.1,9.6-14.3,9.6-24.7c0-10.3-3.2-18.6-9.6-24.7c-6.4-6.1-15.1-9.2-26.1-9.2h-51.9v67.7H334
		C345,3266.1,353.7,3263,360.1,3256.9z"/>
	<path class="st7" d="M606,3217.7v156.3h-43l-3.2-18.7c-13.3,14.5-30.6,21.8-51.9,21.8c-14.5,0-27.5-3.4-38.7-10.3
		c-11.3-6.8-20.1-16.4-26.4-28.8c-6.3-12.3-9.5-26.4-9.5-42.2c0-15.8,3.2-29.9,9.5-42.2c6.3-12.3,15.1-21.9,26.4-28.8
		c11.3-6.8,24.2-10.3,38.7-10.3c10.5,0,20.2,1.8,29.1,5.5c8.9,3.7,16.4,9,22.8,16l3.2-18.3H606z M546.6,3324.4
		c7-7.3,10.4-16.8,10.4-28.6c0-11.8-3.5-21.3-10.4-28.6c-7-7.3-15.9-10.9-26.9-10.9c-11,0-19.9,3.7-26.7,11.1
		c-6.9,7.4-10.3,16.9-10.3,28.5c0,11.6,3.4,21.1,10.3,28.5c6.8,7.4,15.8,11.1,26.7,11.1C530.6,3335.3,539.6,3331.7,546.6,3324.4z"/>
	<path class="st8" d="M647.3,3194.6c-5.4-5.1-8.1-11.5-8.1-19.3c0-8,2.7-14.5,8.2-19.6c5.5-5.1,12.4-7.6,20.9-7.6
		c8.4,0,15.4,2.5,20.9,7.6c5.5,5.1,8.2,11.6,8.2,19.6c0,7.8-2.7,14.2-8.1,19.3c-5.4,5.1-12.4,7.6-21,7.6
		C659.7,3202.2,652.7,3199.7,647.3,3194.6z"/>
	<rect x="643.3" y="3217.7" class="st7" width="49.7" height="156.3"/>
	<path class="st7" d="M718.9,3357.2l19-34.2c7.6,4.6,16.4,8.2,26.4,10.8c10,2.5,20,3.8,29.9,3.8c13.7,0,20.6-3.7,20.6-11.1
		c0-3.8-1.9-6.6-5.7-8.5c-3.8-1.9-10.1-3.2-19-3.8c-19.8-1.1-35.6-6-47.3-14.9c-11.7-8.9-17.6-20.5-17.6-34.8c0-15.6,6.3-28,19-37.2
		c12.7-9.2,29.7-13.8,51.2-13.8c12.2,0,23.9,1.5,35,4.4c11.1,3,20.6,7.1,28.6,12.3l-19.3,33.2c-11.8-6.7-25.8-10.1-42.1-10.1
		c-16,0-24,3.8-24,11.4c0,3.2,1.6,5.6,4.9,7.3c3.3,1.7,8.8,3,16.6,3.8c22.3,1.7,39.4,6.8,51.1,15.2c11.7,8.4,17.6,20.2,17.6,35.4
		c0,16-6.4,28.6-19.3,37.8c-12.9,9.2-30.7,13.8-53.5,13.8C763.4,3378,739.4,3371.1,718.9,3357.2z"/>
	<path class="st7" d="M1052,3217.7v156.3h-43l-3.2-18.7c-13.3,14.5-30.6,21.8-51.9,21.8c-14.5,0-27.5-3.4-38.7-10.3
		c-11.3-6.8-20.1-16.4-26.4-28.8c-6.3-12.3-9.5-26.4-9.5-42.2c0-15.8,3.2-29.9,9.5-42.2c6.3-12.3,15.1-21.9,26.4-28.8
		c11.3-6.8,24.2-10.3,38.7-10.3c10.5,0,20.2,1.8,29.1,5.5c8.9,3.7,16.4,9,22.8,16l3.2-18.3H1052z M992.5,3324.4
		c7-7.3,10.4-16.8,10.4-28.6c0-11.8-3.5-21.3-10.4-28.6c-7-7.3-15.9-10.9-26.9-10.9c-11,0-19.9,3.7-26.7,11.1
		c-6.9,7.4-10.3,16.9-10.3,28.5c0,11.6,3.4,21.1,10.3,28.5c6.9,7.4,15.8,11.1,26.7,11.1C976.6,3335.3,985.6,3331.7,992.5,3324.4z"/>
	<path class="st7" d="M1141.5,3366.3c-13.1-7.4-23.2-17.8-30.5-31.2c-7.3-13.4-10.9-28.7-10.9-46v-136.6h13.9v136.6
		c0,14.8,3.1,27.8,9.2,39.1c6.1,11.3,14.7,20.1,25.6,26.4c11,6.3,23.5,9.5,37.6,9.5c14.1,0,26.7-3.2,37.6-9.5
		c11-6.3,19.5-15.1,25.6-26.4c6.1-11.3,9.2-24.3,9.2-39.1v-136.6h13.9v136.6c0,17.3-3.6,32.6-10.9,46c-7.3,13.4-17.5,23.8-30.5,31.2
		c-13.1,7.4-28,11.1-44.9,11.1C1169.5,3377.4,1154.6,3373.7,1141.5,3366.3z"/>
	<path class="st7" d="M1472.4,3152.5v221.4h-12.7l-0.3-34.5c-5.9,11.4-14.8,20.4-26.7,27c-11.9,6.6-25.4,10-40.3,10
		c-15,0-28.4-3.4-40.3-10.3c-11.9-6.9-21.2-16.4-27.8-28.6c-6.6-12.2-10-26.1-10-41.8c0-15.6,3.3-29.5,10-41.8
		c6.6-12.2,15.9-21.8,27.8-28.6c11.9-6.9,25.4-10.3,40.3-10.3c15,0,28.4,3.3,40.2,9.8c11.8,6.5,20.7,15.5,26.6,26.9v-99.3H1472.4z
		 M1427.3,3355.6c10-5.7,17.8-13.7,23.4-24c5.6-10.3,8.4-22.2,8.4-35.7c0-13.5-2.8-25.4-8.4-35.7c-5.6-10.3-13.4-18.3-23.4-24
		c-10-5.7-21.4-8.5-34-8.5c-12.9,0-24.3,2.8-34.2,8.5c-9.9,5.7-17.7,13.7-23.2,24c-5.6,10.3-8.4,22.3-8.4,35.7
		c0,13.5,2.8,25.4,8.4,35.7c5.6,10.3,13.3,18.3,23.2,24c9.9,5.7,21.3,8.5,34.2,8.5C1405.9,3364.1,1417.3,3361.3,1427.3,3355.6z"/>
	<path class="st7" d="M1647.4,3233.5c11.7,12,17.6,28.8,17.6,50.3v90.1h-13.3v-89.5c0-18.1-4.6-32.1-13.9-41.8
		c-9.3-9.7-22.5-14.5-39.5-14.5c-11.6,0-22,2.6-31.2,7.7c-9.2,5.2-16.3,12.2-21.4,21.2c-5.1,9-7.6,18.9-7.6,29.9v87h-13.3v-221.4
		h13.3v95.5c6.1-10.1,14.5-18.1,25.1-23.9c10.6-5.8,22.5-8.7,35.6-8.7C1619.5,3215.5,1635.7,3221.5,1647.4,3233.5z"/>
	<path class="st7" d="M1863,3217.7v156.3h-12.7l-0.3-34.8c-5.9,11.6-14.8,20.7-26.7,27.4c-11.9,6.6-25.4,10-40.3,10
		c-15.2,0-28.7-3.4-40.5-10.3c-11.8-6.9-21-16.4-27.7-28.6c-6.6-12.2-10-26.1-10-41.8c0-15.6,3.3-29.5,10-41.8
		c6.6-12.2,15.9-21.8,27.7-28.6c11.8-6.9,25.3-10.3,40.5-10.3c15,0,28.4,3.4,40.3,10.1c11.9,6.8,20.8,15.9,26.7,27.5l0.3-35.1H1863z
		 M1817.9,3355.6c10-5.7,17.8-13.7,23.4-24c5.6-10.3,8.4-22.2,8.4-35.7c0-13.5-2.8-25.4-8.4-35.7c-5.6-10.3-13.4-18.3-23.4-24
		c-10-5.7-21.4-8.5-34-8.5c-12.9,0-24.3,2.8-34.2,8.5c-9.9,5.7-17.7,13.7-23.2,24c-5.6,10.3-8.4,22.3-8.4,35.7
		c0,13.5,2.8,25.4,8.4,35.7c5.6,10.3,13.3,18.3,23.2,24c9.9,5.7,21.3,8.5,34.2,8.5C1796.6,3364.1,1807.9,3361.3,1817.9,3355.6z"/>
	<path class="st7" d="M2013.5,3224.6l-6,11.4c-7.8-4.6-16.6-7-26.3-7c-9.7,0-18.6,2.8-26.7,8.5c-8.1,5.7-14.5,13.5-19.1,23.4
		c-4.6,9.9-7,20.8-7,32.6v80.3h-13.3v-156.3h12.7v34.8c5.5-11.4,12.9-20.3,22.3-26.7c9.4-6.4,19.9-9.6,31.5-9.6
		C1994,3216.1,2004.7,3218.9,2013.5,3224.6z"/>
</g>
<g class="st10">
	<path class="st11" d="M330.9,172.1c0,1,0,2,0,3c-1.3,59.1-41.3,108.6-95.7,124.2c-11.6,3.4-23.9,5.2-36.7,5.2c-0.2,0-0.4,0-0.6,0
		L125.4,375l-3.6,3.5c-5.3,5.1-12.1,8.3-19.4,9c-0.2,0-0.5,0-0.7,0.1c-0.3,0-0.5,0-0.8,0.1c-0.2,0-0.4,0-0.7,0c-0.3,0-0.5,0-0.8,0
		h-0.2c-0.3,0-0.7,0-1,0c-17.6-0.6-31.8-15-32-32.8c-0.1-1.3-0.2-2.6-0.2-3.9V173.5c24.5,16.8,53.8,26.4,84.5,26.4
		c11.9,0,24.1-1.4,36.2-4.5c17.9-4.5,34.2-12,48.5-21.9c31.2-21.5,53-54.1,61.1-90.8c9.5,10.4,17.4,22.4,23.3,35.5
		C326.8,134.7,330.9,152.9,330.9,172.1z"/>
	<path class="st12" d="M249.7,50c0.2,18.8-5.1,36.9-14.6,52.5c-13.1,21.4-34.3,37.9-60.6,44.5c-36.4,9.1-73.1-3.2-96.9-29
		c-4.4-4.7-8.3-9.9-11.7-15.5V76.1c0-20.1,16.3-36.3,36.3-36.3h96.2c12.7,0,25,1.8,36.7,5.1c3.2,0.9,6.3,1.9,9.4,3.1h0
		C246.3,48.6,248,49.3,249.7,50z"/>
	<path class="st13" d="M552.4,132.5c10.3,5.2,18.2,12.6,23.8,22.3c5.6,9.7,8.4,21,8.4,33.8c0,12.9-2.8,24.2-8.4,33.8
		c-5.6,9.7-13.5,17.1-23.8,22.3c-10.3,5.2-22.3,7.8-36,7.8h-43.5v50.4h-41.7V124.7h85.3C530.1,124.7,542.1,127.3,552.4,132.5z
		 M535.3,208.7c5.2-4.9,7.8-11.5,7.8-19.9c0-8.3-2.6-14.9-7.8-19.9c-5.2-4.9-12.2-7.4-21-7.4h-41.7v54.5h41.7
		C523.2,216.1,530.2,213.6,535.3,208.7z"/>
	<path class="st13" d="M733.2,177.2v125.7h-34.6l-2.5-15c-10.7,11.7-24.6,17.6-41.7,17.6c-11.7,0-22.1-2.8-31.2-8.3
		c-9.1-5.5-16.2-13.2-21.3-23.2c-5.1-9.9-7.6-21.3-7.6-34c0-12.7,2.5-24,7.6-34c5.1-9.9,12.2-17.6,21.3-23.2
		c9.1-5.5,19.5-8.3,31.2-8.3c8.5,0,16.3,1.5,23.4,4.5c7.1,3,13.2,7.3,18.3,12.9l2.5-14.8H733.2z M685.4,263.1
		c5.6-5.9,8.4-13.5,8.4-23c0-9.5-2.8-17.2-8.4-23c-5.6-5.9-12.8-8.8-21.6-8.8c-8.8,0-16,3-21.5,8.9c-5.5,5.9-8.3,13.6-8.3,22.9
		c0,9.3,2.8,17,8.3,22.9c5.5,5.9,12.7,8.9,21.5,8.9C672.6,271.8,679.8,268.9,685.4,263.1z"/>
	<path class="st14" d="M766.4,158.6c-4.3-4.1-6.5-9.2-6.5-15.5c0-6.4,2.2-11.7,6.6-15.8c4.4-4.1,10-6.1,16.8-6.1
		c6.8,0,12.4,2,16.8,6.1c4.4,4.1,6.6,9.3,6.6,15.8c0,6.3-2.2,11.5-6.5,15.5s-10,6.1-16.9,6.1C776.4,164.7,770.7,162.7,766.4,158.6z"
		/>
	<rect x="763.2" y="177.2" class="st13" width="40" height="125.7"/>
	<path class="st13" d="M824.1,289.4l15.3-27.5c6.1,3.7,13.2,6.6,21.3,8.7c8.1,2,16.1,3.1,24,3.1c11,0,16.5-3,16.5-8.9
		c0-3.1-1.5-5.3-4.6-6.9c-3.1-1.5-8.1-2.5-15.3-3.1c-15.9-0.8-28.6-4.8-38-12c-9.4-7.1-14.1-16.5-14.1-28c0-12.6,5.1-22.5,15.3-29.9
		c10.2-7.4,23.9-11.1,41.2-11.1c9.8,0,19.2,1.2,28.1,3.6c8.9,2.4,16.6,5.7,23,9.9l-15.5,26.7c-9.5-5.4-20.8-8.1-33.8-8.1
		c-12.9,0-19.3,3.1-19.3,9.2c0,2.5,1.3,4.5,3.9,5.9c2.6,1.4,7.1,2.4,13.4,3.1c18,1.4,31.7,5.4,41.1,12.2
		c9.4,6.8,14.1,16.3,14.1,28.5c0,12.9-5.2,23-15.5,30.4c-10.4,7.4-24.7,11.1-43,11.1C859.9,306.2,840.5,300.6,824.1,289.4z"/>
	<path class="st13" d="M1092,177.2v125.7h-34.6l-2.5-15c-10.7,11.7-24.6,17.6-41.7,17.6c-11.7,0-22.1-2.8-31.2-8.3
		c-9.1-5.5-16.2-13.2-21.3-23.2c-5.1-9.9-7.6-21.3-7.6-34c0-12.7,2.5-24,7.6-34c5.1-9.9,12.2-17.6,21.3-23.2
		c9.1-5.5,19.5-8.3,31.2-8.3c8.5,0,16.3,1.5,23.4,4.5c7.1,3,13.2,7.3,18.3,12.9l2.5-14.8H1092z M1044.2,263.1
		c5.6-5.9,8.4-13.5,8.4-23c0-9.5-2.8-17.2-8.4-23c-5.6-5.9-12.8-8.8-21.6-8.8c-8.8,0-16,3-21.5,8.9c-5.5,5.9-8.3,13.6-8.3,22.9
		c0,9.3,2.8,17,8.3,22.9c5.5,5.9,12.7,8.9,21.5,8.9C1031.4,271.8,1038.6,268.9,1044.2,263.1z"/>
	<path class="st13" d="M1164.1,296.8c-10.5-5.9-18.7-14.3-24.6-25.1c-5.9-10.8-8.8-23.1-8.8-37V124.7h11.2v109.9
		c0,11.9,2.5,22.4,7.4,31.4c4.9,9.1,11.8,16.2,20.6,21.3c8.8,5.1,18.9,7.6,30.3,7.6c11.4,0,21.5-2.5,30.3-7.6
		c8.8-5.1,15.7-12.2,20.6-21.3c4.9-9.1,7.4-19.6,7.4-31.4V124.7h11.2v109.9c0,13.9-2.9,26.3-8.8,37c-5.9,10.8-14,19.1-24.6,25.1
		c-10.5,5.9-22.6,8.9-36.1,8.9C1186.6,305.7,1174.6,302.7,1164.1,296.8z"/>
	<path class="st13" d="M1430.3,124.7v178.1h-10.2l-0.3-27.7c-4.8,9.2-11.9,16.4-21.5,21.8c-9.6,5.3-20.4,8-32.4,8
		c-12,0-22.9-2.8-32.4-8.3c-9.6-5.5-17.1-13.2-22.4-23c-5.3-9.8-8-21-8-33.6c0-12.6,2.7-23.8,8-33.6c5.3-9.8,12.8-17.5,22.4-23
		c9.6-5.5,20.4-8.3,32.4-8.3c12,0,22.8,2.6,32.3,7.9c9.5,5.3,16.6,12.5,21.4,21.6v-79.9H1430.3z M1394,288.1
		c8.1-4.6,14.3-11,18.8-19.3c4.5-8.3,6.7-17.9,6.7-28.8c0-10.9-2.3-20.4-6.7-28.8c-4.5-8.3-10.8-14.8-18.8-19.3
		c-8.1-4.6-17.2-6.9-27.4-6.9c-10.4,0-19.5,2.3-27.5,6.9c-8,4.6-14.2,11-18.7,19.3c-4.5,8.3-6.7,17.9-6.7,28.8
		c0,10.9,2.2,20.4,6.7,28.8c4.5,8.3,10.7,14.8,18.7,19.3c8,4.6,17.1,6.9,27.5,6.9C1376.8,295,1385.9,292.7,1394,288.1z"/>
	<path class="st13" d="M1571.1,189.9c9.4,9.7,14.1,23.2,14.1,40.5v72.5h-10.7v-72c0-14.6-3.7-25.8-11.2-33.6
		c-7.5-7.8-18.1-11.7-31.8-11.7c-9.3,0-17.7,2.1-25.1,6.2c-7.4,4.2-13.1,9.8-17.2,17.1c-4.1,7.2-6.1,15.2-6.1,24.1v70h-10.7V124.7
		h10.7v76.9c4.9-8.1,11.7-14.5,20.2-19.2c8.6-4.7,18.1-7,28.6-7C1548.7,175.4,1561.7,180.2,1571.1,189.9z"/>
	<path class="st13" d="M1744.6,177.2v125.7h-10.2l-0.3-28c-4.8,9.3-11.9,16.7-21.5,22c-9.6,5.3-20.4,8-32.4,8
		c-12.2,0-23.1-2.8-32.6-8.3c-9.5-5.5-16.9-13.2-22.3-23c-5.3-9.8-8-21-8-33.6c0-12.6,2.7-23.8,8-33.6c5.3-9.8,12.8-17.5,22.3-23
		c9.5-5.5,20.4-8.3,32.6-8.3c12,0,22.9,2.7,32.4,8.1c9.6,5.4,16.8,12.8,21.5,22.1l0.3-28.2H1744.6z M1708.3,288.1
		c8.1-4.6,14.3-11,18.8-19.3c4.5-8.3,6.7-17.9,6.7-28.8c0-10.9-2.3-20.4-6.7-28.8c-4.5-8.3-10.8-14.8-18.8-19.3
		c-8.1-4.6-17.2-6.9-27.4-6.9c-10.4,0-19.5,2.3-27.5,6.9c-8,4.6-14.2,11-18.7,19.3c-4.5,8.3-6.7,17.9-6.7,28.8
		c0,10.9,2.2,20.4,6.7,28.8c4.5,8.3,10.7,14.8,18.7,19.3c8,4.6,17.1,6.9,27.5,6.9C1691.1,295,1700.2,292.7,1708.3,288.1z"/>
	<path class="st13" d="M1865.7,182.8l-4.8,9.2c-6.3-3.7-13.3-5.6-21.1-5.6c-7.8,0-15,2.3-21.5,6.9c-6.5,4.6-11.7,10.9-15.4,18.8
		c-3.7,8-5.6,16.7-5.6,26.2v64.6h-10.7V177.2h10.2v28c4.4-9.2,10.4-16.3,17.9-21.5c7.5-5.2,16-7.8,25.3-7.8
		C1850,175.9,1858.6,178.2,1865.7,182.8z"/>
</g>
<g>
	<path class="st5" d="M1012.7,802.7c0,0.4,0,0.8,0,1.3c-0.5,24.5-17.2,45.1-39.7,51.6c-4.8,1.4-9.9,2.1-15.2,2.1c-0.1,0-0.2,0-0.3,0
		l-30.1,29.3l-1.5,1.5c-2.2,2.1-5,3.4-8.1,3.7c-0.1,0-0.2,0-0.3,0c-0.1,0-0.2,0-0.3,0c-0.1,0-0.2,0-0.3,0c-0.1,0-0.2,0-0.3,0h-0.1
		c-0.1,0-0.3,0-0.4,0c-7.3-0.3-13.2-6.2-13.3-13.6c-0.1-0.5-0.1-1.1-0.1-1.6v-73.6c10.2,7,22.4,10.9,35.1,10.9c5,0,10-0.6,15-1.9
		c7.4-1.9,14.2-5,20.1-9.1c12.9-8.9,22-22.5,25.3-37.7c4,4.3,7.2,9.3,9.7,14.7C1011,787.2,1012.7,794.7,1012.7,802.7z"/>
	<path class="st9" d="M979,752c0.1,7.8-2.1,15.3-6.1,21.8c-5.4,8.9-14.2,15.8-25.2,18.5c-15.1,3.8-30.4-1.3-40.2-12
		c-1.8-2-3.4-4.1-4.9-6.4v-11c0-8.3,6.8-15.1,15.1-15.1h39.9c5.3,0,10.4,0.7,15.2,2.1c1.3,0.4,2.6,0.8,3.9,1.3h0
		C977.5,751.4,978.3,751.7,979,752z"/>
</g>
<g>
	<g>
		<path class="st5" d="M330.9,172.1c0,1,0,2,0,3c-1.3,59.1-41.3,108.6-95.7,124.2c-11.6,3.4-23.9,5.2-36.7,5.2c-0.2,0-0.4,0-0.6,0
			L125.4,375l-3.6,3.5c-5.3,5.1-12.1,8.3-19.4,9c-0.2,0-0.5,0-0.7,0.1c-0.3,0-0.5,0-0.8,0.1c-0.2,0-0.4,0-0.7,0c-0.3,0-0.5,0-0.8,0
			h-0.2c-0.3,0-0.7,0-1,0c-17.6-0.6-31.8-15-32-32.8c-0.1-1.3-0.2-2.6-0.2-3.9V173.5c24.5,16.8,53.8,26.4,84.5,26.4
			c11.9,0,24.1-1.4,36.2-4.5c17.9-4.5,34.2-12,48.5-21.9c31.2-21.5,53-54.1,61.1-90.8c9.5,10.4,17.4,22.4,23.3,35.5
			C326.8,134.7,330.9,152.9,330.9,172.1z"/>
		<path class="st9" d="M249.7,50c0.2,18.8-5.1,36.9-14.6,52.5c-13.1,21.4-34.3,37.9-60.6,44.5c-36.4,9.1-73.1-3.2-96.9-29
			c-4.4-4.7-8.3-9.9-11.7-15.5V76.1c0-20.1,16.3-36.3,36.3-36.3h96.2c12.7,0,25,1.8,36.7,5.1c3.2,0.9,6.3,1.9,9.4,3.1h0
			C246.3,48.6,248,49.3,249.7,50z"/>
	</g>
	<g>
		<path class="st7" d="M552.4,132.5c10.3,5.2,18.2,12.6,23.8,22.3c5.6,9.7,8.4,21,8.4,33.8c0,12.9-2.8,24.2-8.4,33.8
			c-5.6,9.7-13.5,17.1-23.8,22.3c-10.3,5.2-22.3,7.8-36,7.8h-43.5v50.4h-41.7V124.7h85.3C530.1,124.7,542.1,127.3,552.4,132.5z
			 M535.3,208.7c5.2-4.9,7.8-11.5,7.8-19.9c0-8.3-2.6-14.9-7.8-19.9c-5.2-4.9-12.2-7.4-21-7.4h-41.7v54.5h41.7
			C523.2,216.1,530.2,213.6,535.3,208.7z"/>
		<path class="st7" d="M733.2,177.2v125.7h-34.6l-2.5-15c-10.7,11.7-24.6,17.6-41.7,17.6c-11.7,0-22.1-2.8-31.2-8.3
			c-9.1-5.5-16.2-13.2-21.3-23.2c-5.1-9.9-7.6-21.3-7.6-34c0-12.7,2.5-24,7.6-34c5.1-9.9,12.2-17.6,21.3-23.2
			c9.1-5.5,19.5-8.3,31.2-8.3c8.5,0,16.3,1.5,23.4,4.5c7.1,3,13.2,7.3,18.3,12.9l2.5-14.8H733.2z M685.4,263.1
			c5.6-5.9,8.4-13.5,8.4-23c0-9.5-2.8-17.2-8.4-23c-5.6-5.9-12.8-8.8-21.6-8.8c-8.8,0-16,3-21.5,8.9c-5.5,5.9-8.3,13.6-8.3,22.9
			c0,9.3,2.8,17,8.3,22.9c5.5,5.9,12.7,8.9,21.5,8.9C672.6,271.8,679.8,268.9,685.4,263.1z"/>
		<path class="st8" d="M766.4,158.6c-4.3-4.1-6.5-9.2-6.5-15.5c0-6.4,2.2-11.7,6.6-15.8c4.4-4.1,10-6.1,16.8-6.1
			c6.8,0,12.4,2,16.8,6.1c4.4,4.1,6.6,9.3,6.6,15.8c0,6.3-2.2,11.5-6.5,15.5s-10,6.1-16.9,6.1C776.4,164.7,770.7,162.7,766.4,158.6z
			"/>
		<rect x="763.2" y="177.2" class="st7" width="40" height="125.7"/>
		<path class="st7" d="M824.1,289.4l15.3-27.5c6.1,3.7,13.2,6.6,21.3,8.7c8.1,2,16.1,3.1,24,3.1c11,0,16.5-3,16.5-8.9
			c0-3.1-1.5-5.3-4.6-6.9c-3.1-1.5-8.1-2.5-15.3-3.1c-15.9-0.8-28.6-4.8-38-12c-9.4-7.1-14.1-16.5-14.1-28
			c0-12.6,5.1-22.5,15.3-29.9c10.2-7.4,23.9-11.1,41.2-11.1c9.8,0,19.2,1.2,28.1,3.6c8.9,2.4,16.6,5.7,23,9.9l-15.5,26.7
			c-9.5-5.4-20.8-8.1-33.8-8.1c-12.9,0-19.3,3.1-19.3,9.2c0,2.5,1.3,4.5,3.9,5.9c2.6,1.4,7.1,2.4,13.4,3.1
			c18,1.4,31.7,5.4,41.1,12.2c9.4,6.8,14.1,16.3,14.1,28.5c0,12.9-5.2,23-15.5,30.4c-10.4,7.4-24.7,11.1-43,11.1
			C859.9,306.2,840.5,300.6,824.1,289.4z"/>
		<path class="st7" d="M1092,177.2v125.7h-34.6l-2.5-15c-10.7,11.7-24.6,17.6-41.7,17.6c-11.7,0-22.1-2.8-31.2-8.3
			c-9.1-5.5-16.2-13.2-21.3-23.2c-5.1-9.9-7.6-21.3-7.6-34c0-12.7,2.5-24,7.6-34c5.1-9.9,12.2-17.6,21.3-23.2
			c9.1-5.5,19.5-8.3,31.2-8.3c8.5,0,16.3,1.5,23.4,4.5c7.1,3,13.2,7.3,18.3,12.9l2.5-14.8H1092z M1044.2,263.1
			c5.6-5.9,8.4-13.5,8.4-23c0-9.5-2.8-17.2-8.4-23c-5.6-5.9-12.8-8.8-21.6-8.8c-8.8,0-16,3-21.5,8.9c-5.5,5.9-8.3,13.6-8.3,22.9
			c0,9.3,2.8,17,8.3,22.9c5.5,5.9,12.7,8.9,21.5,8.9C1031.4,271.8,1038.6,268.9,1044.2,263.1z"/>
		<path class="st7" d="M1164.1,296.8c-10.5-5.9-18.7-14.3-24.6-25.1c-5.9-10.8-8.8-23.1-8.8-37V124.7h11.2v109.9
			c0,11.9,2.5,22.4,7.4,31.4c4.9,9.1,11.8,16.2,20.6,21.3c8.8,5.1,18.9,7.6,30.3,7.6c11.4,0,21.5-2.5,30.3-7.6
			c8.8-5.1,15.7-12.2,20.6-21.3c4.9-9.1,7.4-19.6,7.4-31.4V124.7h11.2v109.9c0,13.9-2.9,26.3-8.8,37c-5.9,10.8-14,19.1-24.6,25.1
			c-10.5,5.9-22.6,8.9-36.1,8.9C1186.6,305.7,1174.6,302.7,1164.1,296.8z"/>
		<path class="st7" d="M1430.3,124.7v178.1h-10.2l-0.3-27.7c-4.8,9.2-11.9,16.4-21.5,21.8c-9.6,5.3-20.4,8-32.4,8
			c-12,0-22.9-2.8-32.4-8.3c-9.6-5.5-17.1-13.2-22.4-23c-5.3-9.8-8-21-8-33.6c0-12.6,2.7-23.8,8-33.6c5.3-9.8,12.8-17.5,22.4-23
			c9.6-5.5,20.4-8.3,32.4-8.3c12,0,22.8,2.6,32.3,7.9c9.5,5.3,16.6,12.5,21.4,21.6v-79.9H1430.3z M1394,288.1
			c8.1-4.6,14.3-11,18.8-19.3c4.5-8.3,6.7-17.9,6.7-28.8c0-10.9-2.3-20.4-6.7-28.8c-4.5-8.3-10.8-14.8-18.8-19.3
			c-8.1-4.6-17.2-6.9-27.4-6.9c-10.4,0-19.5,2.3-27.5,6.9c-8,4.6-14.2,11-18.7,19.3c-4.5,8.3-6.7,17.9-6.7,28.8
			c0,10.9,2.2,20.4,6.7,28.8c4.5,8.3,10.7,14.8,18.7,19.3c8,4.6,17.1,6.9,27.5,6.9C1376.8,295,1385.9,292.7,1394,288.1z"/>
		<path class="st7" d="M1571.1,189.9c9.4,9.7,14.1,23.2,14.1,40.5v72.5h-10.7v-72c0-14.6-3.7-25.8-11.2-33.6
			c-7.5-7.8-18.1-11.7-31.8-11.7c-9.3,0-17.7,2.1-25.1,6.2c-7.4,4.2-13.1,9.8-17.2,17.1c-4.1,7.2-6.1,15.2-6.1,24.1v70h-10.7V124.7
			h10.7v76.9c4.9-8.1,11.7-14.5,20.2-19.2c8.6-4.7,18.1-7,28.6-7C1548.7,175.4,1561.7,180.2,1571.1,189.9z"/>
		<path class="st7" d="M1744.6,177.2v125.7h-10.2l-0.3-28c-4.8,9.3-11.9,16.7-21.5,22c-9.6,5.3-20.4,8-32.4,8
			c-12.2,0-23.1-2.8-32.6-8.3c-9.5-5.5-16.9-13.2-22.3-23c-5.3-9.8-8-21-8-33.6c0-12.6,2.7-23.8,8-33.6c5.3-9.8,12.8-17.5,22.3-23
			c9.5-5.5,20.4-8.3,32.6-8.3c12,0,22.9,2.7,32.4,8.1c9.6,5.4,16.8,12.8,21.5,22.1l0.3-28.2H1744.6z M1708.3,288.1
			c8.1-4.6,14.3-11,18.8-19.3c4.5-8.3,6.7-17.9,6.7-28.8c0-10.9-2.3-20.4-6.7-28.8c-4.5-8.3-10.8-14.8-18.8-19.3
			c-8.1-4.6-17.2-6.9-27.4-6.9c-10.4,0-19.5,2.3-27.5,6.9c-8,4.6-14.2,11-18.7,19.3c-4.5,8.3-6.7,17.9-6.7,28.8
			c0,10.9,2.2,20.4,6.7,28.8c4.5,8.3,10.7,14.8,18.7,19.3c8,4.6,17.1,6.9,27.5,6.9C1691.1,295,1700.2,292.7,1708.3,288.1z"/>
		<path class="st7" d="M1865.7,182.8l-4.8,9.2c-6.3-3.7-13.3-5.6-21.1-5.6c-7.8,0-15,2.3-21.5,6.9c-6.5,4.6-11.7,10.9-15.4,18.8
			c-3.7,8-5.6,16.7-5.6,26.2v64.6h-10.7V177.2h10.2v28c4.4-9.2,10.4-16.3,17.9-21.5c7.5-5.2,16-7.8,25.3-7.8
			C1850,175.9,1858.6,178.2,1865.7,182.8z"/>
	</g>
</g>
<g>
	<g>
		<path class="st5" d="M-1732.7,801.8c0,1,0,2,0,3c-1.3,59.1-41.3,108.6-95.7,124.2c-11.6,3.4-23.9,5.2-36.7,5.2c-0.2,0-0.4,0-0.6,0
			l-72.5,70.5l-3.6,3.5c-5.3,5.1-12.1,8.3-19.4,9c-0.2,0-0.5,0-0.7,0.1c-0.3,0-0.5,0-0.8,0c-0.2,0-0.4,0-0.7,0c-0.3,0-0.5,0-0.8,0
			h-0.2c-0.3,0-0.7,0-1,0c-17.6-0.6-31.8-15-32-32.8c-0.1-1.3-0.2-2.6-0.2-3.9V803.3c24.5,16.8,53.8,26.4,84.5,26.4
			c11.9,0,24.1-1.4,36.2-4.5c17.9-4.5,34.2-12,48.5-21.9c31.2-21.5,53-54.1,61.1-90.8c9.5,10.4,17.4,22.4,23.3,35.5
			C-1736.7,764.5-1732.7,782.7-1732.7,801.8z"/>
		<path class="st9" d="M-1813.8,679.7c0.2,18.8-5.1,36.9-14.6,52.5c-13.1,21.4-34.3,37.9-60.6,44.5c-36.4,9.1-73.1-3.2-96.9-29
			c-4.4-4.7-8.3-9.9-11.7-15.5v-26.5c0-20.1,16.3-36.3,36.3-36.3h96.2c12.7,0,25,1.8,36.7,5.1c3.2,0.9,6.3,1.9,9.4,3.1h0
			C-1817.3,678.3-1815.5,679-1813.8,679.7z"/>
	</g>
	<g>
		<path class="st7" d="M-1511.1,762.2c10.3,5.2,18.2,12.6,23.8,22.3c5.6,9.7,8.4,21,8.4,33.8c0,12.9-2.8,24.2-8.4,33.8
			c-5.6,9.7-13.5,17.1-23.8,22.3c-10.3,5.2-22.3,7.8-36,7.8h-43.5v50.4h-41.7V754.5h85.3C-1533.4,754.5-1521.4,757.1-1511.1,762.2z
			 M-1528.2,838.5c5.2-4.9,7.8-11.5,7.8-19.9c0-8.3-2.6-14.9-7.8-19.9c-5.2-4.9-12.2-7.4-21-7.4h-41.7v54.5h41.7
			C-1540.4,845.8-1533.4,843.4-1528.2,838.5z"/>
		<path class="st7" d="M-1330.3,806.9v125.7h-34.6l-2.5-15c-10.7,11.7-24.6,17.6-41.7,17.6c-11.7,0-22.1-2.8-31.2-8.3
			c-9.1-5.5-16.2-13.2-21.3-23.2c-5.1-9.9-7.6-21.3-7.6-34c0-12.7,2.5-24,7.6-34c5.1-9.9,12.2-17.6,21.3-23.2
			c9.1-5.5,19.5-8.3,31.2-8.3c8.5,0,16.3,1.5,23.4,4.5c7.1,3,13.2,7.3,18.3,12.9l2.5-14.8H-1330.3z M-1378.2,892.8
			c5.6-5.9,8.4-13.5,8.4-23c0-9.5-2.8-17.2-8.4-23c-5.6-5.9-12.8-8.8-21.6-8.8c-8.8,0-16,3-21.5,8.9c-5.5,5.9-8.3,13.6-8.3,22.9
			c0,9.3,2.8,17,8.3,22.9c5.5,5.9,12.7,8.9,21.5,8.9C-1391,901.6-1383.8,898.6-1378.2,892.8z"/>
		<path class="st8" d="M-1297.1,788.3c-4.3-4.1-6.5-9.2-6.5-15.5c0-6.4,2.2-11.7,6.6-15.8c4.4-4.1,10-6.1,16.8-6.1
			c6.8,0,12.4,2,16.8,6.1c4.4,4.1,6.6,9.3,6.6,15.8c0,6.3-2.2,11.5-6.5,15.5c-4.3,4.1-10,6.1-16.9,6.1
			C-1287.1,794.4-1292.8,792.4-1297.1,788.3z"/>
		<rect x="-1300.3" y="806.9" class="st7" width="40" height="125.7"/>
		<path class="st7" d="M-1239.5,919.1l15.3-27.5c6.1,3.7,13.2,6.6,21.3,8.7c8.1,2,16.1,3.1,24,3.1c11,0,16.5-3,16.5-8.9
			c0-3.1-1.5-5.3-4.6-6.9c-3.1-1.5-8.1-2.5-15.3-3.1c-15.9-0.8-28.6-4.8-38-12c-9.4-7.1-14.1-16.5-14.1-28
			c0-12.6,5.1-22.5,15.3-29.9c10.2-7.4,23.9-11.1,41.2-11.1c9.8,0,19.2,1.2,28.1,3.6c8.9,2.4,16.6,5.7,23,9.9l-15.5,26.7
			c-9.5-5.4-20.8-8.1-33.8-8.1c-12.9,0-19.3,3.1-19.3,9.2c0,2.5,1.3,4.5,3.9,5.9c2.6,1.4,7.1,2.4,13.4,3.1
			c18,1.4,31.7,5.4,41.1,12.2c9.4,6.8,14.1,16.3,14.1,28.5c0,12.9-5.2,23-15.5,30.4c-10.4,7.4-24.7,11.1-43,11.1
			C-1203.7,935.9-1223,930.3-1239.5,919.1z"/>
		<path class="st7" d="M-971.5,806.9v125.7h-34.6l-2.5-15c-10.7,11.7-24.6,17.6-41.7,17.6c-11.7,0-22.1-2.8-31.2-8.3
			c-9.1-5.5-16.2-13.2-21.3-23.2c-5.1-9.9-7.6-21.3-7.6-34c0-12.7,2.5-24,7.6-34c5.1-9.9,12.2-17.6,21.3-23.2
			c9.1-5.5,19.5-8.3,31.2-8.3c8.5,0,16.3,1.5,23.4,4.5c7.1,3,13.2,7.3,18.3,12.9l2.5-14.8H-971.5z M-1019.3,892.8
			c5.6-5.9,8.4-13.5,8.4-23c0-9.5-2.8-17.2-8.4-23c-5.6-5.9-12.8-8.8-21.6-8.8c-8.8,0-16,3-21.5,8.9c-5.5,5.9-8.3,13.6-8.3,22.9
			c0,9.3,2.8,17,8.3,22.9c5.5,5.9,12.7,8.9,21.5,8.9C-1032.1,901.6-1024.9,898.6-1019.3,892.8z"/>
		<path class="st7" d="M-899.5,926.5c-10.5-5.9-18.7-14.3-24.6-25.1c-5.9-10.8-8.8-23.1-8.8-37V754.5h11.2v109.9
			c0,11.9,2.5,22.4,7.4,31.4c4.9,9.1,11.8,16.2,20.6,21.3c8.8,5.1,18.9,7.6,30.3,7.6c11.4,0,21.5-2.5,30.3-7.6
			c8.8-5.1,15.7-12.2,20.6-21.3c4.9-9.1,7.4-19.6,7.4-31.4V754.5h11.2v109.9c0,13.9-2.9,26.3-8.8,37c-5.9,10.8-14,19.1-24.6,25.1
			c-10.5,5.9-22.6,8.9-36.1,8.9C-876.9,935.4-888.9,932.5-899.5,926.5z"/>
		<path class="st7" d="M-633.3,754.5v178.1h-10.2l-0.3-27.7c-4.8,9.2-11.9,16.4-21.5,21.8c-9.6,5.3-20.4,8-32.4,8
			c-12,0-22.9-2.8-32.4-8.3c-9.6-5.5-17.1-13.2-22.4-23c-5.3-9.8-8-21-8-33.6c0-12.6,2.7-23.8,8-33.6c5.3-9.8,12.8-17.5,22.4-23
			c9.6-5.5,20.4-8.3,32.4-8.3c12,0,22.8,2.6,32.3,7.9c9.5,5.3,16.6,12.5,21.4,21.6v-79.9H-633.3z M-669.5,917.9
			c8.1-4.6,14.3-11,18.8-19.3c4.5-8.3,6.7-17.9,6.7-28.8c0-10.9-2.3-20.4-6.7-28.8c-4.5-8.3-10.8-14.8-18.8-19.3
			c-8.1-4.6-17.2-6.9-27.4-6.9c-10.4,0-19.5,2.3-27.5,6.9c-8,4.6-14.2,11-18.7,19.3c-4.5,8.3-6.7,17.9-6.7,28.8
			c0,10.9,2.2,20.4,6.7,28.8c4.5,8.3,10.7,14.8,18.7,19.3c8,4.6,17.1,6.9,27.5,6.9C-686.7,924.7-677.6,922.4-669.5,917.9z"/>
		<path class="st7" d="M-492.4,819.6c9.4,9.7,14.1,23.2,14.1,40.5v72.5H-489v-72c0-14.6-3.7-25.8-11.2-33.6
			c-7.5-7.8-18.1-11.7-31.8-11.7c-9.3,0-17.7,2.1-25.1,6.2c-7.4,4.2-13.1,9.8-17.2,17.1c-4.1,7.2-6.1,15.2-6.1,24.1v70H-591V754.5
			h10.7v76.9c4.9-8.1,11.7-14.5,20.2-19.2c8.6-4.7,18.1-7,28.6-7C-514.8,805.1-501.8,810-492.4,819.6z"/>
		<path class="st7" d="M-319,806.9v125.7h-10.2l-0.3-28c-4.8,9.3-11.9,16.7-21.5,22c-9.6,5.3-20.4,8-32.4,8
			c-12.2,0-23.1-2.8-32.6-8.3c-9.5-5.5-16.9-13.2-22.3-23c-5.3-9.8-8-21-8-33.6c0-12.6,2.7-23.8,8-33.6c5.3-9.8,12.8-17.5,22.3-23
			c9.5-5.5,20.4-8.3,32.6-8.3c12,0,22.9,2.7,32.4,8.1c9.6,5.4,16.8,12.8,21.5,22.1l0.3-28.2H-319z M-355.2,917.9
			c8.1-4.6,14.3-11,18.8-19.3c4.5-8.3,6.7-17.9,6.7-28.8c0-10.9-2.3-20.4-6.7-28.8c-4.5-8.3-10.8-14.8-18.8-19.3
			c-8.1-4.6-17.2-6.9-27.4-6.9c-10.4,0-19.5,2.3-27.5,6.9c-8,4.6-14.2,11-18.7,19.3c-4.5,8.3-6.7,17.9-6.7,28.8
			c0,10.9,2.2,20.4,6.7,28.8c4.5,8.3,10.7,14.8,18.7,19.3c8,4.6,17.1,6.9,27.5,6.9C-372.4,924.7-363.3,922.4-355.2,917.9z"/>
		<path class="st7" d="M-197.8,812.5l-4.8,9.2c-6.3-3.7-13.3-5.6-21.1-5.6c-7.8,0-15,2.3-21.5,6.9c-6.5,4.6-11.7,10.9-15.4,18.8
			c-3.7,8-5.6,16.7-5.6,26.2v64.6H-277V806.9h10.2v28c4.4-9.2,10.4-16.3,17.9-21.5c7.5-5.2,16-7.8,25.3-7.8
			C-213.5,805.6-205,807.9-197.8,812.5z"/>
	</g>
</g>
<g>
	<rect x="-4597.7" y="-4597.5" class="st0" width="3500" height="3500"/>
	<rect x="-1097.7" y="-2376.2" class="st1" width="3500" height="1278.7"/>
	<rect x="-1097.7" y="-4597.5" class="st2" width="3500" height="2221.3"/>
	<path class="st2" d="M1383.7-1937.6v413.4c0,67.5,55.2,122.7,122.7,122.7h413.4c67.5,0,122.7-55.2,122.7-122.7v-413.4
		c0-67.5-55.2-122.7-122.7-122.7h-413.4C1438.9-2060.3,1383.7-2005.1,1383.7-1937.6"/>
	<g>
		<path class="st3" d="M-3954.2-2651.1c19.1,9.6,33.8,23.4,44.2,41.3c10.4,18,15.6,38.9,15.6,62.8c0,23.9-5.2,44.9-15.6,62.8
			c-10.4,18-25.1,31.7-44.2,41.3c-19.1,9.6-41.3,14.4-66.9,14.4h-80.8v93.5h-77.5v-330.7h158.3
			C-3995.5-2665.5-3973.3-2660.7-3954.2-2651.1z M-3985.9-2509.6c9.6-9.1,14.4-21.4,14.4-36.9c0-15.4-4.8-27.7-14.4-36.9
			c-9.6-9.1-22.6-13.7-39-13.7h-77.5v101.1h77.5C-4008.5-2495.8-3995.5-2500.4-3985.9-2509.6z"/>
		<path class="st3" d="M-3618.5-2568.1v233.4h-64.3l-4.7-27.9c-19.8,21.7-45.7,32.6-77.5,32.6c-21.7,0-41-5.1-57.9-15.4
			c-16.9-10.2-30-24.6-39.5-43c-9.4-18.4-14.2-39.5-14.2-63.1c0-23.6,4.7-44.6,14.2-63.1c9.4-18.4,22.6-32.8,39.5-43
			c16.8-10.2,36.1-15.4,57.9-15.4c15.7,0,30.2,2.8,43.5,8.3c13.2,5.5,24.6,13.5,34,23.9l4.7-27.4H-3618.5z M-3707.3-2408.7
			c10.4-10.9,15.6-25.1,15.6-42.8c0-17.6-5.2-31.9-15.6-42.8c-10.4-10.9-23.8-16.3-40.2-16.3c-16.4,0-29.7,5.5-39.9,16.5
			c-10.2,11-15.4,25.2-15.4,42.5c0,17.3,5.1,31.5,15.4,42.5c10.2,11,23.5,16.5,39.9,16.5
			C-3731.1-2392.4-3717.7-2397.8-3707.3-2408.7z"/>
		<path class="st8" d="M-3556.9-2602.6c-8-7.6-12-17.2-12-28.8c0-12,4.1-21.7,12.3-29.3c8.2-7.6,18.6-11.3,31.2-11.3
			c12.6,0,23,3.8,31.2,11.3c8.2,7.6,12.3,17.3,12.3,29.3c0,11.7-4,21.3-12,28.8s-18.5,11.3-31.4,11.3
			C-3538.4-2591.3-3548.8-2595.1-3556.9-2602.6z"/>
		<rect x="-3562.8" y="-2568.1" class="st3" width="74.2" height="233.4"/>
		<path class="st3" d="M-3449.9-2359.8l28.3-51c11.3,6.9,24.5,12.3,39.5,16.1c15,3.8,29.8,5.7,44.6,5.7c20.5,0,30.7-5.5,30.7-16.5
			c0-5.7-2.8-9.9-8.5-12.8c-5.7-2.8-15.1-4.7-28.3-5.7c-29.6-1.6-53.2-9-70.6-22.2c-17.5-13.2-26.2-30.5-26.2-52
			c0-23.3,9.4-41.8,28.3-55.5c18.9-13.7,44.4-20.6,76.5-20.6c18.3,0,35.7,2.2,52.2,6.6c16.5,4.4,30.8,10.6,42.8,18.4l-28.8,49.6
			c-17.6-10.1-38.6-15.1-62.8-15.1c-23.9,0-35.9,5.7-35.9,17c0,4.7,2.4,8.3,7.3,10.9c4.9,2.5,13.1,4.4,24.8,5.7
			c33.4,2.5,58.8,10.1,76.3,22.7c17.5,12.6,26.2,30.2,26.2,52.9c0,23.9-9.6,42.8-28.8,56.5c-19.2,13.7-45.8,20.6-79.8,20.6
			C-3383.4-2328.6-3419.3-2339-3449.9-2359.8z"/>
		<path class="st3" d="M-2952.3-2568.1v233.4h-64.3l-4.7-27.9c-19.8,21.7-45.7,32.6-77.5,32.6c-21.7,0-41-5.1-57.9-15.4
			c-16.9-10.2-30-24.6-39.5-43c-9.4-18.4-14.2-39.5-14.2-63.1c0-23.6,4.7-44.6,14.2-63.1c9.4-18.4,22.6-32.8,39.5-43
			c16.8-10.2,36.1-15.4,57.9-15.4c15.7,0,30.2,2.8,43.5,8.3c13.2,5.5,24.6,13.5,34,23.9l4.7-27.4H-2952.3z M-3041.2-2408.7
			c10.4-10.9,15.6-25.1,15.6-42.8c0-17.6-5.2-31.9-15.6-42.8c-10.4-10.9-23.8-16.3-40.2-16.3c-16.4,0-29.7,5.5-39.9,16.5
			c-10.2,11-15.4,25.2-15.4,42.5c0,17.3,5.1,31.5,15.4,42.5c10.2,11,23.5,16.5,39.9,16.5C-3065-2392.4-3051.6-2397.8-3041.2-2408.7z
			"/>
		<path class="st3" d="M-2818.6-2346.1c-19.5-11-34.7-26.5-45.6-46.5c-10.9-20-16.3-42.9-16.3-68.7v-204.1h20.8v204.1
			c0,22.1,4.6,41.5,13.7,58.3c9.1,16.9,21.9,30,38.3,39.5c16.4,9.4,35.1,14.2,56.2,14.2c21.1,0,39.8-4.7,56.2-14.2
			c16.4-9.4,29.1-22.6,38.3-39.5c9.1-16.8,13.7-36.3,13.7-58.3v-204.1h20.8v204.1c0,25.8-5.4,48.7-16.3,68.7
			c-10.9,20-26.1,35.5-45.6,46.5c-19.5,11-41.9,16.5-67.1,16.5C-2776.8-2329.5-2799.1-2335-2818.6-2346.1z"/>
		<path class="st3" d="M-2324.4-2665.5v330.7h-18.9l-0.5-51.5c-8.8,17-22.1,30.5-39.9,40.4c-17.8,9.9-37.9,14.9-60.2,14.9
			c-22.4,0-42.4-5.1-60.2-15.4c-17.8-10.2-31.7-24.5-41.6-42.8c-9.9-18.3-14.9-39.1-14.9-62.4c0-23.3,5-44.1,14.9-62.4
			c9.9-18.3,23.8-32.5,41.6-42.8c17.8-10.2,37.9-15.4,60.2-15.4c22.4,0,42.4,4.9,60,14.6c17.6,9.8,30.9,23.2,39.7,40.2v-148.4
			H-2324.4z M-2391.8-2362.1c15-8.5,26.6-20.5,35-35.9c8.3-15.4,12.5-33.2,12.5-53.4c0-20.2-4.2-38-12.5-53.4
			c-8.3-15.4-20-27.4-35-35.9c-15-8.5-31.9-12.8-50.8-12.8c-19.2,0-36.2,4.3-51,12.8c-14.8,8.5-26.4,20.5-34.7,35.9
			c-8.3,15.4-12.5,33.2-12.5,53.4c0,20.2,4.2,38,12.5,53.4c8.3,15.4,19.9,27.4,34.7,35.9c14.8,8.5,31.8,12.8,51,12.8
			C-2423.7-2349.4-2406.7-2353.6-2391.8-2362.1z"/>
		<path class="st3" d="M-2062.9-2544.5c17.5,18,26.2,43,26.2,75.1v134.7h-19.8v-133.7c0-27.1-6.9-47.9-20.8-62.4
			c-13.9-14.5-33.5-21.7-59.1-21.7c-17.3,0-32.8,3.9-46.5,11.6c-13.7,7.7-24.3,18.3-31.9,31.7c-7.6,13.4-11.3,28.3-11.3,44.6v129.9
			h-19.8v-330.7h19.8v142.7c9.1-15.1,21.7-27,37.6-35.7c15.9-8.7,33.6-13,53.2-13C-2104.6-2571.4-2080.4-2562.5-2062.9-2544.5z"/>
		<path class="st3" d="M-1741-2568.1v233.4h-18.9l-0.5-52c-8.8,17.3-22.1,30.9-39.9,40.9c-17.8,9.9-37.9,14.9-60.2,14.9
			c-22.7,0-42.8-5.1-60.5-15.4c-17.6-10.2-31.4-24.5-41.3-42.8c-9.9-18.3-14.9-39.1-14.9-62.4c0-23.3,5-44.1,14.9-62.4
			c9.9-18.3,23.7-32.5,41.3-42.8c17.6-10.2,37.8-15.4,60.5-15.4c22.4,0,42.4,5,60.2,15.1c17.8,10.1,31.1,23.8,39.9,41.1l0.5-52.4
			H-1741z M-1808.3-2362.1c15-8.5,26.6-20.5,35-35.9c8.3-15.4,12.5-33.2,12.5-53.4c0-20.2-4.2-38-12.5-53.4
			c-8.3-15.4-20-27.4-35-35.9c-15-8.5-31.9-12.8-50.8-12.8c-19.2,0-36.2,4.3-51,12.8c-14.8,8.5-26.4,20.5-34.7,35.9
			c-8.3,15.4-12.5,33.2-12.5,53.4c0,20.2,4.2,38,12.5,53.4c8.3,15.4,19.9,27.4,34.7,35.9c14.8,8.5,31.8,12.8,51,12.8
			C-1840.2-2349.4-1823.2-2353.6-1808.3-2362.1z"/>
		<path class="st3" d="M-1516.1-2557.7l-9,17c-11.7-6.9-24.7-10.4-39.2-10.4c-14.5,0-27.8,4.3-39.9,12.8
			c-12.1,8.5-21.7,20.2-28.6,35c-6.9,14.8-10.4,31-10.4,48.7v120h-19.8v-233.4h18.9v52c8.2-17,19.3-30.3,33.3-39.9
			c14-9.6,29.7-14.4,47-14.4C-1545.2-2570.5-1529.3-2566.2-1516.1-2557.7z"/>
	</g>
	<path class="st3" d="M-176.7-1791.6c8.2,4.2,14.6,10.1,19.1,17.9c4.5,7.8,6.7,16.8,6.7,27.1c0,10.3-2.2,19.4-6.7,27.1
		c-4.5,7.8-10.9,13.7-19.1,17.9c-8.2,4.2-17.9,6.2-28.9,6.2h-34.9v40.4h-33.5v-142.9h68.4C-194.5-1797.9-184.9-1795.8-176.7-1791.6z
		 M-190.3-1730.5c4.1-3.9,6.2-9.3,6.2-15.9c0-6.7-2.1-12-6.2-15.9c-4.2-3.9-9.8-5.9-16.8-5.9h-33.5v43.7h33.5
		C-200.1-1724.6-194.5-1726.6-190.3-1730.5z"/>
	<path class="st3" d="M-31.6-1755.8v100.8h-27.8l-2-12c-8.6,9.4-19.7,14.1-33.5,14.1c-9.4,0-17.7-2.2-25-6.6
		c-7.3-4.4-13-10.6-17-18.6c-4.1-8-6.1-17-6.1-27.2c0-10.2,2-19.3,6.1-27.2c4.1-8,9.8-14.2,17-18.6c7.3-4.4,15.6-6.6,25-6.6
		c6.8,0,13.1,1.2,18.8,3.6c5.7,2.4,10.6,5.8,14.7,10.3l2-11.8H-31.6z M-70-1686.9c4.5-4.7,6.7-10.9,6.7-18.5
		c0-7.6-2.2-13.8-6.7-18.5c-4.5-4.7-10.3-7-17.4-7c-7.1,0-12.8,2.4-17.2,7.1c-4.4,4.8-6.6,10.9-6.6,18.4c0,7.5,2.2,13.6,6.6,18.4
		c4.4,4.8,10.2,7.1,17.2,7.1C-80.3-1679.9-74.5-1682.2-70-1686.9z"/>
	<path class="st8" d="M-5-1770.7c-3.5-3.3-5.2-7.4-5.2-12.5c0-5.2,1.8-9.4,5.3-12.7c3.5-3.3,8-4.9,13.5-4.9c5.4,0,9.9,1.6,13.5,4.9
		c3.5,3.3,5.3,7.5,5.3,12.7c0,5-1.7,9.2-5.2,12.5c-3.5,3.3-8,4.9-13.6,4.9C3-1765.8-1.5-1767.5-5-1770.7z"/>
	<rect x="-7.6" y="-1755.8" class="st3" width="32" height="100.8"/>
	<path class="st3" d="M41.2-1665.8l12.2-22c4.9,3,10.6,5.3,17,6.9c6.5,1.6,12.9,2.4,19.3,2.4c8.8,0,13.3-2.4,13.3-7.1
		c0-2.4-1.2-4.3-3.7-5.5c-2.4-1.2-6.5-2-12.2-2.4c-12.8-0.7-23-3.9-30.5-9.6c-7.6-5.7-11.3-13.2-11.3-22.5c0-10.1,4.1-18.1,12.2-24
		c8.2-5.9,19.2-8.9,33.1-8.9c7.9,0,15.4,1,22.6,2.9c7.1,1.9,13.3,4.6,18.5,8l-12.5,21.4c-7.6-4.4-16.7-6.5-27.1-6.5
		c-10.3,0-15.5,2.4-15.5,7.3c0,2,1.1,3.6,3.2,4.7c2.1,1.1,5.7,1.9,10.7,2.4c14.4,1.1,25.4,4.4,33,9.8c7.6,5.4,11.3,13.1,11.3,22.9
		c0,10.3-4.2,18.5-12.5,24.4c-8.3,5.9-19.8,8.9-34.5,8.9C69.9-1652.3,54.4-1656.8,41.2-1665.8z"/>
	<path class="st3" d="M256.2-1755.8v100.8h-27.8l-2-12c-8.6,9.4-19.7,14.1-33.5,14.1c-9.4,0-17.7-2.2-25-6.6
		c-7.3-4.4-13-10.6-17-18.6c-4.1-8-6.1-17-6.1-27.2c0-10.2,2-19.3,6.1-27.2c4.1-8,9.8-14.2,17-18.6c7.3-4.4,15.6-6.6,25-6.6
		c6.8,0,13.1,1.2,18.8,3.6c5.7,2.4,10.6,5.8,14.7,10.3l2-11.8H256.2z M217.8-1686.9c4.5-4.7,6.7-10.9,6.7-18.5
		c0-7.6-2.2-13.8-6.7-18.5c-4.5-4.7-10.3-7-17.4-7c-7.1,0-12.8,2.4-17.2,7.1c-4.4,4.8-6.6,10.9-6.6,18.4c0,7.5,2.2,13.6,6.6,18.4
		c4.4,4.8,10.2,7.1,17.2,7.1C207.5-1679.9,213.3-1682.2,217.8-1686.9z"/>
	<path class="st3" d="M313.9-1659.9c-8.4-4.8-15-11.5-19.7-20.1c-4.7-8.6-7-18.5-7-29.7v-88.2h9v88.2c0,9.5,2,17.9,5.9,25.2
		c3.9,7.3,9.5,13,16.5,17c7.1,4.1,15.2,6.1,24.3,6.1c9.1,0,17.2-2,24.3-6.1c7.1-4.1,12.6-9.8,16.5-17c3.9-7.3,5.9-15.7,5.9-25.2
		v-88.2h9v88.2c0,11.2-2.3,21.1-7,29.7c-4.7,8.6-11.3,15.3-19.7,20.1c-8.4,4.8-18.1,7.1-29,7.1
		C332-1652.7,322.4-1655.1,313.9-1659.9z"/>
	<path class="st3" d="M527.4-1797.9v142.9h-8.2l-0.2-22.2c-3.8,7.3-9.6,13.2-17.2,17.5c-7.7,4.3-16.4,6.4-26,6.4
		c-9.7,0-18.3-2.2-26-6.6c-7.7-4.4-13.7-10.6-18-18.5c-4.3-7.9-6.4-16.9-6.4-26.9c0-10.1,2.1-19,6.4-26.9c4.3-7.9,10.3-14,18-18.5
		c7.7-4.4,16.4-6.6,26-6.6c9.7,0,18.3,2.1,25.9,6.3c7.6,4.2,13.3,10,17.1,17.4v-64.1H527.4z M498.3-1666.8
		c6.5-3.7,11.5-8.8,15.1-15.5c3.6-6.7,5.4-14.4,5.4-23.1c0-8.7-1.8-16.4-5.4-23.1c-3.6-6.7-8.6-11.8-15.1-15.5
		c-6.5-3.7-13.8-5.5-21.9-5.5c-8.3,0-15.7,1.8-22,5.5c-6.4,3.7-11.4,8.8-15,15.5c-3.6,6.7-5.4,14.4-5.4,23.1
		c0,8.7,1.8,16.4,5.4,23.1c3.6,6.7,8.6,11.8,15,15.5c6.4,3.7,13.7,5.5,22,5.5C484.6-1661.3,491.9-1663.2,498.3-1666.8z"/>
	<path class="st3" d="M640.4-1745.6c7.6,7.8,11.3,18.6,11.3,32.5v58.2h-8.6v-57.8c0-11.7-3-20.7-9-26.9c-6-6.3-14.5-9.4-25.5-9.4
		c-7.5,0-14.2,1.7-20.1,5c-5.9,3.3-10.5,7.9-13.8,13.7c-3.3,5.8-4.9,12.2-4.9,19.3v56.1h-8.6v-142.9h8.6v61.6
		c3.9-6.5,9.4-11.7,16.2-15.4c6.9-3.7,14.5-5.6,23-5.6C622.4-1757.3,632.9-1753.4,640.4-1745.6z"/>
	<path class="st3" d="M779.5-1755.8v100.8h-8.2l-0.2-22.5c-3.8,7.5-9.6,13.4-17.2,17.7c-7.7,4.3-16.4,6.4-26,6.4
		c-9.8,0-18.5-2.2-26.1-6.6c-7.6-4.4-13.6-10.6-17.9-18.5c-4.3-7.9-6.4-16.9-6.4-26.9c0-10.1,2.1-19,6.4-26.9
		c4.3-7.9,10.2-14,17.9-18.5c7.6-4.4,16.3-6.6,26.1-6.6c9.7,0,18.3,2.2,26,6.5c7.7,4.4,13.4,10.3,17.2,17.8l0.2-22.7H779.5z
		 M750.4-1666.8c6.5-3.7,11.5-8.8,15.1-15.5c3.6-6.7,5.4-14.4,5.4-23.1c0-8.7-1.8-16.4-5.4-23.1c-3.6-6.7-8.6-11.8-15.1-15.5
		c-6.5-3.7-13.8-5.5-21.9-5.5c-8.3,0-15.7,1.8-22,5.5c-6.4,3.7-11.4,8.8-15,15.5c-3.6,6.7-5.4,14.4-5.4,23.1
		c0,8.7,1.8,16.4,5.4,23.1c3.6,6.7,8.6,11.8,15,15.5c6.4,3.7,13.7,5.5,22,5.5C736.6-1661.3,744-1663.2,750.4-1666.8z"/>
	<path class="st3" d="M876.7-1751.3l-3.9,7.3c-5-3-10.7-4.5-16.9-4.5c-6.3,0-12,1.8-17.2,5.5c-5.2,3.7-9.4,8.7-12.3,15.1
		c-3,6.4-4.5,13.4-4.5,21v51.8h-8.6v-100.8h8.2v22.5c3.5-7.3,8.3-13.1,14.4-17.2c6.1-4.1,12.8-6.2,20.3-6.2
		C864.1-1756.8,871-1755,876.7-1751.3z"/>
	<g>
		<path class="st5" d="M825.7-3876c0,1.4,0,2.8-0.1,4.2c-1.9,82.7-57.9,152-133.9,173.9c-16.3,4.7-33.5,7.2-51.3,7.2
			c-0.3,0-0.6,0-0.9,0L538-3592l-5.1,4.9c-7.4,7.2-17,11.6-27.2,12.6c-0.3,0-0.7,0.1-1,0.1c-0.4,0-0.7,0-1.1,0.1c-0.3,0-0.6,0-1,0
			c-0.4,0-0.7,0-1.1,0h-0.3c-0.5,0-1,0-1.4,0c-24.7-0.8-44.5-21.1-44.8-46c-0.2-1.8-0.3-3.6-0.3-5.4V-3874
			c34.2,23.6,75.4,36.9,118.3,36.9c16.7,0,33.7-2,50.7-6.2c25-6.2,47.9-16.8,67.9-30.6c43.6-30.1,74.1-75.8,85.5-127.1
			c13.4,14.6,24.4,31.4,32.6,49.7C820-3928.3,825.7-3902.8,825.7-3876z"/>
		<path class="st9" d="M712.1-4046.9c0.2,26.3-7.1,51.7-20.4,73.4c-18.3,30-48,53.1-84.9,62.3c-51,12.7-102.4-4.5-135.6-40.6
			c-6.1-6.6-11.6-13.8-16.4-21.6v-37c0-28.1,22.8-50.9,50.9-50.9h134.7c17.8,0,35,2.5,51.3,7.2c4.4,1.3,8.8,2.7,13.1,4.3h0
			C707.3-4048.9,709.7-4048,712.1-4046.9z"/>
	</g>
	<g>
		<path class="st5" d="M-2572.3-3269.2c0,2.1,0,4.2-0.1,6.3c-2.7,122.8-85.9,225.8-199,258.3c-24.2,7-49.8,10.7-76.2,10.7
			c-0.4,0-0.8,0-1.3,0l-150.8,146.7l-7.5,7.3c-11,10.7-25.3,17.2-40.4,18.7c-0.5,0-1,0.1-1.5,0.1c-0.5,0-1.1,0.1-1.6,0.1
			c-0.5,0-0.9,0-1.4,0c-0.5,0-1.1,0-1.6,0h-0.5c-0.7,0-1.4,0-2.1-0.1c-36.7-1.3-66.1-31.3-66.5-68.3c-0.3-2.7-0.5-5.4-0.5-8.1
			v-368.8c50.9,35,112,54.8,175.7,54.8c24.8,0,50.1-3,75.3-9.3c37.2-9.3,71.1-24.9,100.9-45.4c64.8-44.7,110.1-112.5,127-188.8
			c19.8,21.7,36.3,46.6,48.4,73.8C-2580.7-3346.9-2572.3-3309-2572.3-3269.2z"/>
		<path class="st9" d="M-2741-3523.1c0.3,39.1-10.6,76.8-30.3,109.1c-27.2,44.6-71.3,78.9-126,92.5c-75.7,18.9-152.1-6.7-201.5-60.3
			c-9.1-9.8-17.2-20.6-24.3-32.2v-55c0-41.7,33.8-75.6,75.6-75.6h200c26.5,0,52,3.7,76.3,10.7c6.6,1.9,13.1,4,19.5,6.4h0
			C-2748.2-3526-2744.5-3524.6-2741-3523.1z"/>
	</g>
	<g>
		<path class="st5" d="M1867.1-1779.3c0,1.2,0,2.3,0,3.5c-1.5,68.6-48,126.2-111.2,144.4c-13.5,3.9-27.8,6-42.6,6
			c-0.2,0-0.5,0-0.7,0l-84.3,82l-4.2,4.1c-6.1,6-14.1,9.6-22.6,10.4c-0.3,0-0.5,0-0.8,0.1c-0.3,0-0.6,0-0.9,0.1c-0.3,0-0.5,0-0.8,0
			c-0.3,0-0.6,0-0.9,0h-0.3c-0.4,0-0.8,0-1.2,0c-20.5-0.7-36.9-17.5-37.2-38.2c-0.2-1.5-0.3-3-0.3-4.5v-206.1
			c28.4,19.6,62.6,30.6,98.2,30.6c13.9,0,28-1.7,42.1-5.2c20.8-5.2,39.8-13.9,56.4-25.4c36.2-25,61.6-62.9,71-105.5
			c11.1,12.1,20.3,26,27,41.3C1862.3-1822.7,1867.1-1801.5,1867.1-1779.3z"/>
		<path class="st9" d="M1772.8-1921.2c0.2,21.9-5.9,42.9-16.9,61c-15.2,24.9-39.9,44.1-70.5,51.7c-42.3,10.5-85-3.8-112.6-33.7
			c-5.1-5.5-9.6-11.5-13.6-18v-30.8c0-23.3,18.9-42.2,42.2-42.2h111.8c14.8,0,29.1,2.1,42.6,6c3.7,1.1,7.3,2.3,10.9,3.6h0
			C1768.7-1922.8,1770.8-1922,1772.8-1921.2z"/>
	</g>
	<path class="st2" d="M-386.4-1747.9c0,0.9,0,1.8,0,2.8c-1.2,53.9-37.7,99-87.3,113.3c-10.6,3.1-21.8,4.7-33.4,4.7
		c-0.2,0-0.4,0-0.6,0l-66.1,64.3l-3.3,3.2c-4.8,4.7-11.1,7.6-17.7,8.2c-0.2,0-0.4,0-0.6,0.1c-0.2,0-0.5,0-0.7,0c-0.2,0-0.4,0-0.6,0
		c-0.2,0-0.5,0-0.7,0h-0.2c-0.3,0-0.6,0-0.9,0c-16.1-0.6-29-13.7-29.2-30c-0.1-1.2-0.2-2.4-0.2-3.6v-161.7c22.3,15.4,49.1,24,77,24
		c10.9,0,22-1.3,33-4.1c16.3-4.1,31.2-10.9,44.3-19.9c28.4-19.6,48.3-49.4,55.7-82.8c8.7,9.5,15.9,20.4,21.2,32.4
		C-390.1-1782-386.4-1765.4-386.4-1747.9z"/>
	<path class="st9" d="M-460.3-1859.3c0.1,17.2-4.6,33.7-13.3,47.8c-11.9,19.5-31.3,34.6-55.3,40.6c-33.2,8.3-66.7-3-88.4-26.4
		c-4-4.3-7.6-9-10.7-14.1v-24.1c0-18.3,14.8-33.1,33.1-33.1h87.7c11.6,0,22.8,1.6,33.4,4.7c2.9,0.8,5.7,1.8,8.5,2.8h0
		C-463.5-1860.5-461.9-1859.9-460.3-1859.3z"/>
	<path class="st7" d="M-88.5-3464.8c12.8,6.4,22.6,15.7,29.6,27.7c7,12,10.4,26,10.4,42.1c0,16-3.5,30-10.4,42.1
		c-7,12-16.8,21.2-29.6,27.7c-12.8,6.4-27.7,9.6-44.8,9.6h-54.1v62.6h-51.9v-221.4h106C-116.1-3474.5-101.2-3471.3-88.5-3464.8z
		 M-109.7-3370.1c6.4-6.1,9.6-14.3,9.6-24.7c0-10.3-3.2-18.6-9.6-24.7c-6.4-6.1-15.1-9.2-26.1-9.2h-51.9v67.7h51.9
		C-124.8-3360.9-116.1-3364-109.7-3370.1z"/>
	<path class="st7" d="M136.3-3409.3v156.3h-43l-3.2-18.7c-13.3,14.5-30.6,21.8-51.9,21.8c-14.5,0-27.5-3.4-38.7-10.3
		c-11.3-6.8-20.1-16.4-26.4-28.8c-6.3-12.3-9.5-26.4-9.5-42.2c0-15.8,3.2-29.9,9.5-42.2c6.3-12.3,15.1-21.9,26.4-28.8
		c11.3-6.8,24.2-10.3,38.7-10.3c10.5,0,20.2,1.8,29.1,5.5c8.9,3.7,16.4,9,22.8,16l3.2-18.3H136.3z M76.8-3302.6
		c7-7.3,10.4-16.8,10.4-28.6c0-11.8-3.5-21.3-10.4-28.6c-7-7.3-15.9-10.9-26.9-10.9c-11,0-19.9,3.7-26.7,11.1
		c-6.9,7.4-10.3,16.9-10.3,28.5c0,11.6,3.4,21.1,10.3,28.5c6.8,7.4,15.8,11.1,26.7,11.1C60.9-3291.7,69.8-3295.3,76.8-3302.6z"/>
	<path class="st8" d="M177.5-3432.4c-5.4-5.1-8.1-11.5-8.1-19.3c0-8,2.7-14.5,8.2-19.6c5.5-5.1,12.4-7.6,20.9-7.6
		c8.4,0,15.4,2.5,20.9,7.6c5.5,5.1,8.2,11.6,8.2,19.6c0,7.8-2.7,14.2-8.1,19.3c-5.4,5.1-12.4,7.6-21,7.6
		C189.9-3424.8,182.9-3427.4,177.5-3432.4z"/>
	<rect x="173.6" y="-3409.3" class="st7" width="49.7" height="156.3"/>
	<path class="st7" d="M249.2-3269.8l19-34.2c7.6,4.6,16.4,8.2,26.4,10.8c10,2.5,20,3.8,29.9,3.8c13.7,0,20.6-3.7,20.6-11.1
		c0-3.8-1.9-6.6-5.7-8.5c-3.8-1.9-10.1-3.2-19-3.8c-19.8-1.1-35.6-6-47.3-14.9c-11.7-8.9-17.6-20.5-17.6-34.8c0-15.6,6.3-28,19-37.2
		c12.7-9.2,29.7-13.8,51.2-13.8c12.2,0,23.9,1.5,35,4.4c11.1,3,20.6,7.1,28.6,12.3l-19.3,33.2c-11.8-6.7-25.8-10.1-42.1-10.1
		c-16,0-24,3.8-24,11.4c0,3.2,1.6,5.6,4.9,7.3c3.3,1.7,8.8,3,16.6,3.8c22.3,1.7,39.4,6.8,51.1,15.2c11.7,8.4,17.6,20.2,17.6,35.4
		c0,16-6.4,28.6-19.3,37.8c-12.9,9.2-30.7,13.8-53.5,13.8C293.7-3249,269.6-3255.9,249.2-3269.8z"/>
	<path class="st7" d="M582.2-3409.3v156.3h-43l-3.2-18.7c-13.3,14.5-30.6,21.8-51.9,21.8c-14.5,0-27.5-3.4-38.7-10.3
		c-11.3-6.8-20.1-16.4-26.4-28.8c-6.3-12.3-9.5-26.4-9.5-42.2c0-15.8,3.2-29.9,9.5-42.2c6.3-12.3,15.1-21.9,26.4-28.8
		c11.3-6.8,24.2-10.3,38.7-10.3c10.5,0,20.2,1.8,29.1,5.5c8.9,3.7,16.4,9,22.8,16l3.2-18.3H582.2z M522.8-3302.6
		c7-7.3,10.4-16.8,10.4-28.6c0-11.8-3.5-21.3-10.4-28.6c-7-7.3-15.9-10.9-26.9-10.9c-11,0-19.9,3.7-26.7,11.1
		c-6.9,7.4-10.3,16.9-10.3,28.5c0,11.6,3.4,21.1,10.3,28.5c6.8,7.4,15.8,11.1,26.7,11.1C506.9-3291.7,515.8-3295.3,522.8-3302.6z"/>
	<path class="st7" d="M671.8-3260.7c-13.1-7.4-23.2-17.8-30.5-31.2c-7.3-13.4-10.9-28.7-10.9-46v-136.6h13.9v136.6
		c0,14.8,3.1,27.8,9.2,39.1c6.1,11.3,14.7,20.1,25.6,26.4c11,6.3,23.5,9.5,37.6,9.5c14.1,0,26.7-3.2,37.6-9.5
		c11-6.3,19.5-15.1,25.6-26.4c6.1-11.3,9.2-24.3,9.2-39.1v-136.6H803v136.6c0,17.3-3.6,32.6-10.9,46c-7.3,13.4-17.5,23.8-30.5,31.2
		c-13.1,7.4-28,11.1-44.9,11.1C699.8-3249.6,684.8-3253.3,671.8-3260.7z"/>
	<path class="st7" d="M1002.6-3474.5v221.4H990l-0.3-34.5c-5.9,11.4-14.8,20.4-26.7,27c-11.9,6.6-25.4,10-40.3,10
		c-15,0-28.4-3.4-40.3-10.3c-11.9-6.9-21.2-16.4-27.8-28.6c-6.6-12.2-10-26.1-10-41.8c0-15.6,3.3-29.5,10-41.8
		c6.6-12.2,15.9-21.8,27.8-28.6c11.9-6.9,25.4-10.3,40.3-10.3c15,0,28.4,3.3,40.2,9.8c11.8,6.5,20.7,15.5,26.6,26.9v-99.3H1002.6z
		 M957.5-3271.4c10-5.7,17.8-13.7,23.4-24c5.6-10.3,8.4-22.2,8.4-35.7c0-13.5-2.8-25.4-8.4-35.7c-5.6-10.3-13.4-18.3-23.4-24
		c-10-5.7-21.4-8.5-34-8.5c-12.9,0-24.3,2.8-34.2,8.5c-9.9,5.7-17.7,13.7-23.2,24c-5.6,10.3-8.4,22.3-8.4,35.7
		c0,13.5,2.8,25.4,8.4,35.7c5.6,10.3,13.3,18.3,23.2,24c9.9,5.7,21.3,8.5,34.2,8.5C936.2-3262.9,947.5-3265.7,957.5-3271.4z"/>
	<path class="st7" d="M1177.7-3393.5c11.7,12,17.6,28.8,17.6,50.3v90.1h-13.3v-89.5c0-18.1-4.6-32.1-13.9-41.8
		c-9.3-9.7-22.5-14.5-39.5-14.5c-11.6,0-22,2.6-31.2,7.7c-9.2,5.2-16.3,12.2-21.4,21.2c-5.1,9-7.6,18.9-7.6,29.9v87h-13.3v-221.4
		h13.3v95.5c6.1-10.1,14.5-18.1,25.1-23.9c10.6-5.8,22.5-8.7,35.6-8.7C1149.8-3411.5,1166-3405.5,1177.7-3393.5z"/>
	<path class="st7" d="M1393.2-3409.3v156.3h-12.7l-0.3-34.8c-5.9,11.6-14.8,20.7-26.7,27.4c-11.9,6.6-25.4,10-40.3,10
		c-15.2,0-28.7-3.4-40.5-10.3c-11.8-6.9-21-16.4-27.7-28.6c-6.6-12.2-10-26.1-10-41.8c0-15.6,3.3-29.5,10-41.8
		c6.6-12.2,15.9-21.8,27.7-28.6c11.8-6.9,25.3-10.3,40.5-10.3c15,0,28.4,3.4,40.3,10.1c11.9,6.8,20.8,15.9,26.7,27.5l0.3-35.1
		H1393.2z M1348.2-3271.4c10-5.7,17.8-13.7,23.4-24c5.6-10.3,8.4-22.2,8.4-35.7c0-13.5-2.8-25.4-8.4-35.7
		c-5.6-10.3-13.4-18.3-23.4-24c-10-5.7-21.4-8.5-34-8.5c-12.9,0-24.3,2.8-34.2,8.5c-9.9,5.7-17.7,13.7-23.2,24
		c-5.6,10.3-8.4,22.3-8.4,35.7c0,13.5,2.8,25.4,8.4,35.7c5.6,10.3,13.3,18.3,23.2,24c9.9,5.7,21.3,8.5,34.2,8.5
		C1326.8-3262.9,1338.1-3265.7,1348.2-3271.4z"/>
	<path class="st7" d="M1543.8-3402.4l-6,11.4c-7.8-4.6-16.6-7-26.3-7c-9.7,0-18.6,2.8-26.7,8.5c-8.1,5.7-14.5,13.5-19.1,23.4
		c-4.6,9.9-7,20.8-7,32.6v80.3h-13.3v-156.3h12.7v34.8c5.5-11.4,12.9-20.3,22.3-26.7c9.4-6.4,19.9-9.6,31.5-9.6
		C1524.3-3410.9,1534.9-3408.1,1543.8-3402.4z"/>
</g>
<g>
	<path class="st3" d="M-7569.8-3252.8c19.1,9.6,33.8,23.4,44.2,41.3c10.4,18,15.6,38.9,15.6,62.8c0,23.9-5.2,44.9-15.6,62.8
		c-10.4,18-25.1,31.7-44.2,41.3c-19.1,9.6-41.3,14.4-66.9,14.4h-80.8v93.5h-77.5v-330.7h158.3
		C-7611.1-3267.2-7588.8-3262.4-7569.8-3252.8z M-7601.4-3111.3c9.6-9.1,14.4-21.4,14.4-36.9c0-15.4-4.8-27.7-14.4-36.9
		c-9.6-9.1-22.6-13.7-39-13.7h-77.5v101.1h77.5C-7624-3097.6-7611-3102.2-7601.4-3111.3z"/>
	<path class="st3" d="M-7234.1-3169.9v233.4h-64.3l-4.7-27.9c-19.8,21.7-45.7,32.6-77.5,32.6c-21.7,0-41-5.1-57.9-15.4
		c-16.9-10.2-30-24.6-39.5-43c-9.4-18.4-14.2-39.5-14.2-63.1c0-23.6,4.7-44.6,14.2-63.1c9.4-18.4,22.6-32.8,39.5-43
		c16.8-10.2,36.1-15.4,57.9-15.4c15.7,0,30.2,2.8,43.5,8.3c13.2,5.5,24.6,13.5,34,23.9l4.7-27.4H-7234.1z M-7322.9-3010.5
		c10.4-10.9,15.6-25.1,15.6-42.8c0-17.6-5.2-31.9-15.6-42.8c-10.4-10.9-23.8-16.3-40.2-16.3c-16.4,0-29.7,5.5-39.9,16.5
		c-10.2,11-15.4,25.2-15.4,42.5c0,17.3,5.1,31.5,15.4,42.5c10.2,11,23.5,16.5,39.9,16.5C-7346.7-2994.2-7333.3-2999.6-7322.9-3010.5
		z"/>
	<path class="st3" d="M-7172.4-3204.4c-8-7.6-12-17.2-12-28.8c0-12,4.1-21.7,12.3-29.3c8.2-7.6,18.6-11.3,31.2-11.3
		c12.6,0,23,3.8,31.2,11.3c8.2,7.6,12.3,17.3,12.3,29.3c0,11.7-4,21.3-12,28.8s-18.5,11.3-31.4,11.3
		C-7153.9-3193.1-7164.4-3196.9-7172.4-3204.4z M-7178.3-3169.9h74.2v233.4h-74.2V-3169.9z"/>
	<path class="st3" d="M-7065.4-2961.6l28.3-51c11.3,6.9,24.5,12.3,39.5,16.1c15,3.8,29.8,5.7,44.6,5.7c20.5,0,30.7-5.5,30.7-16.5
		c0-5.7-2.8-9.9-8.5-12.8c-5.7-2.8-15.1-4.7-28.3-5.7c-29.6-1.6-53.2-9-70.6-22.2c-17.5-13.2-26.2-30.5-26.2-52
		c0-23.3,9.4-41.8,28.3-55.5c18.9-13.7,44.4-20.6,76.5-20.6c18.3,0,35.7,2.2,52.2,6.6c16.5,4.4,30.8,10.6,42.8,18.4l-28.8,49.6
		c-17.6-10.1-38.6-15.1-62.8-15.1c-23.9,0-35.9,5.7-35.9,17c0,4.7,2.4,8.3,7.3,10.9c4.9,2.5,13.1,4.4,24.8,5.7
		c33.4,2.5,58.8,10.1,76.3,22.7c17.5,12.6,26.2,30.2,26.2,52.9c0,23.9-9.6,42.8-28.8,56.5c-19.2,13.7-45.8,20.6-79.8,20.6
		C-6999-2930.4-7034.9-2940.8-7065.4-2961.6z"/>
	<path class="st3" d="M-6567.9-3169.9v233.4h-64.3l-4.7-27.9c-19.8,21.7-45.7,32.6-77.5,32.6c-21.7,0-41-5.1-57.9-15.4
		c-16.9-10.2-30-24.6-39.5-43c-9.4-18.4-14.2-39.5-14.2-63.1c0-23.6,4.7-44.6,14.2-63.1c9.4-18.4,22.6-32.8,39.5-43
		c16.8-10.2,36.1-15.4,57.9-15.4c15.7,0,30.2,2.8,43.5,8.3c13.2,5.5,24.6,13.5,34,23.9l4.7-27.4H-6567.9z M-6656.7-3010.5
		c10.4-10.9,15.6-25.1,15.6-42.8c0-17.6-5.2-31.9-15.6-42.8c-10.4-10.9-23.8-16.3-40.2-16.3c-16.4,0-29.7,5.5-39.9,16.5
		c-10.2,11-15.4,25.2-15.4,42.5c0,17.3,5.1,31.5,15.4,42.5c10.2,11,23.5,16.5,39.9,16.5C-6680.5-2994.2-6667.1-2999.6-6656.7-3010.5
		z"/>
	<path class="st3" d="M-6434.2-2947.9c-19.5-11-34.7-26.5-45.6-46.5c-10.9-20-16.3-42.9-16.3-68.7v-204.1h20.8v204.1
		c0,22.1,4.6,41.5,13.7,58.3c9.1,16.9,21.9,30,38.3,39.5c16.4,9.4,35.1,14.2,56.2,14.2c21.1,0,39.8-4.7,56.2-14.2
		c16.4-9.4,29.1-22.6,38.3-39.5c9.1-16.8,13.7-36.3,13.7-58.3v-204.1h20.8v204.1c0,25.8-5.4,48.7-16.3,68.7
		c-10.9,20-26.1,35.5-45.6,46.5c-19.5,11-41.9,16.5-67.1,16.5C-6392.3-2931.3-6414.7-2936.8-6434.2-2947.9z"/>
	<path class="st3" d="M-5940-3267.2v330.7h-18.9l-0.5-51.5c-8.8,17-22.1,30.5-39.9,40.4c-17.8,9.9-37.9,14.9-60.2,14.9
		c-22.4,0-42.4-5.1-60.2-15.4c-17.8-10.2-31.7-24.5-41.6-42.8c-9.9-18.3-14.9-39.1-14.9-62.4c0-23.3,5-44.1,14.9-62.4
		c9.9-18.3,23.8-32.5,41.6-42.8c17.8-10.2,37.9-15.4,60.2-15.4c22.4,0,42.4,4.9,60,14.6c17.6,9.8,30.9,23.2,39.7,40.2v-148.4H-5940z
		 M-6007.3-2963.9c15-8.5,26.6-20.5,35-35.9c8.3-15.4,12.5-33.2,12.5-53.4c0-20.2-4.2-38-12.5-53.4c-8.3-15.4-20-27.4-35-35.9
		c-15-8.5-31.9-12.8-50.8-12.8c-19.2,0-36.2,4.3-51,12.8c-14.8,8.5-26.4,20.5-34.7,35.9c-8.3,15.4-12.5,33.2-12.5,53.4
		c0,20.2,4.2,38,12.5,53.4c8.3,15.4,19.9,27.4,34.7,35.9c14.8,8.5,31.8,12.8,51,12.8C-6039.2-2951.2-6022.3-2955.4-6007.3-2963.9z"
		/>
	<path class="st3" d="M-5678.5-3146.3c17.5,18,26.2,43,26.2,75.1v134.7h-19.8v-133.7c0-27.1-6.9-47.9-20.8-62.4
		c-13.9-14.5-33.5-21.7-59.1-21.7c-17.3,0-32.8,3.9-46.5,11.6c-13.7,7.7-24.3,18.3-31.9,31.7c-7.6,13.4-11.3,28.3-11.3,44.6v129.9
		h-19.8v-330.7h19.8v142.7c9.1-15.1,21.7-27,37.6-35.7c15.9-8.7,33.6-13,53.2-13C-5720.2-3173.2-5696-3164.3-5678.5-3146.3z"/>
	<path class="st3" d="M-5356.5-3169.9v233.4h-18.9l-0.5-52c-8.8,17.3-22.1,30.9-39.9,40.9c-17.8,9.9-37.9,14.9-60.2,14.9
		c-22.7,0-42.8-5.1-60.5-15.4c-17.6-10.2-31.4-24.5-41.3-42.8c-9.9-18.3-14.9-39.1-14.9-62.4c0-23.3,5-44.1,14.9-62.4
		c9.9-18.3,23.7-32.5,41.3-42.8c17.6-10.2,37.8-15.4,60.5-15.4c22.4,0,42.4,5,60.2,15.1c17.8,10.1,31.1,23.8,39.9,41.1l0.5-52.4
		H-5356.5z M-5423.8-2963.9c15-8.5,26.6-20.5,35-35.9c8.3-15.4,12.5-33.2,12.5-53.4c0-20.2-4.2-38-12.5-53.4
		c-8.3-15.4-20-27.4-35-35.9c-15-8.5-31.9-12.8-50.8-12.8c-19.2,0-36.2,4.3-51,12.8c-14.8,8.5-26.4,20.5-34.7,35.9
		c-8.3,15.4-12.5,33.2-12.5,53.4c0,20.2,4.2,38,12.5,53.4c8.3,15.4,19.9,27.4,34.7,35.9c14.8,8.5,31.8,12.8,51,12.8
		C-5455.7-2951.2-5438.8-2955.4-5423.8-2963.9z"/>
	<path class="st3" d="M-5131.6-3159.5l-9,17c-11.7-6.9-24.7-10.4-39.2-10.4c-14.5,0-27.8,4.3-39.9,12.8c-12.1,8.5-21.7,20.2-28.6,35
		c-6.9,14.8-10.4,31-10.4,48.7v120h-19.8v-233.4h18.9v52c8.2-17,19.3-30.3,33.3-39.9c14-9.6,29.7-14.4,47-14.4
		C-5160.8-3172.3-5144.9-3168-5131.6-3159.5z"/>
</g>
<g>
</g>
<g>
</g>
<g>
</g>
<g>
</g>
<g>
</g>
<g>
</g>
</svg>
